<?xml version="1.0" encoding="UTF-8"?><svg id="Layer_2" xmlns="http://www.w3.org/2000/svg" xmlns:xlink="http://www.w3.org/1999/xlink" viewBox="0 0 472 699.57"><defs><style>.cls-1{fill:url(#linear-gradient-12);}.cls-1,.cls-2,.cls-3,.cls-4,.cls-5,.cls-6,.cls-7,.cls-8,.cls-9,.cls-10,.cls-11,.cls-12,.cls-13,.cls-14,.cls-15,.cls-16,.cls-17,.cls-18,.cls-19,.cls-20,.cls-21,.cls-22,.cls-23,.cls-24,.cls-25{stroke-width:0px;}.cls-2{fill:url(#linear-gradient-17);}.cls-26,.cls-13{fill:#fff;}.cls-3{fill:url(#linear-gradient-19);}.cls-4{fill:url(#linear-gradient);}.cls-5{fill:url(#linear-gradient-6);}.cls-6{fill:#e6e6e6;}.cls-8{fill:url(#linear-gradient-15);}.cls-9{fill:url(#linear-gradient-11);}.cls-10{fill:url(#linear-gradient-5);}.cls-11{fill:url(#linear-gradient-13);}.cls-12{fill:url(#linear-gradient-16);}.cls-14{fill:url(#linear-gradient-14);}.cls-15{fill:url(#linear-gradient-2);}.cls-16{fill:url(#linear-gradient-7);}.cls-17{fill:url(#radial-gradient-2);}.cls-18{fill:url(#linear-gradient-3);}.cls-27{clip-path:url(#clippath);}.cls-19{fill:url(#linear-gradient-9);}.cls-20{fill:url(#radial-gradient);}.cls-21{fill:url(#linear-gradient-8);}.cls-22{fill:url(#linear-gradient-18);}.cls-23{fill:url(#linear-gradient-10);}.cls-24{fill:url(#radial-gradient-3);}.cls-25{fill:url(#linear-gradient-4);}</style><clipPath id="clippath"><circle class="cls-13" cx="236" cy="236" r="236"/></clipPath><linearGradient id="linear-gradient" x1="140.39" y1="697.6" x2="140.39" y2="626.53" gradientUnits="userSpaceOnUse"><stop offset="0" stop-color="#b5d7ff"/><stop offset="0" stop-color="#b8d9ff"/><stop offset=".05" stop-color="#d1e6ff"/><stop offset=".09" stop-color="#e4f1ff"/><stop offset=".15" stop-color="#f1f9ff"/><stop offset=".21" stop-color="#f9fdff"/><stop offset=".33" stop-color="#fcffff"/></linearGradient><linearGradient id="linear-gradient-2" x1="334.1" y1="699.57" x2="334.1" y2="622.87" xlink:href="#linear-gradient"/><radialGradient id="radial-gradient" cx="237.45" cy="565.35" fx="237.45" fy="565.35" r="107.05" gradientUnits="userSpaceOnUse"><stop offset="0" stop-color="#fbf5cb"/><stop offset=".06" stop-color="#fbeec1"/><stop offset=".35" stop-color="#fbd497"/><stop offset=".62" stop-color="#fbc079"/><stop offset=".84" stop-color="#fbb566"/><stop offset="1" stop-color="#fcb160"/></radialGradient><linearGradient id="linear-gradient-3" x1="232" y1="558" x2="232" y2="306.7" gradientUnits="userSpaceOnUse"><stop offset="0" stop-color="#242743"/><stop offset=".48" stop-color="#252844"/><stop offset=".66" stop-color="#2c2f47"/><stop offset=".78" stop-color="#383a4e"/><stop offset=".88" stop-color="#494b57"/><stop offset=".97" stop-color="#5f6063"/><stop offset="1" stop-color="#6a6b6a"/></linearGradient><linearGradient id="linear-gradient-4" x1="261.22" y1="377.3" x2="261.22" y2="431.15" gradientUnits="userSpaceOnUse"><stop offset="0" stop-color="#fcca7a"/><stop offset=".03" stop-color="#fcc979"/><stop offset=".6" stop-color="#fcb766"/><stop offset="1" stop-color="#fcb160"/></linearGradient><linearGradient id="linear-gradient-5" x1="228.63" y1="374.15" x2="228.63" y2="397.76" xlink:href="#linear-gradient-4"/><linearGradient id="linear-gradient-6" x1="223.64" y1="347.52" x2="223.64" y2="376.92" gradientUnits="userSpaceOnUse"><stop offset="0" stop-color="#b5d7ff"/><stop offset=".04" stop-color="#c0ddff"/><stop offset=".16" stop-color="#e0efff"/><stop offset=".26" stop-color="#f4faff"/><stop offset=".33" stop-color="#fcffff"/></linearGradient><linearGradient id="linear-gradient-7" x1="208.42" y1="326.74" x2="208.42" y2="350.46" xlink:href="#linear-gradient-6"/><linearGradient id="linear-gradient-8" x1="213.32" y1="338.8" x2="213.32" y2="339.12" xlink:href="#linear-gradient-6"/><linearGradient id="linear-gradient-9" x1="266" y1="318.68" x2="266" y2="351.3" xlink:href="#linear-gradient-6"/><linearGradient id="linear-gradient-10" x1="249.95" y1="345.67" x2="249.95" y2="380.15" xlink:href="#linear-gradient-6"/><linearGradient id="linear-gradient-11" x1="232.96" y1="454.98" x2="232.96" y2="533.2" xlink:href="#linear-gradient-6"/><linearGradient id="linear-gradient-12" x1="236.81" y1="503" x2="236.81" y2="570.73" gradientUnits="userSpaceOnUse"><stop offset="0" stop-color="#e6e6e6"/><stop offset=".01" stop-color="#e7e7e7"/><stop offset=".15" stop-color="#f3f4f4"/><stop offset=".33" stop-color="#f9fcfc"/><stop offset=".66" stop-color="#fcffff"/></linearGradient><linearGradient id="linear-gradient-13" x1="238.85" y1="327.59" x2="238.85" y2="367.08" xlink:href="#linear-gradient-12"/><linearGradient id="linear-gradient-14" x1="118.2" y1="483.79" x2="140" y2="483.79" gradientUnits="userSpaceOnUse"><stop offset="0" stop-color="#242743"/><stop offset=".55" stop-color="#252844"/><stop offset=".75" stop-color="#282f4b"/><stop offset=".89" stop-color="#2f3a57"/><stop offset="1" stop-color="#394a68"/></linearGradient><linearGradient id="linear-gradient-15" x1="586.54" y1="508.04" x2="589.07" y2="483.5" gradientTransform="translate(977.48 51.34) rotate(-174.12) scale(1 -1)" xlink:href="#linear-gradient-14"/><linearGradient id="linear-gradient-16" x1="335.17" y1="114.92" x2="335.17" y2="109.79" gradientUnits="userSpaceOnUse"><stop offset="0" stop-color="#534741"/><stop offset=".31" stop-color="#554943"/><stop offset=".53" stop-color="#5f534a"/><stop offset=".72" stop-color="#6e6256"/><stop offset=".9" stop-color="#847967"/><stop offset="1" stop-color="#958a74"/></linearGradient><radialGradient id="radial-gradient-2" cx="229.5" cy="205.12" fx="229.5" fy="241.84" r="118.28" xlink:href="#radial-gradient"/><radialGradient id="radial-gradient-3" cx="230.36" cy="290.37" fx="230.36" fy="259.61" r="91.76" gradientUnits="userSpaceOnUse"><stop offset=".49" stop-color="#fff"/><stop offset=".94" stop-color="#f0eff1"/><stop offset=".99" stop-color="#efeef0"/></radialGradient><linearGradient id="linear-gradient-17" x1="226.13" y1="134.78" x2="226.13" y2="61.08" xlink:href="#linear-gradient-16"/><linearGradient id="linear-gradient-18" x1="114.85" y1="226.87" x2="114.85" y2="129.28" gradientUnits="userSpaceOnUse"><stop offset="0" stop-color="#664a13"/><stop offset=".27" stop-color="#674b15"/><stop offset=".46" stop-color="#6b521f"/><stop offset=".63" stop-color="#735c2e"/><stop offset=".78" stop-color="#7e6b45"/><stop offset=".92" stop-color="#8c7d61"/><stop offset="1" stop-color="#958a74"/></linearGradient><linearGradient id="linear-gradient-19" x1="327.09" y1="231.58" x2="327.09" y2="138.59" gradientUnits="userSpaceOnUse"><stop offset="0" stop-color="#534741"/><stop offset=".57" stop-color="#544842"/><stop offset=".77" stop-color="#5b4e46"/><stop offset=".91" stop-color="#67584f"/><stop offset="1" stop-color="#736357"/></linearGradient></defs><g id="Layer_1-2"><circle class="cls-26" cx="236" cy="236" r="236"/><g class="cls-27"><path class="cls-4" d="m106.32,661.07c-.78,5.42-1.55,11.06.17,16.26,2.66,8.06,10.63,13.1,18.49,16.3,7.96,3.24,16.86,5.29,25.13,2.98,10.48-2.93,18.07-12.47,21.58-22.77,3.51-10.3,3.6-21.4,3.65-32.28-9.02-2.6-18.06-5.14-27.11-7.64-8.68-2.4-18.33-6.48-27.29-7.33-14.86-1.41-13.19,24.66-14.61,34.48Z"/><path class="cls-15" d="m299.49,642.49c.57,11.36,1.19,22.96,5.33,33.56,4.14,10.6,12.49,20.22,23.56,22.84,14.16,3.35,29.19-6.06,35.62-19.11,6.42-13.05,5.6-28.65,1.51-42.62-.87-2.96-1.97-6.03-4.3-8.04-2.66-2.29-6.38-2.77-9.87-3.16-9.29-1.03-18.57-2.05-27.86-3.08"/><path class="cls-13" d="m135.72,643.3c-4.01-.53-7.69-3.11-9.56-6.7,3.94-.91,8.2-.38,11.8,1.47-1.33-.97-2.66-1.95-3.98-2.92,6.13-1.03,12.61.25,17.89,3.51-1.8,1.35-4.22,1.83-6.4,1.29,5.94.14,11.82,2.09,16.67,5.52"/><path class="cls-13" d="m332.43,645.88c-5.25,1.6-11.03,1.39-16.16-.58,2.82-2.5,6.58-3.91,10.34-3.88-1.65-.1-3.3-.2-4.95-.29,6.42-3.19,13.73-4.57,20.87-3.95.13,1.01-.69,2.04-1.7,2.14,4.91-.07,9.81-.14,14.72-.22"/><path class="cls-13" d="m300.84,648.56h-.48"/><path class="cls-20" d="m365.14,633.06c-5.85-44.72-17.68-105.98-24.14-135.06l-209-14c-6.49,29.23-17.05,99.2-22.23,147.82,20.62,10.58,44.32,12.83,67.74,14.06,1.73-7.66,3.41-15.34,4.93-23.04,2.14-10.83,16.55-62.83,53.55-62.83h3c37,0,51.73,52,53.87,62.83,1.56,7.9,3.29,15.77,5.06,23.63,23.32,1.69,45.41-5.78,67.2-13.4Z"/><path class="cls-18" d="m164,312s-15,4-28,39c0,0-19,39-5,81l3,6-8,33-4,9-4,14,3,2-14,55s23,1,61-12c0,0,25,1,34-55l1-18,36-12,27,8s-7,63,30,79c0,0,42,15,61,17l-12-87-4-30s22-18,5-80c0,0-21-59-60-54l-14,44-8-3-3,26s33-12,44-4c0,0,28,17,2,41,0,0-15,10-43,19l3,7-22,11-20-57s-29,14-45,15c0,0-23-7-10-35,0,0,4-10,38-4v-18l-9,2-3-25s-21-9-32-14Z"/><path class="cls-25" d="m265.1,431.15c3.3-3.41,7.61-5.83,12.24-6.86-2.88-6.13-5.77-12.26-8.65-18.39.02,2.22.04,4.44.06,6.66-6.37-6.23-10.52-14.68-11.56-23.53.94.85,1.89,1.69,2.83,2.54-.3-2.11-.59-4.23-.89-6.34.8.39,1.6.77,2.4,1.16-.93-3.03-1.86-6.05-2.79-9.08-.03-.09-12.25,3.53-13.24,5.53-1.81,3.64,3.07,11.69,4.44,15.13,4.5,11.3,9.57,22.39,15.16,33.19Z"/><path class="cls-10" d="m222.87,384.94c1.7-1.31,1.83-4.19.26-5.65-.5-.9-1.02-1.86-1.03-2.89s.68-2.15,1.71-2.25c.41-.04.81.09,1.2.21,6.76,2.1,13.52,4.21,20.28,6.31-1.14-.35-8.03,4.97-9.47,5.74-3.57,1.92-7.25,3.63-11.01,5.12-2.38.95-13.61,8.61-12.82,5.45,1-4,3.88-10.84,5.33-13.1,1.28,1.6,3.75,2.42,5.54,1.04Z"/><path class="cls-5" d="m209.16,349.44c4.28-1.63,9.46-3.15,13.14-.42,1.28.95,2.18,2.3,3.05,3.63,5.09,7.82,9.74,15.93,13.93,24.26-.95-1.88-11.39-3.92-13.59-4.68-4.06-1.4-17.69-.94-17.69-5.24,0-3,.81-10.88,1.16-17.56Z"/><path class="cls-16" d="m199.45,350.46c6.75-.93,13.5-1.86,20.25-2.79.39-.05.84-.14,1.06-.47.27-.4.08-.93-.12-1.37-1.77-3.96-3.6-8.03-6.73-11.03-2.48-2.37-19.04-11.35-17.91-6.81,1,4,3.04,18.85,3.45,22.46Z"/><path class="cls-21" d="m213.32,339.12v-.32"/><path class="cls-19" d="m250.51,344.91c6.69,3.08,13.8,5.23,21.07,6.39,3.31-10.87,6.61-21.74,9.92-32.62-2.92,1.89-6.02,3.49-9.25,4.76-2.64,1.04-5.91,1.4-8.08,3.11-1.77,1.4-12.61,18.84-13.66,18.36Z"/><path class="cls-23" d="m236.67,361.42c-.87,1.35-1.75,2.86-1.57,4.46.2,1.76,1.61,3.11,2.38,4.7,1.11,2.31.89,5.19,2.43,7.24,1.28,1.69,3.54,2.41,5.65,2.34,2.12-.07,4.15-.81,6.14-1.54,3.5-1.28,7.2-2.71,9.4-5.72,2.04-2.79,2.41-6.42,2.71-9.85.33-3.78.66-7.56.99-11.35.49-5.69-10.7-6.96-14.99-5.42-5.87,2.11-10.02,10.26-13.14,15.14Z"/><path class="cls-9" d="m227.37,532.68c1.94-10.05,4.61-19.96,7.98-29.63.57,8.02,2.35,15.95,5.25,23.45.64,1.67,1.39,3.37,2.72,4.56,1.95,1.74,4.77,2.05,7.39,2.12,8.53.24,19.24-1.35,27.29-4.18-11-20-12.25-44.4-11.63-67.21-8.08-3.48-16.48-7.02-25.27-6.81-13.09.31-24.7,8.85-37.7,10.44-.51.06-1.17,14.74-1.4,16.57-2.63,20.71-14,41-14.07,41.55-.59,4.8,11.7,5.59,15.5,6.4,7.87,1.67,15.89,2.59,23.93,2.73Z"/><path class="cls-1" d="m218,565c7.43-.17,11.65-4.3,19.07-4.76,10.92-.67,22.05,3.19,30.21,10.48-2.74-.77-5.2-2.54-6.79-4.9,15.58-1.75,30.34-9.91,40.11-22.17.4.34-15.6-8.66-20.6-14.66-1.1-1.32-5.67,1.69-7.37,1.9-10,1.26-20,2.52-30,3.77-3.1-9.7-4.53-21.98-7.63-31.68-3.17,3.99-3.65,10.09-5,15s.86,13.45-4,15c-4.75,1.51-32.02-7-37-7-3,0-16,12-16,12,8.64,10.23,31.66,27.31,45,27Z"/><path class="cls-11" d="m234.68,367.08c8.03-13.97,17.63-27.04,28.56-38.88-4.1-1.51-8.76,0-12.38,2.44-3.63,2.44-6.59,5.74-10.07,8.38s-7.83,4.65-12.13,3.86c-5.43-1-8.93-6.23-14.2-7.3,3.46,10.65,14,22.01,20.22,31.51Z"/><path class="cls-7" d="m163.27,310.72c-8.32,4.71-14.34,12.4-19.12,20.52-5.29,8.99-9.65,18.64-12.91,28.55-1.68,5.1-3.05,10.31-4.05,15.59s-1.56,10.47-2.17,15.73c-1.16,10.02-1.79,20.18.58,30.09,2.15,9.02,6.5,17.96,12.01,25.41,4.14,5.61,9.23,10.5,15.29,14,9.8,5.66,21.02,6.95,32.14,7.04,2.39.02,4.78.01,7.17.02,5.27.01,10.53-.68,15.67-1.8,10.43-2.25,20.4-6.2,30.5-9.57,2.5-.83,5-1.63,7.53-2.36.74-.21,1.32-1.07,1.05-1.85-5.55-15.63-10.74-31.39-16.14-47.08-1.6-4.65-3.22-9.29-4.86-13.92-.25-.7-1.05-1.36-1.85-1.05-9.6,3.74-18.99,8.04-28.65,11.62-2.05.76-4.12,1.47-6.2,2.14-2.61.84-5.22,1.57-7.98,1.02-2.49-.5-5.25-1.64-7.35-3.06-1.29-.88-2.29-2.39-3.1-3.74-5.1-8.55-6.33-20.85,2.03-27.77,4.43-3.67,10.18-4.67,15.78-4.55,6.7.15,13.36,1.74,19.78,3.55,12.86,3.62,25.28,8.74,37.68,13.68,1.79.71,2.57-2.19.8-2.89-11.7-4.66-23.42-9.44-35.51-13.05-6.61-1.98-13.46-3.67-20.36-4.18-6.21-.45-12.68.22-18.04,3.65-4.66,2.99-8.05,7.8-8.93,13.3s.22,11.12,2.37,16.18c.93,2.18,2.06,4.26,3.55,6.11,1.34,1.66,2.92,2.63,4.82,3.55,2.69,1.31,5.5,2.4,8.54,2.41,2.83,0,5.53-.93,8.18-1.81,11.35-3.78,22.23-8.94,33.37-13.28l-1.85-1.05c5.55,15.63,10.74,31.39,16.14,47.08,1.6,4.65,3.22,9.29,4.86,13.92l1.05-1.85c-10.03,2.92-19.72,6.85-29.74,9.8-4.89,1.43-9.87,2.65-14.93,3.3-3.78.48-7.55.51-11.35.51-10.2,0-20.58-.24-30.1-4.34-13.78-5.93-22.64-18.66-28.04-32.22-3.7-9.29-4.43-19.06-3.71-28.95s1.97-20.58,4.53-30.5,6.47-19.81,11.23-29.07c4.22-8.2,9.1-16.41,16.23-22.43,1.73-1.46,3.59-2.73,5.56-3.85,1.68-.95.17-3.54-1.51-2.59h0Z"/><path class="cls-7" d="m300.1,309.95c16.14,5.63,28.12,19.41,36.3,33.92,3.55,6.29,6.52,12.94,8.66,19.84s3.05,14.21,4.1,21.36c1.44,9.88,2.57,20.1,1.3,30.07s-6.39,18.78-12.55,26.4c-5.09,6.3-11.36,11.53-18.75,14.9-5.98,2.72-12.52,4.08-19.04,4.7-3.06.29-6.14.44-9.21.56-4.34.17-8.68.38-13.02.12-10.17-.6-19.78-3.76-29.51-6.52-2.81-.8-5.64-1.55-8.48-2.25-1.87-.46-2.67,2.43-.8,2.89,10.44,2.55,20.62,6.42,31.26,8.07,8.55,1.33,17.23.97,25.83.44,6.74-.42,13.5-1.33,19.89-3.57,7.58-2.66,14.39-7.06,20.01-12.8,3.43-3.5,6.43-7.43,9.05-11.57,2.79-4.4,5.46-9.08,6.9-14.12,2.75-9.69,2.15-20.21,1.04-30.1-.56-4.98-1.31-9.93-2.12-14.87-.57-3.51-1.05-7.04-1.91-10.5-1.7-6.84-4.38-13.46-7.53-19.74-7.61-15.22-19.02-29.95-34.58-37.59-1.97-.97-4-1.81-6.07-2.53-1.83-.64-2.61,2.26-.8,2.89h0Z"/><circle class="cls-7" cx="200.5" cy="451.5" r="3"/><circle class="cls-7" cx="215" cy="448" r="3"/><circle class="cls-7" cx="229" cy="444" r="3"/><path class="cls-7" d="m225.85,392.8c5.81-4.03,11.97-7.51,18.42-10.4l-2.2-.9c7.84,18.62,15.67,37.24,23.51,55.86l1.05-1.85c-7.94,3.21-15.67,6.89-23.15,11.05-1.69.94-.18,3.53,1.51,2.59,7.25-4.03,14.74-7.63,22.44-10.75.67-.27,1.39-1.03,1.05-1.85-7.84-18.62-15.67-37.24-23.51-55.86-.4-.96-1.23-1.33-2.2-.9-6.45,2.89-12.61,6.37-18.42,10.4-1.57,1.09-.08,3.7,1.51,2.59h0Z"/><path class="cls-7" d="m245.46,383.63c9.72-4.58,19.78-8.4,30.09-11.42,5.1-1.49,10.37-3.12,15.67-3.65,4.99-.5,9.67.43,13.88,3.19,3.92,2.56,7.26,6.32,9.46,10.44s2.6,8.59,1.44,13.01c-2.42,9.2-10.07,15.36-18.2,19.51-4.99,2.55-10.25,4.55-15.44,6.65-5.91,2.39-11.82,4.78-17.74,7.17-1.77.71-.99,3.62.8,2.89,5.61-2.27,11.22-4.53,16.83-6.8,5.01-2.03,10.08-3.96,14.96-6.29,9-4.28,17.4-10.48,20.98-20.14,1.62-4.38,1.99-9.29.55-13.77-1.54-4.8-4.81-9.15-8.53-12.49s-8.17-5.73-13.15-6.35c-5.7-.71-11.42.78-16.9,2.22-12.45,3.28-24.58,7.74-36.23,13.23-1.75.82-.22,3.41,1.51,2.59h0Z"/><path class="cls-7" d="m210.83,333.21c10.03,14.17,20.21,28.54,26.57,44.8.7,1.78,3.6,1,2.89-.8-6.47-16.54-16.68-31.11-26.87-45.52-1.11-1.56-3.71-.07-2.59,1.51h0Z"/><path class="cls-7" d="m236.13,368.02c7.26-14.94,17.84-27.81,28.37-40.53,1.22-1.48-.89-3.61-2.12-2.12-10.68,12.9-21.47,25.98-28.84,41.14-.84,1.73,1.75,3.25,2.59,1.51h0Z"/><path class="cls-7" d="m194.46,326.38c1.3,8.06,2.29,16.16,2.98,24.29.08.98.89,1.69,1.9,1.45,7.27-1.79,14.63-3.21,22.05-4.25,1.9-.27,1.09-3.16-.8-2.89-7.42,1.04-14.77,2.46-22.05,4.25l1.9,1.45c-.71-8.4-1.74-16.76-3.09-25.08-.31-1.9-3.2-1.09-2.89.8h0Z"/><path class="cls-7" d="m249.99,345.85c7.24,2.25,14.49,4.5,21.73,6.75.58.18,1.43-.11,1.69-.69,4.72-10.19,5.55-21.52,9.16-32.07.63-1.83-2.27-2.62-2.89-.8-3.52,10.28-4.26,21.43-8.85,31.36l1.69-.69c-7.24-2.25-14.49-4.5-21.73-6.75-1.85-.57-2.64,2.32-.8,2.89h0Z"/><path class="cls-7" d="m206.16,348.72c.1,5.87.2,11.74.3,17.61.03,1.93,3.03,1.93,3,0-.1-5.87-.2-11.74-.3-17.61-.03-1.93-3.03-1.93-3,0h0Z"/><path class="cls-7" d="m263,348.5c-.83,8.6-1.44,17.22-2.27,25.82-.19,1.92,2.82,1.91,3,0,.83-8.6,1.44-17.22,2.27-25.82.19-1.92-2.82-1.91-3,0h0Z"/><path class="cls-7" d="m188.74,323.74c-3.32,13.06-5.75,26.32-7.32,39.7-.22,1.91,2.78,1.9,3,0,1.54-13.11,3.96-26.11,7.21-38.9.48-1.87-2.42-2.67-2.89-.8h0Z"/><path class="cls-7" d="m280.55,320.68c4.76,14.57,7.63,29.71,8.49,45.01.11,1.92,3.11,1.93,3,0-.88-15.57-3.76-30.99-8.6-45.81-.6-1.83-3.49-1.05-2.89.8h0Z"/><path class="cls-7" d="m340,441.5c3.62,30.35,7.87,60.61,12.22,90.86,1.25,8.68,2.5,17.35,3.74,26.03l1.45-1.9c-2.08-.18-4.16-.76-6.21-1.19-2.7-.57-5.39-1.16-8.08-1.78-5.22-1.2-10.42-2.5-15.59-3.89-9.2-2.48-18.53-4.99-27.32-8.72-7.72-3.28-15.27-7.75-20.45-14.5-6.14-8.01-8.43-18.7-10-28.46-1.91-11.87-2.18-23.94-2.48-35.93-.05-1.93-3.05-1.93-3,0,.27,11.02.56,22.07,2.04,33.01.73,5.4,1.74,10.76,3.19,16.02s3.19,10.07,6.01,14.51c10.03,15.79,30.09,21.08,46.99,25.82,6.02,1.68,12.07,3.24,18.15,4.67,3.08.72,6.17,1.41,9.27,2.07,2.47.52,4.96,1.18,7.48,1.4,1.08.09,1.57-1.03,1.45-1.9-4.29-29.99-8.71-59.96-12.6-90-1.13-8.69-2.21-17.39-3.25-26.09-.23-1.89-3.23-1.92-3,0h0Z"/><path class="cls-7" d="m133.05,438.1c-6.49,29.21-13.96,58.18-21.29,87.18-2.12,8.39-4.22,16.78-6.29,25.17-.23.96.45,1.88,1.45,1.9,2.06.03,4.14-.32,6.18-.55,2.75-.31,5.49-.64,8.23-1.01,5.53-.73,11.05-1.57,16.55-2.53,9.38-1.63,18.91-3.3,27.92-6.46,8.12-2.85,15.95-7.13,21.48-13.88,6.34-7.73,9.64-17.89,12.04-27.46,2.88-11.47,4.17-23.26,5.68-34.97.25-1.91-2.76-1.89-3,0-1.3,10.09-2.44,20.22-4.63,30.17s-4.94,19.56-10.44,27.74c-10.05,14.96-29.81,18.32-46.25,21.33-5.84,1.07-11.7,2.01-17.59,2.83-3.01.42-6.02.79-9.04,1.14-2.36.27-4.77.7-7.15.66l1.45,1.9c7.14-29.05,14.8-57.97,21.74-87.07,2.01-8.41,3.96-16.84,5.83-25.29.42-1.88-2.47-2.68-2.89-.8h0Z"/><path class="cls-7" d="m187.9,527.31c12.75,4.01,26,6.32,39.36,6.88.64.03,1.3-.48,1.45-1.1,4.74-19.84,8.89-39.82,12.43-59.91,1.01-5.73,1.97-11.47,2.88-17.21.3-1.89-2.59-2.7-2.89-.8-3.2,20.15-6.99,40.2-11.39,60.12-1.25,5.68-2.56,11.35-3.91,17.01l1.45-1.1c-13.1-.55-26.06-2.84-38.56-6.77-1.85-.58-2.64,2.31-.8,2.89h0Z"/><path class="cls-7" d="m233.4,500.71c2.2,11,4.88,21.9,8.04,32.67.19.66.77,1.07,1.45,1.1,12.07.61,24.19-.8,35.8-4.15,1.85-.53,1.06-3.43-.8-2.89-11.37,3.28-23.18,4.64-35,4.04l1.45,1.1c-3.15-10.77-5.83-21.67-8.04-32.67-.38-1.89-3.27-1.09-2.89.8h0Z"/><path class="cls-14" d="m118.28,494.02c-.09.41-.16.88.11,1.21.22.27.59.33.93.38,3.33.47,6.86.92,9.93-.44,4.46-1.97,6.53-7.03,8.11-11.64.87-2.56,1.73-5.12,2.55-7.69.07-.21.13-.45.03-.64-.1-.19-.32-.27-.52-.34-5.76-1.93-7.97-2.17-13.93-3.36,0,0-5.62,15.02-7.22,22.52Z"/><path class="cls-7" d="m116.83,493.62c-.15.8-.22,1.64.26,2.36.61.92,1.66,1.05,2.67,1.19,2.01.28,4.05.53,6.09.34,3.8-.35,6.84-2.2,9.07-5.26,2.09-2.87,3.23-6.35,4.35-9.68.36-1.05.71-2.11,1.06-3.17.37-1.12.94-2.33,1.11-3.5.34-2.3-2.17-2.7-3.86-3.22-3.83-1.18-7.76-1.86-11.68-2.63-.85-.17-1.54.24-1.85,1.05-2.74,7.34-5.56,14.85-7.22,22.52-.41,1.88,2.48,2.69,2.89.8,1.66-7.67,4.48-15.18,7.22-22.52l-1.85,1.05c3.49.69,7,1.28,10.42,2.26.89.25,1.77.53,2.65.82.29.09.57.19.86.28-.36-1.04-.59-1.18-.71-.41-.31.44-.42,1.3-.59,1.81-.69,2.09-1.37,4.18-2.1,6.25-1.11,3.13-2.48,6.56-5.13,8.71-1.5,1.22-3.36,1.79-5.27,1.88-.98.05-1.97,0-2.95-.09-.57-.05-1.13-.12-1.69-.19-.29-.04-.57-.08-.86-.12-.47-.15-.47-.06,0,.26.35-1.89-2.55-2.7-2.89-.8Z"/><path class="cls-8" d="m351.81,495.07c.05.42.07.9-.23,1.19-.25.24-.62.27-.97.28-3.36.13-6.92.22-9.84-1.45-4.23-2.42-5.78-7.66-6.87-12.41-.61-2.63-1.19-5.27-1.75-7.91-.05-.22-.09-.46.04-.64.12-.18.34-.24.55-.28,5.92-1.33,8.15-1.34,14.2-1.91,0,0,4.05,15.52,4.88,23.14Z"/><path class="cls-7" d="m350.31,495.07c-.04.44.06.44.3-.03-.28.01-.56.02-.84.03-.57.02-1.13.03-1.7.03-.99,0-1.99-.03-2.97-.17-1.92-.28-3.75-.98-5.16-2.34-2.43-2.34-3.46-5.77-4.26-8.95-.54-2.15-1-4.32-1.48-6.48-.1-.47-.2-.93-.3-1.4-.07-.31-.13-.62-.2-.93-.07-.79-.25-.64-.56.46.16.17,2.54-.54,2.94-.61,3.59-.68,7.22-.91,10.85-1.24l-1.45-1.1c1.94,7.45,3.97,15.08,4.82,22.74.21,1.9,3.21,1.92,3,0-.88-7.94-2.92-15.82-4.93-23.54-.15-.59-.81-1.16-1.45-1.1-3.52.33-7.06.56-10.55,1.15-.91.15-1.81.33-2.71.52-.97.21-2.21.32-2.78,1.26-.5.83-.17,1.86.01,2.73.25,1.17.5,2.33.76,3.49,1.5,6.76,3.05,15.34,10.61,17.78,2.13.68,4.43.77,6.64.73,1.06-.02,2.34.11,3.28-.45s1.19-1.56,1.11-2.57c-.15-1.91-3.15-1.93-3,0Z"/><path class="cls-7" d="m353.05,557.9c6.2,27.99,10.67,56.27,12.67,84.88.52,7.46.9,14.93,1.17,22.41.13,3.65.33,7.4-.54,10.99-.72,2.99-2.23,5.7-4.29,7.98-3.96,4.38-9.42,7.29-14.92,9.25s-11.15,2.98-16.89,2.7c-5.42-.26-10.96-1.87-15.14-5.46-4.94-4.23-7.28-10.4-8.87-16.53-1.84-7.07-3.25-14.28-4.87-21.4-1.72-7.55-3.44-15.1-5.06-22.68-1.47-6.9-2.7-13.73-4.96-20.42-2.37-7.02-5.35-13.86-9.03-20.3-8.43-14.76-21.42-28.05-39.08-30.07-8.35-.95-16.94.16-24.55,3.78s-14.15,9.69-19.34,16.43c-8.48,11-14.46,24.36-17.84,37.81-1.14,4.55-1.92,9.19-2.9,13.78-1.63,7.57-3.35,15.12-5.07,22.67-1.61,7.06-2.97,14.23-4.86,21.22-1.62,5.97-4.05,11.9-8.94,15.95-8.91,7.38-22.34,6.03-32.46,2.26-5.48-2.04-10.9-5.05-14.72-9.57-2.03-2.41-3.38-5.26-3.98-8.35-.69-3.54-.44-7.23-.31-10.81,1.15-30.87,4.55-61.65,10.17-92.02,1.37-7.37,2.86-14.72,4.48-22.05.42-1.88-2.47-2.68-2.89-.8-6.77,30.59-11.32,61.67-13.56,92.91-.56,7.82-.98,15.65-1.25,23.49-.13,3.68-.2,7.42.67,11.02.72,2.99,2.16,5.73,4.06,8.13,3.78,4.76,9.21,7.94,14.75,10.24s11.27,3.61,17.15,3.8,11.33-.81,16.26-3.54c5.35-2.96,9.01-7.85,11.32-13.43,2.64-6.4,3.78-13.37,5.29-20.09,1.74-7.72,3.52-15.44,5.24-23.17,1.42-6.39,2.64-12.81,4.06-19.2.5-2.26,1.13-4.49,1.82-6.7,2.1-6.76,4.81-13.34,8.14-19.59,7.81-14.66,20.17-28.96,37.61-31.13,8.36-1.04,17.07.07,24.59,3.96,7.56,3.92,13.74,10.09,18.67,16.96,4.65,6.48,8.37,13.64,11.33,21.04,2.03,5.08,3.82,10.33,4.98,15.68,1.43,6.57,2.72,13.17,4.18,19.74,1.7,7.64,3.47,15.27,5.18,22.91,2.74,12.18,4.71,26.85,16.97,33.27,10.35,5.42,23.3,3.61,33.66-.82,5.52-2.36,10.84-5.68,14.49-10.54,4.35-5.78,4.48-12.63,4.23-19.56-1.05-28.9-4.07-57.63-9.45-86.04-1.38-7.29-2.89-14.55-4.49-21.79-.42-1.88-3.31-1.09-2.89.8h0Z"/><path class="cls-12" d="m335.36,110.21c-.58-.31-1.34.08-1.66.66s-.33,1.27-.34,1.93c0,.71.06,1.54.65,1.94.8.53,1.87-.19,2.35-1.02.68-1.17.82-2.65.38-3.93"/><polygon class="cls-17" points="113.67 266.27 101.92 249.8 108.97 241.57 117.2 202.77 126.61 166.32 126.61 131.04 127.78 115.75 132.49 101.64 136.02 96.94 145.42 96.94 272.42 105.17 306.52 99.29 318.28 96.94 325.33 96.94 330.03 101.64 332.39 115.75 334.74 142.8 337.09 181.6 344.14 211 351.2 236.87 357.08 249.8 354.73 255.68 347.67 261.56 285.35 312.12 180.7 313.3 113.67 266.27"/><path class="cls-24" d="m233.02,343.29c4.7-5.88,23.48-14.7,23.48-14.7,49.39-14.11,83.49-52.91,83.49-52.91l8.23-14.11c0-1.18,4.7-19.99-11.76-23.52-16.46-3.53-25.87,9.41-42.33,16.46-16.46,7.06-18.81,7.06-42.33-7.06,0,0-8.23-5.88-21.17-5.88h-.55c-12.93,0-21.17,5.88-21.17,5.88-23.52,14.11-25.87,14.11-42.33,7.06-16.46-7.06-25.87-19.99-42.33-16.46-16.46,3.53-11.76,22.34-11.76,23.52l8.23,14.11s34.1,38.8,83.49,52.91c0,0,17.64,7.06,22.34,12.93"/><path class="cls-2" d="m175.41,131.63s-18.81,10.58-27.05-7.06l-1.18-12.93s8.23,14.11,25.87,16.46c0,0-22.34-12.93-19.99-35.28l3.53-14.11,2.35,10.58,4.7,5.88s3.53-15.29,7.06-17.64c0,0,7.06,8.23,14.11,10.58,0,0-3.53-14.11,5.88-27.05,0,0,3.53,19.99,32.92,17.64h9.41s-11.76-3.53-15.29-8.23c0,0,15.29,4.7,43.51,3.53,0,0,28.22,1.18,31.75,28.22,0,0,4.7-2.35,2.35-10.58l-12.93-17.64s25.87,4.7,22.34,29.4l-15.75,30.59-3.06-10.6-4.7,2.35-3.53-7.06-2.35,7.06-9.41-9.41s5.88,8.23-16.46,3.53c-22.34-4.7,2.35,3.53,2.35,3.53,0,0-18.81,4.7-39.98,0l-5.88-3.53s2.35,3.53,9.41,8.23c0,0-11.76,1.18-17.64-3.53,0,0-8.23-5.88-1.18,4.7l-7.06-1.18,1.18,2.35-14.11,1.18h-1.18Z"/><path class="cls-22" d="m126.02,129.28s-1.18,15.29,5.88,45.86c0,0-8.23,22.34-9.41,51.74,0,0-3.53-19.99-4.7-39.98v-8.23s-3.53-12.93,4.7-22.34l3.53-8.23s-14.11,4.7-28.22-7.06l15.29,1.18-15.29-5.88s12.93,1.18,19.99-2.35l8.23-4.7Z"/><path class="cls-3" d="m300.05,139.86s24.69-3.53,32.92,1.18l1.18-2.35,7.06,1.18-3.53,2.35,10.58,5.88v3.53l-3.53,4.7-4.7,8.23,9.41-1.18-4.7,5.88,5.88,2.35-5.88,3.53,5.88,5.88-14.11-4.7,8.23,10.58,9.41,16.46-7.06-2.35,1.18,9.41v9.41l-7.06-18.81s-4.7,23.52-8.23,30.57l1.18-23.52,1.18-17.64s-10.58,2.35-15.29-5.88l9.41-3.53s-11.76-4.7-17.64-11.76h5.88l-10.58-7.06s-2.35-3.53,12.93-2.35c0,0-15.29-2.35-12.93-12.93,0,0-5.88-2.35-7.06-7.06Z"/><path class="cls-13" d="m156.22,111.82s-12.56-9.59-17.26,3.34c-4.7,12.93,1.18,42.33,2.35,44.68-.32.22,8.63-14.06,26.81-24.24,1.95-1.1-13.62-2.01-11.52-2.8l-8.23-9.41-1.18-8.23s17.64,14.11,22.34,10.58l-13.31-13.93Z"/><path class="cls-13" d="m301.23,112.82s15.05-12.85,20.54,2.35c2.97,8.23,1.8,22.34,1.8,22.34-25.87,2.35-21.17,4.7-21.17,4.7-5.53-5.05-8.06-6.47-15.91-9.41l7.68-10.58,7.06-9.41Z"/><path class="cls-7" d="m175.28,130.76c-6.09,2.52-13.76,3.43-19.61-.2-6.56-4.06-7.36-12.44-7.88-19.41l-2.52.68c6.08,11.94,19.37,16.95,31.96,18.3,1.57.17,1.74-2.21.36-2.65-3.07-.98-5.93-2.82-8.56-4.63-3.39-2.34-6.62-5.04-9.26-8.22-4.65-5.59-6.48-13.28-6.05-20.43.34-5.62,2.2-11,5.03-15.83l-2.52-.68c-.18,6.43,2.01,12.63,6.06,17.6,1.1,1.35,3-.57,1.91-1.91-3.6-4.41-5.43-10.02-5.27-15.69.04-1.36-1.85-1.81-2.52-.68-4.96,8.47-6.83,18.5-4.33,28.08.91,3.48,2.36,6.91,4.49,9.82,2.59,3.55,5.92,6.5,9.44,9.11,3.28,2.43,6.92,4.82,10.84,6.07l.36-2.65c-11.68-1.26-24-5.91-29.63-16.96-.59-1.17-2.61-.65-2.52.68.59,7.91,1.69,16.84,8.93,21.56,6.44,4.2,15.16,3.47,21.98.65,1.58-.65.89-3.27-.72-2.6h0Z"/><path class="cls-7" d="m191.9,129.49c-7.22-4.69-13.96-10.5-19.29-17.28-2.51-3.2-4.8-6.77-6.01-10.69s-1.39-8.15-.56-12.19c.96-4.65,3.13-8.98,6.19-12.6l-2.26-.6c1.08,2.89,2.6,5.61,4.89,7.72s5.3,3.58,8.37,4.49c1.67.49,2.38-2.11.72-2.6-2.62-.78-5.15-1.92-7.18-3.79s-3.28-4.07-4.2-6.53c-.32-.86-1.54-1.44-2.26-.6-5.78,6.84-8.71,15.89-6.99,24.78s8.41,16.57,14.92,22.63c3.8,3.54,7.92,6.76,12.27,9.59,1.46.95,2.82-1.39,1.36-2.33h0Z"/><path class="cls-7" d="m177.67,86.18c-1.07,8.19,1.66,16.65,5.68,23.71,3.64,6.38,8.84,11.56,15.57,14.61,1.57.71,2.94-1.61,1.36-2.33-6.34-2.88-11.17-7.62-14.6-13.64-3.81-6.69-6.33-14.59-5.31-22.34.22-1.72-2.48-1.7-2.7,0h0Z"/><path class="cls-7" d="m211.45,120.38c-8.32-3.18-14.22-10.35-18.69-17.78-2.46-4.1-4.92-8.44-6.41-13-1.59-4.88-1.5-10.01-.31-14.96,1.37-5.66,3.96-10.93,6.85-15.96l-2.52-.68c-.11,6.61,3.03,13.07,8.27,17.1,6.1,4.7,14.06,4.96,21.44,5,7.97.03,16.02-.04,23.89,1.38,3.98.72,7.93,1.81,11.62,3.5s7.12,3.83,10.46,6.11c6.94,4.73,14.88,10.81,15.39,19.95.1,1.73,2.8,1.74,2.7,0-.44-7.72-5.52-13.85-11.38-18.42-6.25-4.88-13.16-9.41-20.74-11.9-7.51-2.47-15.51-3.07-23.37-3.24-4.02-.09-8.04-.02-12.06-.12s-7.71-.42-11.35-1.7c-7.35-2.6-12.31-9.87-12.18-17.65.02-1.34-1.85-1.83-2.52-.68-5.29,9.2-9.95,20.03-7.43,30.83,1.2,5.12,3.89,9.96,6.51,14.48,2.36,4.09,5.05,8.04,8.28,11.51,3.59,3.86,7.87,6.97,12.81,8.85,1.62.62,2.33-1.99.72-2.6h0Z"/><path class="cls-7" d="m210.54,90.49c8.51,14.3,23.31,24.55,39.59,27.85,4.65.94,9.41,1.33,14.15,1.11,1.73-.08,1.74-2.78,0-2.7-15.96.75-31.88-5.68-43.14-16.97-3.19-3.2-5.97-6.77-8.28-10.65-.89-1.49-3.22-.14-2.33,1.36h0Z"/><path class="cls-7" d="m249.5,111.49c9.95,1.75,19.11,7.18,25.25,15.23.71.93,2.64.81,2.52-.68-.22-2.52.18-5,1.29-7.28h-2.33c1.34,2.59,2.68,5.18,4.02,7.77.42.81,1.51.82,2.12.27,1.36-1.21,2.71-2.43,4.07-3.64l-2.26-.6c.81,3.23,1.47,6.48,2,9.76.12.76,1.01,1.06,1.66.94,1.09-.2,1.73-1.1,1.71-2.18-.02-1.74-2.72-1.74-2.7,0l.27-.42,1.66.94c-.53-3.28-1.19-6.54-2-9.76-.26-1.03-1.53-1.25-2.26-.6-1.36,1.21-2.71,2.43-4.07,3.64l2.12.27c-1.34-2.59-2.68-5.18-4.02-7.77-.45-.86-1.9-.9-2.33,0-1.31,2.71-1.91,5.64-1.65,8.65l2.52-.68c-6.56-8.6-16.19-14.6-26.87-16.47-1.7-.3-2.43,2.3-.72,2.6h0Z"/><path class="cls-7" d="m275.55,73.68c7.44,3.12,13.44,9.16,16.98,16.36,3.98,8.11,4.08,17.09,1.56,25.66-1.57,5.36-3.97,10.41-6.59,15.32-.43.81.09,2.16,1.17,2.03-1.18.14-.98-.87-.71-.17.06.16.17.32.25.47.19.38.37.77.57,1.14.35.62.89,1.45,1.72,1.35,1.7-.2,1.72-2.91,0-2.7,1.18-.14.98.87.71.17-.06-.16-.17-.32-.25-.47-.19-.38-.37-.77-.57-1.14-.35-.62-.89-1.45-1.72-1.35l1.17,2.03c4.89-9.17,9.26-19.31,8.69-29.93-.46-8.62-4.25-16.91-10.21-23.13-3.41-3.56-7.5-6.34-12.04-8.25-1.6-.67-2.3,1.94-.72,2.6h0Z"/><path class="cls-7" d="m237.5,78c-6.48-1.03-12.68-3.33-18.34-6.63-2.46-1.43-4.92-3.01-6.93-4.79l-1.64,2.12c7.25,3.11,14.77,5.03,22.63,5.68s15.03.17,22.55.43,15.77,1.73,22.46,6.03c6.04,3.89,10.23,10.57,12.2,17.39,2.76,9.55-.26,18.91-4.27,27.62-.72,1.57,1.61,2.94,2.33,1.36,3.72-8.09,6.85-16.85,5.4-25.88-1.17-7.25-4.82-14.38-10.11-19.48-12.02-11.6-29.59-9.4-44.84-9.86-9.36-.28-18.37-1.93-27.01-5.63-1.28-.55-2.89,1.01-1.64,2.12,2.26,2,4.87,3.7,7.48,5.21,5.85,3.4,12.29,5.84,18.99,6.9,1.7.27,2.43-2.33.72-2.6h0Z"/><path class="cls-7" d="m275.89,73.11c9.75,2.81,20.83,6.37,25.91,15.98s-.35,19.73-4.85,28.39c-2.36,4.54-4.77,9.09-7.61,13.35-.97,1.45,1.37,2.8,2.33,1.36,2.69-4.05,5-8.36,7.25-12.66s4.91-8.99,6.38-13.82c1.6-5.3,1.83-11.08-.35-16.25-2-4.74-5.67-8.56-9.9-11.41-5.55-3.73-12.07-5.7-18.43-7.54-1.67-.48-2.39,2.12-.72,2.6h0Z"/><path class="cls-7" d="m301,141.75c2.78-.52,5.53-1.17,8.31-1.67,3.08-.56,5.87-.74,8.98-.38,5.68.66,11.22,1.83,16.7,3.42,3.96,1.15,7.89,1.48,12,1.56l-.36-2.65c-8.25,2.86-16.96,3.89-25.65,3.04-1.53-.15-1.81,2.28-.36,2.65,8.38,2.14,17.17,2.15,25.56.04l-1.04-2.47c-8.05,3.8-16.49,7.54-25.6,6.17-7.36-1.1-14.06-5.12-17.73-11.7-.85-1.52-3.18-.16-2.33,1.36,3.08,5.52,8.14,9.52,14.06,11.62,6.7,2.38,13.94,2.11,20.66,0,4.24-1.33,8.29-3.23,12.3-5.12,1.42-.67.4-2.83-1.04-2.47-7.92,1.99-16.2,1.98-24.12-.04l-.36,2.65c8.9.87,17.92-.2,26.37-3.14,1.41-.49,1.22-2.62-.36-2.65-3.77-.07-7.37-.33-11.01-1.38-2.14-.62-4.28-1.23-6.45-1.72-3.27-.75-6.58-1.29-9.91-1.71-1.72-.22-3.48-.51-5.22-.44-1.44.06-2.88.27-4.3.5-3.3.53-6.54,1.32-9.82,1.93-1.71.32-.98,2.92.72,2.6h0Z"/><path class="cls-7" d="m303.62,147.95c2.01,3.22,4.12,6.5,7.2,8.8,3.39,2.54,7.8,3.09,11.9,3.48,8.06.76,17.51-.32,24.19-5.31,1.59-1.19,2.95-2.78,3.23-4.8s-.44-3.79-2.07-4.93c-1.43-1-2.78,1.34-1.36,2.33,1.64,1.14.53,3.47-.55,4.53-1.54,1.5-3.73,2.51-5.7,3.3-4.14,1.67-8.61,2.38-13.06,2.4-2.22.01-4.45-.14-6.65-.44s-4.63-.65-6.66-1.68c-3.71-1.89-6.01-5.62-8.14-9.04-.92-1.47-3.25-.12-2.33,1.36h0Z"/><path class="cls-7" d="m338.89,165.56c-10.49-1.7-21.01-3.16-31.56-4.39-1.33-.15-1.84,1.94-.68,2.52,14.2,7.05,28.72,13.46,43.5,19.2,1.16.45,2.04-1.04,1.52-1.98-1.46-2.68-3.35-5.1-5.59-7.17l-.6,2.26c2.32-.81,4.63-1.63,6.95-2.44,1.17-.41,1.39-2.29,0-2.6-2.86-.65-5.72-1.29-8.59-1.94l.6,2.26c2.62-2.3,5.24-4.6,7.86-6.9,1.11-.97-.11-2.46-1.31-2.26-3.79.65-7.6,1.13-11.44,1.43l.95,2.3c2.89-3.1,4.94-6.84,5.94-10.96.41-1.69-2.19-2.41-2.6-.72-.89,3.67-2.66,7-5.24,9.77-.74.79-.27,2.4.95,2.3,4.07-.32,8.13-.83,12.16-1.53l-1.31-2.26c-2.62,2.3-5.24,4.6-7.86,6.9-.75.66-.36,2.04.6,2.26,2.86.65,5.72,1.29,8.59,1.94v-2.6c-2.32.81-4.63,1.63-6.95,2.44-.91.32-1.39,1.52-.6,2.26,2.09,1.93,3.81,4.13,5.17,6.62l1.52-1.98c-14.56-5.66-28.86-11.98-42.86-18.93l-.68,2.52c10.31,1.2,20.6,2.63,30.84,4.29,1.7.28,2.43-2.33.72-2.6h0Z"/><path class="cls-7" d="m307.25,100.37c3.99-1.02,8.05-1.73,12.16-2.05,1.75-.14,3.59-.31,5.3.15,1.8.48,2.84,1.76,3.57,3.4,1.57,3.5,2.33,7.42,2.88,11.19.6,4.1.91,8.25,1.16,12.38.28,4.78.39,9.57.33,14.36-.02,1.74,2.68,1.74,2.7,0,.1-9.07-.26-18.25-1.55-27.24-.6-4.19-1.47-8.59-3.36-12.42s-5.25-4.79-9.11-4.66c-4.98.17-9.99,1.04-14.81,2.27-1.68.43-.97,3.03.72,2.6h0Z"/><path class="cls-7" d="m335.14,139.82c2.46-.09,4.92-.18,7.37-.27l-.68-2.52c-1.27.92-2.6,1.75-3.97,2.49-.62.34-.87,1.25-.48,1.85.41.63,1.18.84,1.85.48,1.38-.74,2.7-1.57,3.97-2.49.47-.34.82-.92.62-1.52-.18-.55-.69-1.01-1.3-.99-2.46.09-4.92.18-7.37.27-.7.03-1.38.6-1.35,1.35.03.71.59,1.38,1.35,1.35h0Z"/><path class="cls-7" d="m333.8,112.04c1.66-.66,3.32-1.32,4.98-1.98l-1.52-1.98c-.56,1.24-1.24,2.42-2.05,3.51-.04.06-.09.12-.13.18-.15.2.08-.09-.02.03s-.21.26-.31.38c-.21.25-.43.5-.65.74-.47.51-.98.99-1.5,1.45s-.51,1.44,0,1.91c.57.52,1.34.5,1.91,0,2.16-1.88,3.92-4.24,5.09-6.84.23-.51.25-1.03-.11-1.5-.3-.39-.92-.68-1.42-.48-1.66.66-3.32,1.32-4.98,1.98-.65.26-1.18.91-.94,1.66.21.63.96,1.22,1.66.94h0Z"/><path class="cls-7" d="m334.08,125.3l3.95-1.42c.34-.12.62-.3.81-.62.17-.29.24-.72.14-1.04-.21-.65-.95-1.2-1.66-.94l-3.95,1.42c-.34.12-.62.3-.81.62-.17.29-.24.72-.14,1.04.21.65.95,1.2,1.66.94h0Z"/><path class="cls-7" d="m151.66,96.81c-3.34-1.08-6.86-1.5-10.35-1.8-2.42-.21-4.87-.18-6.99,1.19-4.58,2.95-5.61,9.5-6.63,14.39-2.9,13.99-3.78,28.22-1.8,42.4,1.05,7.59,2.87,15.04,5.06,22.37.5,1.66,3.1.95,2.6-.72-3.65-12.2-6.1-24.7-6.09-37.48,0-6.79.64-13.57,1.78-20.26.6-3.53,1.26-7.09,2.19-10.55.6-2.24,1.33-4.66,2.82-6.5s3.38-2.36,5.57-2.25c3.72.18,7.55.67,11.1,1.82,1.66.54,2.37-2.07.72-2.6h0Z"/><path class="cls-7" d="m130.98,174.62c-2.65,3.43-3.76,7.67-4.58,11.85-.93,4.71-1.65,9.46-2.27,14.22-1.28,9.82-2.03,19.7-2.77,29.57l2.65-.36c-2.97-12.49-4.11-25.34-3.42-38.16.09-1.74-2.61-1.73-2.7,0-.7,13.05.5,26.16,3.52,38.87.37,1.55,2.54,1.09,2.65-.36.72-9.55,1.44-19.1,2.64-28.6.6-4.71,1.32-9.4,2.22-14.06.8-4.11,1.78-8.24,4.38-11.62,1.06-1.37-1.28-2.72-2.33-1.36h0Z"/><path class="cls-7" d="m121.8,165.4c-1.06,5.65,1.35,11.52,6.1,14.77.6.41,1.5.11,1.85-.48.39-.67.12-1.43-.48-1.85-3.68-2.52-5.69-7.33-4.86-11.72.13-.72-.2-1.46-.94-1.66-.66-.18-1.52.22-1.66.94h0Z"/><path class="cls-7" d="m124.71,150.02c-1.27,1.84-2.54,3.68-3.82,5.52s-2.6,3.54-3.59,5.47c-1.69,3.28-2.06,7.12-1.57,10.74.91,6.72,4.92,12.87,10.79,16.29,1.5.88,2.86-1.45,1.36-2.33-5.24-3.06-8.87-8.64-9.54-14.68-.38-3.44.14-6.88,1.98-9.85,2.08-3.36,4.48-6.55,6.73-9.8.99-1.43-1.35-2.78-2.33-1.36h0Z"/><path class="cls-7" d="m117.22,177.92c.27,4.6.32,9.21.11,13.82-.15,3.37-.2,6.87-.98,9.99-1.31,5.22-3.69,10.39-6.66,14.87-1.5,2.27-3.32,4.62-5.81,5.85-1.56.77-.19,3.1,1.36,2.33,2.37-1.17,4.18-3.24,5.73-5.32,1.86-2.5,3.36-5.25,4.67-8.07,1.16-2.51,2.21-5.1,2.99-7.76.88-2.99,1.05-6.09,1.25-9.18.36-5.5.37-11.02.04-16.53-.1-1.73-2.8-1.74-2.7,0h0Z"/><path class="cls-7" d="m321.68,169.26c-3.65-.93-7.34-1.59-11.08-2.03-1.17-.14-1.78,1.57-.95,2.3,11.23,10.05,24.86,17.24,39.51,20.79,1.69.41,2.41-2.19.72-2.6-14.2-3.44-27.43-10.35-38.32-20.09l-.95,2.3c3.5.41,6.95,1.07,10.36,1.94,1.68.43,2.4-2.18.72-2.6h0Z"/><path class="cls-7" d="m340.02,198.83c1.9,8.31,3.99,16.57,6.28,24.78,1.96,7,3.65,14.48,7.19,20.89,1.76,3.18,4.1,5.97,7.15,7.98l.68-2.52c-3.22-.15-6.3-1.34-8.76-3.42-1.32-1.12-3.24.78-1.91,1.91,3.03,2.57,6.7,4.03,10.67,4.21,1.41.07,1.73-1.82.68-2.52-7.09-4.68-9.25-13.94-11.49-21.59-2.94-10.07-5.57-20.22-7.9-30.45-.39-1.69-2.99-.98-2.6.72h0Z"/><path class="cls-7" d="m334.23,184.16c-1.13,15.2-.89,30.46-2.01,45.66-.12,1.58,2.2,1.75,2.65.36,1.68-5.19,3.57-10.33,5.03-15.59s2.24-10.68,2.78-16.11c.17-1.73-2.53-1.72-2.7,0-.53,5.3-1.33,10.56-2.77,15.69s-3.3,10.2-4.94,15.29l2.65.36c1.13-15.2.89-30.46,2.01-45.66.13-1.73-2.57-1.73-2.7,0h0Z"/><path class="cls-7" d="m343.09,188.6c3.7,5.62,7.39,11.24,11.09,16.86l2.12-1.64c-2.66-2.2-6.04-3.14-9.12-4.57-1.08-.5-2.23.32-1.98,1.52,1.47,7.14,3,14.53,1.09,21.73-.45,1.68,2.16,2.4,2.6.72,2.04-7.69.49-15.55-1.09-23.17l-1.98,1.52c2.82,1.31,6.15,2.13,8.58,4.15,1.1.91,3.02-.26,2.12-1.64-3.7-5.62-7.39-11.24-11.09-16.86-.95-1.45-3.29-.09-2.33,1.36h0Z"/><path class="cls-7" d="m125.43,128.33c-8.36,6.27-19.48,8.1-29.4,4.79-1.38-.46-2.12,1.31-1.31,2.26,6.95,8.17,18.49,7.37,28.07,6.06l-.72-2.6c-3.83,1.16-7.71,2.24-11.72,2.47-4.76.26-9.45-.62-14.03-1.85-1.28-.34-2.3,1.31-1.31,2.26,7.92,7.59,19.74,10.5,30.27,7.4,1.66-.49.96-3.1-.72-2.6-9.61,2.83-20.41.24-27.64-6.7l-1.31,2.26c4.8,1.29,9.76,2.22,14.75,1.95,4.26-.24,8.37-1.33,12.43-2.56,1.71-.52.95-2.83-.72-2.6-8.65,1.18-19.17,2.01-25.44-5.37l-1.31,2.26c10.53,3.51,22.6,1.6,31.48-5.06,1.37-1.03.03-3.37-1.36-2.33h0Z"/><path class="cls-7" d="m117.9,205.47c-3.83,7.88-6.06,16.09-7.5,24.7-.69,4.1-1.52,8.18-3.59,11.83-1.88,3.32-4.51,6.15-7.68,8.27-1.03.69-.75,2.6.68,2.52,3.97-.25,7.75-1.58,10.93-3.99,1.37-1.04.02-3.38-1.36-2.33-2.79,2.12-6.06,3.4-9.56,3.62l.68,2.52c3.17-2.12,5.88-4.83,7.93-8.05,2.3-3.6,3.49-7.66,4.26-11.84.8-4.4,1.46-8.8,2.68-13.12s2.87-8.66,4.87-12.77c.76-1.56-1.57-2.93-2.33-1.36h0Z"/><path class="cls-7" d="m111.32,255.51c-.66.04-1.33.03-1.99-.03-.08,0-.16-.02-.24-.03-.16-.01.19.03-.07,0-.16-.03-.32-.05-.48-.08-.34-.07-.68-.15-1.01-.25-.31-.09-.62-.21-.92-.32-.2-.07.18.08-.01,0-.07-.03-.15-.07-.22-.1-.16-.08-.33-.16-.48-.24-.28-.15-.55-.32-.81-.5-.03-.02-.28-.21-.15-.11.12.09-.08-.06-.1-.08-.14-.11-.27-.23-.4-.36l-.95,2.3c2.6-.22,5.21-.81,7.35-2.38.57-.42.91-1.19.48-1.85-.36-.56-1.24-.93-1.85-.48-.46.34-.95.64-1.46.9-.12.06-.24.11-.35.17-.15.06-.16.07-.04.02-.06.02-.12.05-.18.07-.26.1-.53.19-.8.28-.54.17-1.1.3-1.66.4-.13.02-.26.04-.39.07-.01,0-.43.06-.17.03-.31.04-.62.07-.93.1-.55.05-1.01.3-1.23.83-.2.48-.12,1.1.28,1.47,2.32,2.19,5.66,3.09,8.8,2.9.7-.04,1.38-.59,1.35-1.35-.03-.7-.6-1.4-1.35-1.35h0Z"/><path class="cls-7" d="m350.88,254.16c2.15.34,4.3.61,6.47.81l-.68-2.52c-1.11.58-2.23,1.12-3.37,1.62-.14.06-.28.12-.42.18-.08.03-.16.07-.24.1.1-.04.11-.05.02,0-.28.12-.57.23-.85.35-.59.24-1.18.46-1.78.67-.66.24-1.18.93-.94,1.66.21.65.95,1.2,1.66.94,2.5-.9,4.94-1.97,7.29-3.19.51-.26.8-.98.62-1.52-.2-.6-.68-.94-1.3-.99-1-.09-2-.19-2.99-.31-.23-.03-.45-.06-.68-.09-.45-.06.26.04-.18-.02-.14-.02-.27-.04-.41-.06-.5-.07-.99-.15-1.49-.23-.69-.11-1.49.18-1.66.94-.15.65.2,1.54.94,1.66h0Z"/><path class="cls-7" d="m108.98,261.07c3.04,5.19,6.75,9.99,10.65,14.54,5.48,6.4,11.52,12.34,17.92,17.82,7.77,6.66,16.09,12.69,24.84,17.98,10.26,6.2,21.09,11.22,32.3,15.45,5.71,2.15,11.48,4.16,16.99,6.79,5.31,2.53,10.15,5.36,13.92,10,1.1,1.35,3-.57,1.91-1.91-6.53-8.04-16.85-11.76-26.26-15.29-5.88-2.21-11.79-4.36-17.53-6.92-5.29-2.36-10.46-4.97-15.49-7.83-16.59-9.4-31.86-21.38-44.6-35.61-4.55-5.09-8.87-10.49-12.33-16.39-.88-1.5-3.21-.14-2.33,1.36h0Z"/><path class="cls-7" d="m348.86,259.71c-2.97,5.07-6.58,9.76-10.4,14.2-5.44,6.32-11.41,12.19-17.74,17.62-7.7,6.6-15.96,12.54-24.65,17.77-10.23,6.15-21,11.09-32.16,15.29-5.65,2.12-11.38,4.11-16.81,6.75-5.2,2.53-9.61,5.89-13.26,10.4-1.08,1.34.82,3.26,1.91,1.91,3.29-4.07,7.15-7.19,11.82-9.54s9.76-4.2,14.74-6.05c11.26-4.2,22.22-8.91,32.63-14.96,16.34-9.48,31.43-21.47,43.98-35.62,4.52-5.1,8.83-10.52,12.28-16.41.88-1.5-1.45-2.86-2.33-1.36h0Z"/><path class="cls-7" d="m201.69,295.4c5-.66,9.93-1.77,14.8-3.02,4.62-1.19,9.37-2.43,13.7-4.48,1.46-.7,1.84-2.79,1.08-4.1-.88-1.5-2.64-1.77-4.1-1.08-.18.08-.36.16-.53.25-.64.31.63-.23-.08.04-.42.16-.83.33-1.25.48-1.01.37-2.04.72-3.07,1.04-2.42.77-4.87,1.44-7.33,2.07s-5.04,1.24-7.57,1.77c-1.08.23-2.16.44-3.24.64-.52.1-1.05.19-1.57.27-.24.04-.48.07-.72.11-.19.03-.91.13-.09.02-1.61.21-3,1.23-3,3,0,1.46,1.38,3.21,3,3h0Z"/><path class="cls-7" d="m261.25,289.4c-.67-.09.54.09-.1-.01-.24-.04-.49-.07-.73-.11-.53-.08-1.06-.17-1.58-.26-1.14-.2-2.28-.42-3.41-.65-2.61-.53-5.22-1.13-7.81-1.77s-4.96-1.28-7.41-2.03c-1.09-.33-2.18-.68-3.25-1.06-.46-.16-.92-.34-1.37-.51-.09-.03-.69-.28-.25-.1s-.3-.14-.38-.17c-1.47-.68-3.23-.42-4.1,1.08-.76,1.29-.4,3.42,1.08,4.1,4.47,2.06,9.33,3.3,14.09,4.48,5.02,1.25,10.09,2.36,15.23,3.02,1.61.21,3-1.53,3-3,0-1.79-1.39-2.79-3-3h0Z"/><path class="cls-7" d="m233.36,285.67l11-14.11s4.89-9.41-2.44-12.93c0,0-1.22-2.35-11-2.35h-.85c-9.78,0-11,2.35-11,2.35-7.33,3.53-2.44,12.93-2.44,12.93l11,14.11"/><path class="cls-13" d="m228.21,261.54c-.06-.24-.17-.47-.27-.69-.14-.32-.37-.61-.6-.87-.07-.09-.16-.17-.24-.24-.19-.16-.4-.33-.62-.46-.48-.28-.93-.38-1.47-.45-.26-.03-.51,0-.76.04-.03-.01-.06-.03-.1-.04-.44-.1-.98-.1-1.36.18-.19.14-.39.28-.57.45-.17.17-.31.37-.45.56-.21.28-.34.61-.46.93-.12.32-.16.68-.19,1.02-.03.35.02.69.07,1.03.05.34.2.66.34.97.14.31.37.59.6.83.23.24.5.45.79.6.29.15.61.29.94.35.67.12,1.36.13,2.01-.11.31-.12.63-.24.9-.44.35-.25.6-.47.86-.81.46-.59.75-1.36.68-2.12-.02-.25-.05-.5-.11-.74Z"/><path class="cls-7" d="m317.74,184.05c3.79,5.25,9.79,8.55,16.27,8.85,1.74.08,1.73-2.62,0-2.7-5.45-.26-10.74-3.08-13.94-7.51-.43-.59-1.17-.88-1.85-.48-.58.34-.91,1.25-.48,1.85h0Z"/><path class="cls-7" d="m180.7,241.57s-19.4-.59-19.4-11.17,14.11-10.58,24.11-8.82c8.19,1.44,15.29,4.7,15.29,9.41,0,7.06-5.88,10.58-19.99,10.58Z"/><path class="cls-7" d="m280.36,241.57s19.69-.59,19.69-11.17c0-10.58-14.32-10.58-24.47-8.82-8.31,1.44-15.51,4.7-15.51,9.41,0,7.06,5.97,10.58,20.29,10.58Z"/><path class="cls-13" d="m174.69,224.7c-.05-.23-.16-.43-.32-.6-.12-.19-.29-.34-.49-.45-.14-.06-.28-.12-.42-.18-.07-.02-.14-.02-.21-.03-.21-.11-.43-.16-.68-.15-.24,0-.47.04-.68.15-.05.02-.1.05-.15.07-.13.04-.26.1-.39.17-.31.17-.61.48-.78.79-.18.32-.31.72-.29,1.1,0,.19.02.39.08.57.05.14.12.37.23.52.07.1.21.32.35.43.11.09.29.26.45.33.09.04.35.18.52.21.17.03.35.05.52.07.02,0,.05,0,.07,0,.02,0,.04,0,.06,0,.15-.02.34-.04.48-.06.01,0,.02,0,.03,0,.18-.04.36-.13.53-.22.02,0,.03-.02.05-.03.07-.05.14-.11.2-.15.06-.04.14-.1.2-.15.02-.01.03-.03.05-.04.12-.13.22-.27.32-.41.11-.16.19-.4.25-.54.02-.05.03-.1.04-.15.03-.19.08-.41.07-.61,0-.2-.04-.41-.08-.61Z"/><path class="cls-13" d="m278.17,224.7c-.05-.23-.16-.43-.32-.6-.12-.19-.29-.34-.49-.45-.14-.06-.28-.12-.42-.18-.07-.02-.14-.02-.21-.03-.21-.11-.43-.16-.68-.15-.24,0-.47.04-.68.15-.05.02-.1.05-.15.07-.13.04-.26.1-.39.17-.31.17-.61.48-.78.79-.18.32-.31.72-.29,1.1,0,.19.02.39.08.57.05.14.12.37.23.52.07.1.21.32.35.43.11.09.29.26.45.33.09.04.35.18.52.21.17.03.35.05.52.07.02,0,.05,0,.07,0,.02,0,.04,0,.06,0,.15-.02.34-.04.48-.06.01,0,.02,0,.03,0,.18-.04.36-.13.53-.22.02,0,.03-.02.05-.03.07-.05.14-.11.2-.15.06-.04.14-.1.2-.15.02-.01.03-.03.05-.04.12-.13.22-.27.32-.41.11-.16.19-.4.25-.54.02-.05.03-.1.04-.15.03-.19.08-.41.07-.61,0-.2-.04-.41-.08-.61Z"/><path class="cls-13" d="m158.94,208.06s7.06-2.35,22.3,7.34c1.2.76,2.38,1.54,3.7,2.06,3.84,1.51,11.28,3.2,16.33-3.53,0,0,5.88-10.58-9.41-15.29s-29.4,5.88-32.92,9.41Z"/><path class="cls-13" d="m300.39,209.06s-7.06-2.35-22.3,7.34c-1.2.76-2.38,1.54-3.7,2.06-3.84,1.51-11.28,3.2-16.33-3.53,0,0-5.88-10.58,9.41-15.29,15.29-4.7,29.4,5.88,32.92,9.41Z"/><path class="cls-7" d="m231.98,340.9c-.58-1.08-1.43-1.97-2.42-2.69-.31-.23-.86-.26-1.22-.16-.37.1-.77.39-.95.73-.19.37-.29.81-.16,1.22.13.4.37.67.7.92-.04-.03-.08-.06-.11-.09.36.28.67.6.96.95.24.34.45.7.63,1.07.15.4.27.8.34,1.22.01.11.02.22.03.32.04.83.7,1.63,1.59,1.59.83-.04,1.63-.7,1.59-1.59-.06-1.24-.38-2.42-.97-3.51Z"/><path class="cls-6" d="m236.99,308.67c-.74-.96-2.19-1.35-3.33-1.59-.75-.16-1.52-.25-2.3-.26-.19-.09-.41-.14-.64-.14-1.27,0-2.57.2-3.76.65-.69.26-1.35.6-1.75,1.26-.41.69-.46,1.6-.03,2.29.41.67,1.09.92,1.79,1.17.6.22,1.2.43,1.81.62,1.2.36,2.45.62,3.71.66,1.21.04,2.64-.1,3.67-.79,1.25-.85,1.81-2.6.83-3.87Z"/></g></g></svg>