<?xml version="1.0" encoding="UTF-8"?><svg id="Layer_2" xmlns="http://www.w3.org/2000/svg" xmlns:xlink="http://www.w3.org/1999/xlink" viewBox="0 0 563.75 47.83"><defs><style>.cls-1{fill:url(#linear-gradient);}.cls-1,.cls-2,.cls-3,.cls-4,.cls-5,.cls-6,.cls-7,.cls-8,.cls-9,.cls-10,.cls-11,.cls-12{stroke-width:0px;}.cls-2{fill:url(#linear-gradient-6);}.cls-3{fill:url(#linear-gradient-11);}.cls-4{fill:url(#linear-gradient-5);}.cls-5{fill:url(#linear-gradient-2);}.cls-6{fill:url(#linear-gradient-7);}.cls-7{fill:url(#linear-gradient-3);}.cls-8{fill:url(#linear-gradient-9);}.cls-9{fill:#eb2027;}.cls-10{fill:url(#linear-gradient-8);}.cls-11{fill:url(#linear-gradient-10);}.cls-12{fill:url(#linear-gradient-4);}</style><linearGradient id="linear-gradient" x1="25.36" y1="35.1" x2="25.36" y2="1" gradientUnits="userSpaceOnUse"><stop offset="0" stop-color="#63ccf5"/><stop offset="0" stop-color="#64ccf5"/><stop offset=".06" stop-color="#89d8f7"/><stop offset=".12" stop-color="#a8e2f9"/><stop offset=".18" stop-color="#c3ebfb"/><stop offset=".25" stop-color="#d9f2fc"/><stop offset=".34" stop-color="#eaf8fd"/><stop offset=".44" stop-color="#f6fcfe"/><stop offset=".59" stop-color="#fdfefe"/><stop offset="1" stop-color="#fff"/></linearGradient><linearGradient id="linear-gradient-2" x1="71.49" y1="46.83" x2="71.49" y2="12.92" xlink:href="#linear-gradient"/><linearGradient id="linear-gradient-3" x1="254.8" y1="46.83" x2="254.8" y2="12.92" xlink:href="#linear-gradient"/><linearGradient id="linear-gradient-4" x1="124.13" y1="35.11" x2="124.13" xlink:href="#linear-gradient"/><linearGradient id="linear-gradient-5" x1="166.28" y1="46.83" x2="166.28" y2="12.73" xlink:href="#linear-gradient"/><linearGradient id="linear-gradient-6" x1="209.2" y1="35.01" x2="209.2" xlink:href="#linear-gradient"/><linearGradient id="linear-gradient-7" x1="306.53" y1="35.22" x2="306.53" xlink:href="#linear-gradient"/><linearGradient id="linear-gradient-8" x1="378.38" y1="45.17" x2="378.38" y2="10.96" xlink:href="#linear-gradient"/><linearGradient id="linear-gradient-9" x1="434.62" y1="35.21" x2="434.62" xlink:href="#linear-gradient"/><linearGradient id="linear-gradient-10" x1="481.78" y1="46.83" x2="481.78" y2="12.84" xlink:href="#linear-gradient"/><linearGradient id="linear-gradient-11" x1="537" y1="35.1" x2="537" xlink:href="#linear-gradient"/></defs><g id="Layer_1-2"><path class="cls-1" d="m1.47,35.05L15,1h29.2c1.68,0,3.24.83,4.17,2.23.95,1.41,1.13,3.19.49,4.77l-7.88,19.31c-1.93,4.73-6.46,7.79-11.54,7.79l-27.98-.05Zm28.29-12.56l4.1-8.88h-11.9l-4.05,8.88h11.85Z"/><path class="cls-9" d="m44.2,2c2.88,0,4.83,2.94,3.74,5.62l-7.88,19.31c-1.77,4.34-5.96,7.17-10.61,7.17,0,0-.01,0-.02,0l-26.48-.05L15.68,2h28.52m-27.85,21.49h14.05l5.02-10.88h-14.11l-4.96,10.88M44.2,0H14.32l-.5,1.26L1.09,33.31l-1.09,2.73h2.94s26.48.05,26.48.05c5.51,0,10.4-3.3,12.49-8.41l7.88-19.31c.77-1.88.55-4.02-.58-5.71-1.12-1.67-3-2.67-5-2.67h0Zm-21.6,14.61h9.7l-3.18,6.88h-9.66l3.14-6.88h0Z"/><path class="cls-5" d="m50.82,46.83c-1.17,0-2.26-.58-2.92-1.55-.66-.98-.8-2.22-.36-3.32l10.43-26.23c.68-1.7,2.29-2.8,4.11-2.8h33.62l-12.39,30.68c-.79,1.96-2.67,3.23-4.77,3.23h-27.72Zm24.57-12.51l3.62-8.88h-11.95l-3.57,8.88h11.89Z"/><path class="cls-9" d="m94.22,13.92l-11.84,29.3c-.64,1.58-2.16,2.6-3.84,2.6h-27.72c-1.79,0-3.02-1.82-2.35-3.5l10.43-26.23c.52-1.31,1.78-2.17,3.18-2.17h32.14m-32.21,21.4h14.05l4.44-10.88h-14.11l-4.37,10.88m35.18-23.4h-35.1c-2.23,0-4.21,1.35-5.04,3.43l-10.43,26.23c-.56,1.41-.39,3,.46,4.25.84,1.24,2.24,1.99,3.74,1.99h27.72c2.51,0,4.75-1.51,5.7-3.86l11.84-29.3,1.11-2.75h0Zm-29.45,14.51h9.78l-2.81,6.88h-9.74l2.77-6.88h0Z"/><path class="cls-7" d="m234.13,46.83c-1.17,0-2.26-.58-2.92-1.55-.66-.98-.8-2.22-.36-3.32l10.43-26.23c.68-1.7,2.29-2.8,4.11-2.8h33.62l-12.4,30.68c-.79,1.96-2.67,3.23-4.77,3.23h-27.72Zm24.57-12.51l3.62-8.88h-11.95l-3.57,8.88h11.89Z"/><path class="cls-9" d="m277.53,13.92l-11.84,29.3c-.64,1.58-2.16,2.6-3.84,2.6h-27.72c-1.79,0-3.02-1.82-2.35-3.5l10.43-26.23c.52-1.31,1.78-2.17,3.18-2.17h32.14m-32.21,21.4h14.05l4.44-10.88h-14.11l-4.37,10.88m35.18-23.4h-35.1c-2.23,0-4.21,1.35-5.04,3.43l-10.43,26.23c-.56,1.41-.39,3,.46,4.25.84,1.24,2.24,1.99,3.74,1.99h27.72c2.51,0,4.75-1.51,5.7-3.86l11.84-29.3,1.11-2.75h0Zm-29.45,14.51h9.78l-2.81,6.88h-9.74l2.77-6.88h0Z"/><path class="cls-12" d="m99.01,35.05l12.29-30.92c.75-1.9,2.55-3.12,4.59-3.12h33.37l-3.93,9.64h-24.3l-5.89,14.35h11.43l1.77-3.64h-7.33l2.62-6.17c.29-.67.94-1.11,1.67-1.11l18.6.06-7.84,19.23c-.43,1.06-1.45,1.74-2.59,1.74l-34.46-.06Z"/><path class="cls-9" d="m147.77,2l-3.12,7.64h-24.3l-6.72,16.35h13.55l2.23-4.59c.23-.48-.11-1.04-.65-1.04h-6.27l2.03-4.78c.13-.3.43-.5.75-.5h0l17.11.06-7.28,17.85c-.28.68-.93,1.12-1.66,1.12h0l-32.98-.06,11.74-29.56c.6-1.51,2.05-2.49,3.66-2.49h31.89m2.98-2h-34.86c-2.44,0-4.61,1.47-5.51,3.76l-11.74,29.56-1.09,2.73h2.94s32.98.06,32.98.06c1.55,0,2.93-.93,3.52-2.37l7.28-17.85,1.12-2.74h-2.96s-17.11-.07-17.11-.07c-1.14,0-2.16.67-2.6,1.72l-2.03,4.78-1.18,2.78h7.24l-.79,1.64h-9.31l5.07-12.35h24.3l.51-1.24,3.12-7.64,1.12-2.76h0Z"/><path class="cls-4" d="m143.43,46.78l12.45-31.34c.65-1.64,2.21-2.7,3.96-2.7l29.28.1-3.93,9.64-19.75-.1-1.51,3.69h12.82l-2.65,7.45h-13.27l-1.8,3.82h19.92l-2.29,6.87c-.64,1.62-2.13,2.63-3.81,2.63l-29.42-.06Z"/><path class="cls-9" d="m159.84,13.73h.01l27.78.09-3.12,7.64-19.75-.1-2.34,5.69h12.9l-1.94,5.45h-13.19l-2.74,5.82h20.11l-1.85,5.56c-.47,1.18-1.6,1.95-2.86,1.95h0l-27.95-.05,11.91-29.97c.5-1.25,1.7-2.07,3.03-2.07m0-2c-2.17,0-4.09,1.31-4.89,3.33l-11.91,29.97-1.09,2.73h2.94s27.95.06,27.95.06c2.1,0,3.95-1.26,4.73-3.21l.02-.05.02-.05,1.85-5.56.88-2.63h-19.73l.86-1.82h13.34l.47-1.33,1.94-5.45.95-2.67h-12.75l.69-1.68,18.4.09h1.35s.51-1.24.51-1.24l3.12-7.64,1.12-2.75h-2.97s-27.78-.1-27.78-.1h-.02Z"/><path class="cls-2" d="m205.95,1h12.24l-8.53,21.48h16.32l-3.96,10.01c-.61,1.53-2.06,2.52-3.7,2.52h-25.89S205.95,1,205.95,1Z"/><path class="cls-9" d="m216.71,2l-8.53,21.48h16.32l-3.42,8.64c-.45,1.14-1.55,1.89-2.77,1.89h-24.41s12.73-32.01,12.73-32.01h10.08m2.95-2h-14.39l-.5,1.26-12.73,32.01-1.09,2.74h2.95s24.41,0,24.41,0c2.05,0,3.87-1.24,4.63-3.16l3.42-8.64,1.08-2.74h-16.32l7.45-18.74,1.09-2.74h0Z"/><path class="cls-6" d="m281.48,35.15l12.96-31.94c.54-1.34,1.83-2.21,3.27-2.21h4.38c2.15,0,4.17,1.16,5.26,3.03l6.22,10.67,5.57-13.7h12.43l-12.68,31.82c-.56,1.42-1.91,2.33-3.43,2.33h-4.6c-1.89,0-3.64-.96-4.66-2.56l-6.98-10.93-5.43,13.56-12.3-.07Z"/><path class="cls-9" d="m330.09,2l-12.13,30.45c-.41,1.03-1.4,1.7-2.5,1.7h-4.6c-1.55,0-2.98-.79-3.82-2.1l-8.03-12.57-5.9,14.73-10.15-.06,12.41-30.57c.39-.96,1.31-1.58,2.34-1.58h4.38c1.81,0,3.48.96,4.4,2.54l7.24,12.42,6.08-14.96h10.28m2.95-2h-14.57l-.51,1.25-4.55,11.19-5.19-8.91c-1.27-2.18-3.62-3.53-6.12-3.53h-4.38c-1.85,0-3.49,1.11-4.19,2.83l-12.41,30.57-1.11,2.74,2.95.02,10.15.06h1.36s.51-1.26.51-1.26l4.45-11.12,5.94,9.29c1.21,1.89,3.27,3.02,5.51,3.02h4.6c1.93,0,3.64-1.16,4.36-2.96l12.13-30.45,1.09-2.74h0Z"/><polygon class="cls-10" points="379.24 45.17 384.78 29.01 375.73 36.38 371.28 27.92 365.02 45.17 351.53 45.17 363.84 10.96 376.46 10.96 381.15 19.59 391.71 10.96 405.22 10.96 393.11 45.17 379.24 45.17"/><path class="cls-9" d="m403.8,11.96l-11.4,32.21h-11.76l6.21-18.14-10.81,8.8-4.93-9.38-6.79,18.72h-11.36l11.59-32.21h11.33l4.98,9.17,11.21-9.17h11.74m2.83-2h-15.28l-.55.45-9.34,7.64-3.83-7.05-.57-1.05h-13.92l-.48,1.32-11.59,32.21-.96,2.68h15.61l.48-1.32,5.25-14.47,2.83,5.38,1.14,2.16,1.9-1.54,5.39-4.39-3.95,11.53-.91,2.65h15.98l.47-1.33,11.4-32.21.94-2.67h0Z"/><path class="cls-8" d="m433.26,35.21l2.82-7.79h-9.9l-3.22,7.79h-13.06v-1c0-.23,0-.51,9.69-27.45.04-.16,1.63-5.76,9.78-5.76h29.98l-11.94,34.21h-14.14Zm6.61-18.02l2.12-5.93h-10l-2.12,5.93h9.99Z"/><path class="cls-9" d="m457.93,2l-11.25,32.21h-12.01l2.82-7.79h-11.99l-3.22,7.79h-11.39c0-.34,9.63-27.12,9.63-27.12,0,0,1.36-5.1,8.83-5.1h28.57m-29.48,16.2h12.12l2.83-7.93h-12.12l-2.83,7.93M460.75,0h-31.39c-8.36,0-10.45,5.55-10.73,6.46-9.73,27.06-9.73,27.29-9.73,27.75v2h14.73l.51-1.24,2.71-6.55h7.8l-1.85,5.11-.97,2.68h16.28l.47-1.34,11.25-32.21.93-2.66h0Zm-28.06,12.27h7.87l-1.4,3.93h-7.87l1.4-3.93h0Z"/><path class="cls-11" d="m486.58,46.83l-6-11.83h-4.46l-4.3,11.83h-14.03l12.51-33.99h29.92c.57,0,3.34.1,4.77,2.07.92,1.27,1.04,2.95.37,5.01-1.9,5.81-2.93,9.13-2.94,9.16-.11.28-2.04,5.04-7.65,5.81l6.06,11.93h-14.25Zm3.64-20.96l1.02-2.98h-10.74l-1.02,2.98h10.74Z"/><path class="cls-9" d="m500.24,13.84c.42,0,6.02.11,4.17,5.78-1.93,5.89-2.94,9.17-2.94,9.17,0,0-2.04,5.21-8.27,5.21l6,11.83h-12.01l-6-11.83h-5.78l-4.3,11.83h-11.89l11.78-31.99h29.22s0,0,.02,0m-22.16,13.02h12.85l1.7-4.98h-12.85l-1.7,4.98m22.16-15.02h-.06s-29.18,0-29.18,0h-1.39l-.48,1.31-11.78,31.99-.99,2.69h16.16l.48-1.32,3.82-10.51h3.15l5.45,10.73.56,1.09h16.49l-1.47-2.91-4.72-9.3c5.15-1.36,6.98-5.87,7.07-6.1l.03-.07.02-.07s1.04-3.34,2.94-9.15c.97-2.96.26-4.85-.51-5.91-1.72-2.37-4.93-2.49-5.55-2.49h0Zm-19.03,12.04h8.63l-.34.98h-8.63l.34-.98h0Z"/><path class="cls-3" d="m511.66,35.1l3.82-9.98h24l.75-2.08h-16.81c-.15,0-2.79-.13-4.17-2.2-1.02-1.54-1.04-3.66-.05-6.28l3.04-8.21c.19-.7,1.69-5.35,9-5.35h31.09l-3.54,9.93h-24.04l-.76,1.85h16.51c.23.02,3.28.35,4.64,2.48.75,1.18.84,2.62.26,4.28l-3.28,9.73s-1.88,5.83-9.21,5.83h-31.24Z"/><path class="cls-9" d="m560.91,2l-2.83,7.93h-24.01l-1.59,3.85h18.01s5.66.57,3.96,5.44l-3.28,9.74s-1.59,5.14-8.27,5.14h-29.79l3.06-7.98h24.01l1.47-4.08h-18.23s-5.89-.23-3.28-7.14l3.06-8.27s1.02-4.64,8.04-4.64h29.67m2.84-2h-32.51c-7.8,0-9.64,4.98-9.95,6.03l-3.03,8.19c-1.11,2.93-1.05,5.35.16,7.18,1.63,2.45,4.59,2.64,4.93,2.65h.04s.04,0,.04,0h15.39l-.03.08h-23.98l-.49,1.28-3.06,7.98-1.04,2.72h32.69c7.81,0,9.96-5.9,10.17-6.51l3.28-9.73c.85-2.42.27-4.13-.37-5.13-1.17-1.84-3.27-2.54-4.45-2.8h7.96l.47-1.33,2.83-7.93.95-2.67h0Z"/></g></svg>