<?xml version="1.0" encoding="UTF-8"?><svg id="Layer_2" xmlns="http://www.w3.org/2000/svg" xmlns:xlink="http://www.w3.org/1999/xlink" viewBox="0 0 239.5 258.12"><defs><style>.cls-1{fill:url(#linear-gradient);}.cls-1,.cls-2,.cls-3,.cls-4,.cls-5,.cls-6,.cls-7,.cls-8{stroke-width:0px;}.cls-2{fill:#e6e6e6;}.cls-4{fill:#fff;}.cls-5{fill:url(#linear-gradient-2);}.cls-6{fill:url(#radial-gradient-2);}.cls-7{fill:url(#linear-gradient-3);}.cls-8{fill:url(#radial-gradient);}</style><radialGradient id="radial-gradient" cx="120.58" cy="131.66" fx="120.58" fy="162.27" r="98.62" gradientUnits="userSpaceOnUse"><stop offset="0" stop-color="#fbf5cb"/><stop offset=".06" stop-color="#fbeec1"/><stop offset=".35" stop-color="#fbd497"/><stop offset=".62" stop-color="#fbc079"/><stop offset=".84" stop-color="#fbb566"/><stop offset="1" stop-color="#fcb160"/></radialGradient><radialGradient id="radial-gradient-2" cx="121.3" cy="202.73" fx="121.3" fy="177.09" r="76.5" gradientUnits="userSpaceOnUse"><stop offset="0" stop-color="#fff"/><stop offset=".48" stop-color="#fcfcfc"/><stop offset=".76" stop-color="#f4f4f4"/><stop offset=".99" stop-color="#e6e6e6"/><stop offset="1" stop-color="#e6e6e6"/></radialGradient><linearGradient id="linear-gradient" x1="117.78" y1="73.01" x2="117.78" y2="11.57" gradientUnits="userSpaceOnUse"><stop offset="0" stop-color="#534741"/><stop offset=".31" stop-color="#554943"/><stop offset=".53" stop-color="#5f534a"/><stop offset=".72" stop-color="#6e6256"/><stop offset=".9" stop-color="#847967"/><stop offset="1" stop-color="#958a74"/></linearGradient><linearGradient id="linear-gradient-2" x1="24.99" y1="149.8" x2="24.99" y2="68.43" gradientUnits="userSpaceOnUse"><stop offset="0" stop-color="#664a13"/><stop offset=".27" stop-color="#674b15"/><stop offset=".46" stop-color="#6b521f"/><stop offset=".63" stop-color="#735c2e"/><stop offset=".78" stop-color="#7e6b45"/><stop offset=".92" stop-color="#8c7d61"/><stop offset="1" stop-color="#958a74"/></linearGradient><linearGradient id="linear-gradient-3" x1="201.95" y1="153.72" x2="201.95" y2="76.19" gradientUnits="userSpaceOnUse"><stop offset="0" stop-color="#534741"/><stop offset=".57" stop-color="#544842"/><stop offset=".77" stop-color="#5b4e46"/><stop offset=".91" stop-color="#67584f"/><stop offset="1" stop-color="#736357"/></linearGradient></defs><g id="Layer_1-2"><path class="cls-4" d="m122.06,253.62c-1.56-.03-4.17-.61-5.36-3.97-.82-.27-1.54-.78-2.08-1.45-.47-.59-2.5-2.67-9.64-6.19-.26-.04-.51-.1-.76-.19-40.88-13.95-70.92-35.49-89.3-64.05-.95-.5-1.79-1.1-2.52-1.81-.39-.38-.71-.81-.93-1.29-1.52-.34-2.78-1.46-3.28-2.99-.63-1.93.11-4.04,1.81-5.16.28-.19.58-.4.91-.66.31-.38.74-.86,1.22-1.41.94-1.06,3.39-3.84,3.91-4.93l1.73-8.14c-.44.14-.89.2-1.34.2-1.06,0-2.11-.37-2.94-1.09-1.35-1.17-1.88-3.02-1.36-4.72l10.84-35.36c0-.07,0-.14,0-.21-2.43-10.55.34-15.31,3.55-20.81-7.38-.39-16.2-3.07-20.73-8.52-1.26-1.51-1.39-3.66-.32-5.31,0-.01.01-.02.02-.03-.03-.04-.07-.09-.1-.14-1.18-1.6-1.17-3.79.03-5.38.87-1.15,2.21-1.79,3.59-1.79.52,0,1.06.09,1.57.28,2.07.77,4.3,1.16,6.63,1.16,4.44,0,9.05-1.4,13.14-3.98.12-.91.24-2.01.36-3.09,1.09-9.82,2.93-26.27,14.38-26.27.49,0,1,.04,1.5.11,1.17.09,2.47.24,3.85.39.5.06,1.01.11,1.52.17.58-4.11,2.06-8.33,3.67-12.38.3-.76.79-1.4,1.41-1.89.86-1.15,2.21-1.82,3.61-1.82.44,0,.89.06,1.33.2,1.99.61,3.29,2.51,3.16,4.58,0,.08,0,.16-.01.25.97-1.87,2.17-3.63,3.68-5.22.86-.9,2.04-1.4,3.26-1.4.32,0,.64.03.95.1,1.54.33,2.79,1.44,3.3,2.92.41,1.18,1.04,2.26,1.86,3.19.85-7.23,4.19-13.88,7.02-18.79.82-1.42,2.32-2.25,3.9-2.25.4,0,.8.05,1.21.16,1.98.55,3.33,2.37,3.29,4.42-.06,3.3.81,5.83,2.67,7.72,1.41,1.44,3.43,2.58,6.03,3.42-1.6-1.52-1.87-3.99-.61-5.82.87-1.25,2.27-1.94,3.71-1.94.71,0,1.42.17,2.08.51,7.72,4.04,16.42,4.12,25.64,4.19,7.27.06,14.73.12,21.98,2.19.12-.31.27-.6.46-.88.2-.39.45-.75.76-1.08.86-.9,2.04-1.39,3.25-1.39.33,0,.67.04,1,.11,12.39,2.83,25.08,9.97,27.32,21.87,3.73-.75,7.08-1.1,10.32-1.1.86,0,1.72.03,2.56.08,1.02.06,1.98.47,2.73,1.15.41.2,1.03.53,1.66,1.07,1.09.86,1.69,1.87,2.11,2.55.07.11.13.23.21.34.59.55,1.02,1.25,1.25,2.02,2.57,8.69,3.04,17.61,3.48,26.23.02.37.04.74.06,1.11,0,0,2.49-.09,2.55-.09,1.91,0,3.63,1.21,4.25,3.04.15.43.23.88.24,1.32,1.92.33,3.42,1.87,3.69,3.83.04.29.05.58.03.87,1.98,2.5,1.96,6.11.54,8.76-.11.2-.23.4-.37.58,0,0-1.82,2.43-1.99,2.65.07.01.15.02.22.04.25-.04.5-.06.75-.06,1.7,0,3.29.97,4.05,2.54.88,1.81.45,3.98-1.05,5.32-.05.04-.09.08-.14.13,1.26.73,2.11,2.04,2.23,3.54.15,1.88-.89,3.64-2.58,4.43.02.02.03.03.05.05,1.13,1.13,1.56,2.73,1.21,4.22-.11.88-.48,1.73-1.1,2.42-.18.2-.37.38-.58.55.92,1.26,1.15,2.94.51,4.45-.12.29-.28.56-.45.81,1.79,3.11,3.84,6.58,4.8,7.87,1.38,1.86,1.12,4.46-.6,6.02-.86.78-1.94,1.16-3.02,1.16-.49,0-.98-.08-1.46-.24.29,3.08.41,6.25,0,8.97-.03.2-.07.39-.13.58-.09.56-.2,1.1-.33,1.62,1.91,8.05,4.21,15.36,9.75,19.88,1.5,1.22,2.05,3.26,1.37,5.07-.61,1.64-2.12,2.76-3.83,2.91-.41.59-.95,1.08-1.62,1.43-.27.14-.54.28-.82.41-.82.98-1.94,1.97-3.25,3.05-.09.21-.2.41-.32.6-12.29,19.43-31.67,41.7-82.16,59.62-.05.02-.11.04-.16.05-1.73.67-9.18,6.07-11.99,8.1-1.32.95-2.39,1.73-3.02,2.16-.03.02-.07.05-.1.07-.16.37-.35.72-.58,1.04-1.05,1.49-2.72,2.38-4.59,2.43-.04,0-.08,0-.12,0-.03,0-.05,0-.08,0ZM16.07,159.44h0Z"/><path class="cls-4" d="m89.09,9c-.27,14.85,14.57,17.49,27.49,17.49,2.42,0,4.77-.09,6.94-.21,0,0-1.35-.4-3.19-1.11-9.08-2.99-14.95-8.2-14.95-8.2,17.36,9.09,38.02.33,55.15,9.39l-1.26-5.35c.16.07.31.15.47.22l-.19-.7c10.59,2.42,25.5,9.31,24.07,23.12.28-.05,1.3-.22,1.55-.28l-.07-.11c4.28-1.08,8.68-1.85,13.09-1.85.76,0,1.52.02,2.28.07.46.57,1.25.67,1.78,1.19.96.7,1.25,1.98,2.14,2.74,2.97,10.02,2.96,20.56,3.63,30.91l1.28.21-.65-.43c2.05-.08,4.1-.15,6.15-.23-.61.44-1.25.86-1.9,1.25l.8.13-2.94,1.96c2.35,1.11,5.2.76,7.76.94-1.3.46-2.61.84-3.94,1.18l2.45,1.36,1.83-.04c1.45.89,1.48,2.99.73,4.4,0,0-2.94,3.92-2.94,3.92-.94,2.49-2.31,4.75-3.92,6.86l7.84-.98-.26.32c.62-.1,1.24-.19,1.86-.3-1.83,1.64-3.73,3.21-5.52,4.88l4.9,1.96-.31.18c.51.12,1.02.23,1.53.35-1.87.75-3.92,1.18-5.68,2.15,1.78,1.46,2.85,3.57,4.46,5.17l-.45-.15c.12.21.26.41.37.62-3.65-1.41-7.68-3.18-11.45-4.32v.23s5.3,6.8,5.3,6.8l5.32,3.48c-1.18-.28-2.35-.6-3.51-.94,1.65,2.89,6.49,11.53,8.38,14.09-1.52-1.38-4.78-2.49-6.89-3.14.55,4.57,1.68,11.15.98,15.69l-.03-.07c-.13.87-.3,1.74-.54,2.61l-.52-5.42-3.18-8.47c4.18,12.4,4.48,28.91,15.16,37.6-1.28-.04-2.55-.29-3.77-.71l-.99,2.48c.48.05.96.11,1.44.15-.61.32-1.23.6-1.85.89.32.67-5.32,4.88-5.7,5.31-.03.21-.05.36-.05.43l-.09.15,1.59-1.14c-10.73,16.96-28.46,39.55-79.87,57.78-2.75.86-13.57,9.03-16.21,10.84,1.08-1.35,2.14-2.48,3.18-3.45-1.99,1.36-3.68,2.73-4.65,3.94l-.19-.05c.33,1,.03,2.28-1.2,2.31-1.74-.03-1.08-2.22-1.96-3.17l-2.05-.56c-2.39-2.98-8.76-6.33-13.39-8.49l.94.66c-36.42-12.42-68.43-32.72-87.68-63.34-.93-.35-1.79-.84-2.48-1.5.44-.04.87-.09,1.3-.16l-1.87-2.62c-.82.18-1.65.3-2.48.34.62-.41,1.21-.86,1.78-1.33l-.02-.03c1.28-1.6,5.8-6.24,6.19-8.31l6.1-28.76c-1.9,5.44-5.86,13.22-10.08,15.23l11.03-35.97s0-1.51,0-1.51c-3.09-12.82,2.39-14.85,6.86-25.49-1.57.55-3.63.83-5.92.83-6.7,0-15.33-2.35-19.15-6.95.63.17,1.24.33,1.83.47-.1-.08-.19-.15-.29-.23l12.74.98c-4.92-1.9-11.09-1.85-14.52-6.5,2.66.99,5.43,1.44,8.2,1.44,6.08,0,12.16-2.19,17.11-5.73,0,0,0,.09-.01.24.03-.02.06-.04.09-.06,1.33-5.07,1.16-27.78,10.69-27.78.32,0,.66.03,1.01.08,2.87.21,7.12.87,10.17.93-.42-4.75,1.43-10.22,3.55-15.57l.1.45c.23-.44.48-.87.74-1.31-.34,5.37,2.02,10.36,5.05,14.58.87-5.38,2.2-11.79,6.37-16.18,1.63,4.7,5.48,7.93,10.27,9.39l.1.55c.21.09.42.17.63.24-2.08-8.55,1.64-17.39,6.04-25.01m0-9c-3.15,0-6.16,1.67-7.79,4.5-1.82,3.15-3.82,6.96-5.35,11.21-.63-.3-1.29-.53-1.99-.68-.63-.14-1.27-.2-1.91-.2-2.44,0-4.8.99-6.52,2.8-.05.05-.1.1-.14.15-.64-.4-1.35-.72-2.1-.96-.88-.27-1.77-.4-2.65-.4-2.61,0-5.13,1.14-6.85,3.16-1.01.91-1.83,2.06-2.36,3.38-1.17,2.96-2.29,6.02-3.08,9.11-.44-.04-.88-.08-1.3-.12-.66-.09-1.32-.13-1.97-.13h0c-4.28,0-12.03,1.85-15.96,14.23-1.7,5.35-2.39,11.53-2.89,16.04-.03.25-.06.52-.09.79-2.89,1.46-6.02,2.27-8.94,2.27-1.79,0-3.49-.3-5.06-.88-1.03-.38-2.09-.57-3.14-.57-2.77,0-5.45,1.28-7.19,3.58-1.86,2.47-2.29,5.65-1.29,8.45-.71,2.75-.09,5.73,1.79,8,4.2,5.05,10.86,7.92,17.23,9.26-1.77,4.22-2.78,9.46-1.22,17.11l-10.53,34.34c-1.05,3.41.02,7.12,2.72,9.45.57.49,1.18.9,1.83,1.23l-.57,2.7c-.73,1.03-2.32,2.83-3.05,3.67-.35.39-.66.75-.95,1.09-.1.07-.19.13-.27.19-3.4,2.23-4.88,6.46-3.62,10.32.78,2.38,2.47,4.25,4.61,5.3.23.29.49.57.76.83.74.72,1.56,1.36,2.46,1.92,9.7,14.78,22.64,27.89,38.5,38.97,14.97,10.46,32.64,19.21,52.53,25.99.24.08.48.15.72.21,6.13,3.08,7.62,4.73,7.64,4.75.61.76,1.33,1.41,2.13,1.92,2.65,4.76,7.58,5.14,8.72,5.16.05,0,.11,0,.16,0,.08,0,.16,0,.24,0,3.3-.09,6.27-1.67,8.15-4.33.13-.18.25-.37.37-.56.63-.45,1.4-1.01,2.3-1.66,2.5-1.81,9.08-6.57,11.08-7.58,51.73-18.37,71.69-41.36,84.39-61.43.03-.04.05-.08.07-.12.36-.3.71-.61,1.05-.92.57-.51,1.05-.97,1.46-1.4.03-.01.05-.03.08-.04.7-.37,1.34-.82,1.9-1.33,2.57-.83,4.69-2.79,5.68-5.42,1.35-3.62.25-7.69-2.75-10.13-4.25-3.46-6.29-9.57-7.98-16.45.04-.19.07-.39.11-.59.07-.29.13-.58.18-.87.27-1.77.35-3.64.32-5.54.98-.39,1.91-.95,2.74-1.7,3.43-3.11,3.95-8.31,1.19-12.03-.66-.89-2.01-3.13-3.39-5.5.37-1.42.39-2.87.08-4.25.48-.9.8-1.87.95-2.86.29-1.37.24-2.79-.11-4.14,1.1-1.64,1.66-3.64,1.5-5.72-.1-1.31-.49-2.55-1.1-3.65.79-2.22.7-4.72-.38-6.94-.54-1.11-1.29-2.07-2.17-2.85,1.55-3.76,1.24-7.89-.64-11.13,0-.01,0-.02,0-.03-.38-2.8-2.03-5.18-4.34-6.54-1.17-2.8-3.66-4.8-6.58-5.37-.44-7.92-1.09-16.06-3.5-24.2-.39-1.32-1.07-2.52-1.99-3.53-.52-.85-1.42-2.28-3.01-3.57-.76-.65-1.49-1.09-2.04-1.39-1.41-1.09-3.13-1.75-4.94-1.86-.93-.06-1.89-.09-2.84-.09-2.27,0-4.63.17-7.11.5-3.85-9.98-14.3-17.68-29.52-21.16-.67-.15-1.34-.23-2.01-.23-2.4,0-4.74.96-6.45,2.73-6.84-1.46-13.67-1.52-19.96-1.57-8.65-.07-16.82-.14-23.59-3.68-1.33-.7-2.76-1.03-4.17-1.03-2.71,0-5.36,1.22-7.1,3.47-.14-.6-.22-1.34-.2-2.26.08-4.1-2.63-7.74-6.59-8.84-.8-.22-1.61-.33-2.41-.33h0Z"/><polygon class="cls-8" points="24.01 182.64 14.21 168.92 20.09 162.05 26.95 129.7 34.8 99.31 34.8 69.9 35.78 57.15 39.7 45.39 42.64 41.47 50.48 41.47 156.36 48.33 184.79 43.43 194.6 41.47 200.48 41.47 204.4 45.39 206.36 57.15 208.32 79.7 210.28 112.05 216.17 136.56 222.05 158.13 226.95 168.92 224.99 173.82 219.11 178.72 167.15 220.88 79.89 221.86 24.01 182.64"/><path class="cls-6" d="m123.52,246.86c3.92-4.9,19.58-12.25,19.58-12.25,41.18-11.76,69.61-44.12,69.61-44.12l6.86-11.76c0-.98,3.92-16.67-9.8-19.61-13.73-2.94-21.57,7.84-35.29,13.73-13.73,5.88-15.69,5.88-35.29-5.88,0,0-6.86-4.9-17.65-4.9h-.46c-10.78,0-17.65,4.9-17.65,4.9-19.61,11.76-21.57,11.76-35.29,5.88s-21.57-16.67-35.29-13.73c-13.73,2.94-9.8,18.63-9.8,19.61l6.86,11.76s28.43,32.35,69.61,44.12c0,0,14.71,5.88,18.63,10.78"/><path class="cls-1" d="m75.48,70.39s-15.69,8.82-22.55-5.88l-.98-10.78s6.86,11.76,21.57,13.73c0,0-18.63-10.78-16.67-29.41l2.94-11.76,1.96,8.82,3.92,4.9s2.94-12.74,5.88-14.71c0,0,5.88,6.86,11.76,8.82,0,0-2.94-11.76,4.9-22.55,0,0,2.94,16.67,27.45,14.71h7.84s-9.8-2.94-12.74-6.86c0,0,12.74,3.92,36.27,2.94,0,0,23.53.98,26.47,23.53,0,0,3.92-1.96,1.96-8.82l-10.78-14.71s21.57,3.92,18.63,24.51l-13.73,23.53-1.96-6.86-3.92,1.96-2.94-5.88-1.96,5.88-7.84-7.84s4.9,6.86-13.73,2.94c-18.63-3.92,1.96,2.94,1.96,2.94,0,0-15.69,3.92-33.33,0l-4.9-2.94s1.96,2.94,7.84,6.86c0,0-9.8.98-14.71-2.94,0,0-6.86-4.9-.98,3.92l-5.88-.98.98,1.96-11.76.98h-.98Z"/><path class="cls-5" d="m34.31,68.43s-.98,12.74,4.9,38.23c0,0-6.86,18.63-7.84,43.14,0,0-2.94-16.67-3.92-33.33v-6.86s-2.94-10.78,3.92-18.63l2.94-6.86s-11.76,3.92-23.53-5.88l12.74.98-12.74-4.9s10.78.98,16.67-1.96l6.86-3.92Z"/><path class="cls-7" d="m179.4,77.25s20.59-2.94,27.45.98l.98-1.96,5.88.98-2.94,1.96,8.82,4.9v2.94l-2.94,3.92-3.92,6.86,7.84-.98-3.92,4.9,4.9,1.96-4.9,2.94,4.9,4.9-11.76-3.92,6.86,8.82,7.84,13.73-5.88-1.96.98,7.84v7.84l-5.88-15.69s-3.92,19.61-6.86,25.49l.98-19.61.98-14.71s-8.82,1.96-12.74-4.9l7.84-2.94s-9.8-3.92-14.71-9.8h4.9l-8.82-5.88s-1.96-2.94,10.78-1.96c0,0-12.74-1.96-10.78-10.78,0,0-4.9-1.96-5.88-5.88Z"/><path class="cls-4" d="m59.48,53.88s-10.47-8-14.39,2.79c-3.92,10.78.98,35.29,1.96,37.25-.27.19,7.2-11.72,22.35-20.21,1.63-.91-11.36-1.68-9.61-2.34l-6.86-7.84-.98-6.86s14.71,11.76,18.63,8.82l-11.1-11.61Z"/><path class="cls-4" d="m180.38,54.7s12.55-10.72,17.13,1.96c2.48,6.86,1.5,18.63,1.5,18.63-21.57,1.96-17.65,3.92-17.65,3.92-4.61-4.21-6.72-5.39-13.26-7.84l6.4-8.82,5.88-7.84Z"/><path class="cls-3" d="m75.32,69.45c-5,2.06-11.29,2.85-16.12-.1-5.44-3.32-6.09-10.28-6.52-16.03l-2.52.68c5.13,10.03,16.25,14.22,26.84,15.37,1.57.17,1.74-2.21.36-2.65-2.52-.81-4.86-2.31-7.03-3.8-2.85-1.96-5.55-4.23-7.76-6.9-3.81-4.59-5.29-10.91-4.95-16.77.27-4.67,1.82-9.13,4.17-13.15l-2.52-.68c-.14,5.43,1.71,10.63,5.12,14.84,1.1,1.35,3-.57,1.91-1.91-2.96-3.64-4.45-8.25-4.33-12.93.04-1.35-1.85-1.82-2.52-.68-4.17,7.13-5.74,15.56-3.63,23.61.75,2.85,1.94,5.68,3.66,8.08,2.18,3.03,5,5.54,7.98,7.75,2.78,2.07,5.85,4.07,9.17,5.14l.36-2.65c-9.67-1.05-19.84-4.89-24.51-14.03-.6-1.17-2.62-.65-2.52.68.5,6.69,1.45,14.2,7.57,18.18,5.42,3.52,12.74,2.93,18.49.56,1.58-.65.89-3.27-.72-2.6h0Z"/><path class="cls-3" d="m89.35,68.41c-5.97-3.88-11.53-8.67-15.95-14.26s-6.95-11.89-5.51-18.93c.79-3.86,2.58-7.44,5.11-10.44l-2.26-.6c.91,2.45,2.2,4.75,4.13,6.54s4.48,3.03,7.08,3.8c1.67.5,2.38-2.11.72-2.6-4.45-1.32-7.69-4.06-9.33-8.45-.32-.86-1.54-1.44-2.26-.6-4.87,5.77-7.32,13.35-5.89,20.86s7.05,13.92,12.51,19c3.18,2.96,6.63,5.65,10.27,8.02,1.46.95,2.82-1.39,1.36-2.33h0Z"/><path class="cls-3" d="m77.14,32.5c-.89,6.9,1.41,14.02,4.81,19.96,3.05,5.32,7.4,9.63,13.02,12.19,1.57.71,2.94-1.61,1.36-2.33-5.23-2.38-9.2-6.26-12.05-11.22-3.19-5.57-5.28-12.13-4.44-18.59.22-1.72-2.48-1.7-2.7,0h0Z"/><path class="cls-3" d="m105.59,60.79c-6.88-2.64-11.75-8.58-15.45-14.72-2.02-3.36-4.03-6.92-5.28-10.64-1.35-4.05-1.3-8.3-.32-12.42,1.13-4.73,3.29-9.12,5.7-13.32l-2.52-.68c-.09,5.55,2.53,10.97,6.91,14.38,5.03,3.91,11.57,4.24,17.68,4.27,6.66.04,13.4-.06,19.98,1.09,3.23.57,6.45,1.42,9.46,2.74,3.2,1.4,6.17,3.26,9.06,5.21,5.77,3.91,12.4,8.93,12.84,16.52.1,1.73,2.8,1.74,2.7,0-.38-6.51-4.61-11.65-9.55-15.52-5.16-4.04-10.88-7.79-17.13-9.89s-12.94-2.63-19.5-2.79-13.49.67-19.69-1.49c-6.08-2.12-10.15-8.11-10.06-14.52.02-1.34-1.85-1.83-2.52-.68-4.43,7.72-8.32,16.78-6.22,25.84.99,4.28,3.24,8.32,5.42,12.11,1.98,3.43,4.23,6.74,6.93,9.65,3.03,3.27,6.65,5.88,10.82,7.49,1.62.62,2.33-1.99.72-2.6h0Z"/><path class="cls-3" d="m104.58,36.2c7.16,12,19.57,20.6,33.25,23.35,3.87.78,7.81,1.09,11.75.91,1.73-.08,1.74-2.78,0-2.7-13.23.61-26.41-4.69-35.76-14.03-2.67-2.67-4.99-5.65-6.92-8.89-.89-1.49-3.22-.13-2.33,1.36h0Z"/><path class="cls-3" d="m137.2,53.81c8.24,1.45,15.83,5.93,20.92,12.6.71.93,2.64.81,2.52-.68-.17-2.07.14-4.07,1.04-5.96h-2.33c1.12,2.16,2.24,4.32,3.35,6.48.42.81,1.51.82,2.12.27,1.13-1.01,2.26-2.02,3.4-3.04l-2.26-.6c.67,2.69,1.23,5.4,1.67,8.14.12.76,1.01,1.06,1.66.94,1-.19,1.6-1.04,1.59-2.03-.02-1.74-2.72-1.74-2.7,0l.39-.57,1.66.94c-.44-2.74-1-5.45-1.67-8.14-.26-1.03-1.53-1.25-2.26-.6-1.13,1.01-2.26,2.02-3.4,3.04l2.12.27c-1.12-2.16-2.24-4.32-3.35-6.48-.45-.86-1.9-.9-2.33,0-1.11,2.31-1.62,4.77-1.41,7.32l2.52-.68c-5.52-7.22-13.56-12.25-22.54-13.84-1.7-.3-2.43,2.3-.72,2.6h0Z"/><path class="cls-3" d="m158.92,22.29c6.13,2.58,11.08,7.56,14,13.5,3.29,6.68,3.38,14.08,1.33,21.16-1.3,4.49-3.31,8.71-5.5,12.82-.63,1.17.65,2.54,1.85,1.85.29-.17.59-.34.88-.51,1.51-.87.15-3.2-1.36-2.33-.29.17-.59.34-.88.51l1.85,1.85c4.09-7.67,7.74-16.15,7.28-25.04-.38-7.28-3.58-14.27-8.61-19.51-2.87-2.98-6.3-5.29-10.1-6.9-1.6-.67-2.3,1.94-.72,2.6h0Z"/><path class="cls-3" d="m127.31,25.46c-7.44-1.19-15.4-4.52-20.97-9.46l-1.64,2.12c6.02,2.58,12.24,4.19,18.78,4.75,6.16.53,12.33.19,18.5.36,6.59.19,13.25,1.32,18.91,4.88,5.06,3.18,8.57,8.7,10.24,14.35,2.34,7.95-.16,15.73-3.49,23-.72,1.57,1.61,2.94,2.33,1.36,3.13-6.83,5.76-14.2,4.52-21.81-.99-6.05-4.05-12-8.46-16.27-10.01-9.67-24.58-7.94-37.29-8.29-7.85-.21-15.41-1.57-22.66-4.67-1.28-.55-2.89,1.01-1.64,2.12,6.05,5.35,14.26,8.89,22.16,10.15,1.7.27,2.43-2.33.72-2.6h0Z"/><path class="cls-3" d="m159.2,21.81c7.23,2.09,15.03,4.51,19.85,10.7,5.12,6.58,3.46,14.94-.33,21.72-2.26,4.05-5.12,7.73-7.71,11.57-.97,1.45,1.36,2.8,2.33,1.36,4.86-7.22,10.74-14.23,11.62-23.23.81-8.32-4.14-15.27-11.09-19.34-4.33-2.53-9.17-4-13.95-5.39-1.67-.48-2.39,2.12-.72,2.6h0Z"/><path class="cls-3" d="m180.25,79.04c3.06-.57,6.08-1.35,9.17-1.76,3.57-.47,7.21.24,10.72.88,2.64.48,5.24,1.13,7.82,1.87,3.51,1.02,6.92,1.39,10.57,1.46l-.36-2.65c-6.87,2.38-14.1,3.23-21.33,2.53-1.53-.15-1.81,2.28-.36,2.65,7.04,1.79,14.39,1.8,21.43.03l-1.04-2.47c-6.63,3.13-13.6,6.23-21.11,5.13-6.11-.89-11.66-4.21-14.71-9.66-.85-1.52-3.18-.16-2.33,1.36,3.37,6.02,9.55,9.88,16.32,10.9,8.32,1.25,15.83-1.92,23.19-5.4,1.42-.67.4-2.83-1.04-2.47-6.58,1.65-13.42,1.63-19.99-.03l-.36,2.65c7.44.72,14.98-.18,22.05-2.62,1.41-.49,1.22-2.62-.36-2.65-2.5-.05-5.02-.08-7.46-.68-1.01-.25-2-.57-2.99-.85-2.73-.78-5.49-1.42-8.29-1.89-3.54-.6-7.11-1.22-10.69-.75-3.22.43-6.38,1.21-9.57,1.81-1.71.32-.98,2.92.72,2.6h0Z"/><path class="cls-3" d="m182.19,84.11c1.71,2.74,3.51,5.51,6.13,7.46,2.91,2.16,6.74,2.61,10.25,2.92,6.71.59,14.54-.37,20.08-4.54,2.71-2.04,4.14-6.14.9-8.45-1.41-1.01-2.76,1.33-1.36,2.33s.13,2.87-.74,3.65c-1.29,1.15-3.04,1.94-4.63,2.56-3.39,1.33-7.04,1.9-10.67,1.91-1.84,0-3.69-.12-5.52-.37s-3.84-.55-5.52-1.43c-3-1.57-4.86-4.62-6.59-7.4-.92-1.47-3.25-.12-2.33,1.36h0Z"/><path class="cls-3" d="m211.84,98.46c-8.76-1.42-17.56-2.64-26.37-3.67-1.33-.15-1.84,1.94-.68,2.52,11.86,5.89,23.98,11.23,36.33,16.03,1.16.45,2.04-1.04,1.52-1.98-1.23-2.25-2.81-4.28-4.7-6.02l-.6,2.26c1.93-.68,3.86-1.36,5.8-2.04,1.17-.41,1.39-2.29,0-2.6-2.39-.54-4.77-1.08-7.16-1.62l.6,2.26c2.18-1.92,4.37-3.84,6.55-5.76,1.11-.97-.11-2.46-1.31-2.26-3.14.54-6.3.93-9.48,1.19l.95,2.3c2.44-2.62,4.16-5.76,5.01-9.24.41-1.69-2.19-2.41-2.6-.72-.74,3.03-2.19,5.76-4.31,8.04-.74.79-.27,2.4.95,2.3,3.42-.27,6.82-.7,10.2-1.28l-1.31-2.26c-2.18,1.92-4.37,3.84-6.55,5.76-.75.66-.36,2.04.6,2.26,2.39.54,4.77,1.08,7.16,1.62v-2.6c-1.93.68-3.86,1.36-5.8,2.04-.91.32-1.39,1.52-.6,2.26,1.73,1.6,3.15,3.41,4.28,5.48l1.52-1.98c-12.13-4.71-24.03-9.97-35.68-15.76l-.68,2.52c8.58,1,17.13,2.19,25.66,3.57,1.7.28,2.43-2.33.72-2.6h0Z"/><path class="cls-3" d="m185.47,44.54c4.01-1.02,8.28-1.86,12.44-1.82,2.02.02,3.62.58,4.59,2.44.92,1.75,1.43,3.79,1.88,5.71.96,4.16,1.32,8.45,1.61,12.7.31,4.54.44,9.09.39,13.64-.02,1.74,2.68,1.74,2.7,0,.06-5.13-.11-10.26-.51-15.37-.37-4.66-.83-9.39-2.16-13.89-.58-1.96-1.25-4.15-2.64-5.7-1.31-1.46-3.16-2.04-5.07-2.18-2.19-.16-4.45.17-6.61.46-2.47.33-4.92.81-7.33,1.42-1.68.43-.97,3.03.72,2.6h0Z"/><path class="cls-3" d="m208.66,77.44l6.15-.23-.68-2.52c-1.06.76-2.17,1.46-3.31,2.08-.62.34-.87,1.25-.48,1.85.41.63,1.18.84,1.85.48,1.15-.62,2.25-1.31,3.31-2.08.47-.34.82-.92.62-1.52-.18-.55-.69-1.01-1.3-.99l-6.15.23c-.7.03-1.38.6-1.35,1.35.03.71.59,1.38,1.35,1.35h0Z"/><path class="cls-3" d="m207.6,54.27c1.39-.55,2.77-1.1,4.16-1.65l-1.52-1.98c-.46,1.03-1.04,2.01-1.71,2.92-.04.05-.07.1-.11.15-.15.2.12-.15.01-.02-.09.11-.17.21-.26.32-.18.21-.36.42-.54.62-.39.43-.81.83-1.25,1.21-.53.46-.51,1.44,0,1.91.57.52,1.34.5,1.91,0,1.81-1.57,3.3-3.56,4.28-5.75.23-.51.25-1.03-.11-1.5-.3-.39-.92-.68-1.42-.48-1.39.55-2.77,1.1-4.16,1.65-.34.13-.62.29-.81.62-.17.29-.24.72-.14,1.04.21.63.96,1.22,1.66.94h0Z"/><path class="cls-3" d="m207.84,65.33l3.29-1.18c.34-.12.62-.3.81-.62.17-.29.24-.72.14-1.04s-.31-.64-.62-.81-.7-.26-1.04-.14l-3.29,1.18c-.34.12-.62.3-.81.62-.17.29-.24.72-.14,1.04s.31.64.62.81.7.26,1.04.14h0Z"/><path class="cls-3" d="m55.74,41.15c-2.87-.92-5.88-1.27-8.87-1.52-2.01-.17-4.02-.07-5.77,1.05-3.85,2.46-4.74,7.94-5.6,12.04-2.43,11.72-3.17,23.64-1.52,35.52.88,6.33,2.39,12.55,4.23,18.67.5,1.66,3.1.95,2.6-.72-3-10.04-5.03-20.31-5.07-30.82-.02-5.63.48-11.26,1.41-16.81.49-2.93,1.04-5.86,1.77-8.73.49-1.92,1.07-3.97,2.28-5.59,1.13-1.51,2.73-2.07,4.58-1.99,3.1.13,6.29.56,9.25,1.51,1.66.53,2.37-2.07.72-2.6h0Z"/><path class="cls-3" d="m38.25,106.12c-2.15,2.8-3.1,6.25-3.79,9.67-.8,3.99-1.41,8.01-1.94,12.05-1.08,8.23-1.7,16.51-2.33,24.79l2.65-.36c-2.47-10.4-3.41-21.08-2.85-31.75.09-1.74-2.61-1.73-2.7,0-.58,10.9.42,21.85,2.94,32.47.37,1.55,2.54,1.09,2.65-.36.6-7.95,1.2-15.91,2.2-23.82.5-3.91,1.1-7.81,1.85-11.69.66-3.42,1.48-6.82,3.63-9.63,1.06-1.38-1.29-2.72-2.33-1.36h0Z"/><path class="cls-3" d="m30.57,98.48c-.91,4.81,1.14,9.8,5.19,12.57.6.41,1.5.11,1.85-.48.39-.67.12-1.43-.48-1.85-1.44-.99-2.65-2.53-3.31-4.12-.73-1.74-.96-3.65-.63-5.4.13-.72-.2-1.46-.94-1.66-.66-.18-1.52.22-1.66.94h0Z"/><path class="cls-3" d="m33.02,85.61c-2.05,2.97-4.46,5.89-6.14,9.09-1.48,2.82-1.8,6.12-1.37,9.25.78,5.65,4.17,10.79,9.09,13.68,1.5.88,2.86-1.45,1.36-2.33-4.3-2.52-7.29-7.1-7.85-12.07-.32-2.82.11-5.64,1.62-8.08,1.73-2.8,3.73-5.46,5.61-8.17.99-1.43-1.35-2.78-2.33-1.36h0Z"/><path class="cls-3" d="m26.75,108.98c.28,4.87.26,9.75-.09,14.61-.22,2.98-.55,5.35-1.57,8.21s-2.32,5.64-3.9,8.23c-1.37,2.25-3.03,4.68-5.45,5.88-1.56.77-.19,3.1,1.36,2.33,2.64-1.31,4.55-3.89,6.09-6.31,1.76-2.78,3.17-5.81,4.31-8.89,1.05-2.82,1.53-5.48,1.78-8.48.43-5.18.47-10.39.17-15.58-.1-1.73-2.8-1.74-2.7,0h0Z"/><path class="cls-3" d="m197.49,101.54c-3.06-.78-6.16-1.33-9.3-1.7-1.16-.14-1.78,1.57-.95,2.3,9.4,8.4,20.78,14.41,33.04,17.39,1.69.41,2.41-2.19.72-2.6-11.8-2.87-22.79-8.6-31.85-16.69l-.95,2.3c2.89.34,5.76.89,8.58,1.61,1.69.43,2.4-2.18.72-2.6h0Z"/><path class="cls-3" d="m212.51,126.47c2.04,8.95,4.36,17.84,6.96,26.65,1.99,6.74,4.17,14.12,10.34,18.22l.68-2.52c-2.63-.13-5.13-1.09-7.15-2.79-1.32-1.11-3.24.79-1.91,1.91,2.59,2.18,5.67,3.41,9.05,3.58,1.42.07,1.73-1.82.68-2.52-5.89-3.91-7.66-11.65-9.52-18.02-2.43-8.34-4.61-16.76-6.54-25.23-.39-1.69-2.99-.98-2.6.72h0Z"/><path class="cls-3" d="m207.67,114.18c-.94,12.67-.74,25.39-1.68,38.07-.12,1.58,2.2,1.75,2.65.36,1.4-4.34,2.99-8.63,4.2-13.02s1.86-8.93,2.32-13.47c.17-1.73-2.53-1.72-2.7,0-.45,4.41-1.11,8.78-2.31,13.05s-2.74,8.49-4.12,12.73l2.65.36c.94-12.67.74-25.39,1.68-38.07.13-1.73-2.57-1.73-2.7,0h0Z"/><path class="cls-3" d="m215.09,118c3.08,4.69,6.16,9.37,9.25,14.06l2.12-1.64c-2.24-1.84-5.06-2.64-7.65-3.84-1.08-.5-2.23.32-1.98,1.52,1.22,5.92,2.48,12.02.91,18-.44,1.68,2.16,2.4,2.6.72,1.7-6.46.42-13.03-.91-19.43l-1.98,1.52c2.33,1.08,5.09,1.77,7.11,3.42,1.1.9,3.03-.26,2.12-1.64-3.08-4.69-6.16-9.37-9.25-14.06-.95-1.45-3.29-.09-2.33,1.36h0Z"/><path class="cls-3" d="m33.7,67.44c-6.94,5.19-16.11,6.71-24.34,3.97-1.38-.46-2.12,1.31-1.31,2.26,5.87,6.87,15.54,6.22,23.62,5.11l-.72-2.6c-3.17.96-6.39,1.86-9.71,2.05-3.95.22-7.83-.51-11.64-1.54-1.28-.34-2.3,1.31-1.31,2.26,6.68,6.38,16.59,8.83,25.46,6.23,1.66-.49.96-3.09-.72-2.6-7.95,2.33-16.84.2-22.83-5.53l-1.31,2.26c4.02,1.08,8.18,1.86,12.36,1.63,3.57-.2,7.02-1.11,10.43-2.14,1.71-.52.95-2.83-.72-2.6-7.15.98-15.8,1.66-20.99-4.42l-1.31,2.26c8.84,2.94,18.95,1.34,26.42-4.24,1.38-1.03.03-3.37-1.36-2.33h0Z"/><path class="cls-3" d="m27.34,131.84c-3.21,6.61-5.07,13.49-6.29,20.71-.57,3.36-1.25,6.72-2.94,9.72-1.55,2.75-3.72,5.08-6.34,6.84-1.03.69-.75,2.61.68,2.52,3.35-.22,6.53-1.33,9.22-3.36,1.37-1.03.03-3.38-1.36-2.33-2.31,1.74-4.97,2.8-7.86,2.99l.68,2.52c5.75-3.85,8.93-9.63,10.2-16.33.69-3.67,1.21-7.35,2.21-10.96s2.43-7.43,4.13-10.95c.75-1.56-1.57-2.93-2.33-1.36h0Z"/><path class="cls-3" d="m22.05,173.45c-.55.03-1.11.03-1.66-.03-.07,0-.14-.02-.2-.02-.17-.02.27.04,0,0-.13-.02-.27-.04-.4-.07-.28-.06-.57-.12-.84-.21-.26-.08-.51-.17-.77-.26-.18-.06.22.1.04.02-.06-.03-.12-.05-.18-.08-.14-.06-.27-.13-.4-.2-.23-.13-.46-.27-.68-.42-.03-.02-.26-.19-.1-.07.15.11-.03-.03-.06-.05-.11-.09-.22-.19-.33-.3l-.95,2.3c2.21-.19,4.43-.68,6.24-2.02.57-.42.91-1.19.48-1.85-.36-.56-1.24-.93-1.85-.48-.39.28-.79.54-1.22.75-.1.05-.2.09-.29.14-.14.06-.13.06.02,0-.05.02-.1.04-.15.06-.22.09-.44.16-.67.23-.45.14-.92.25-1.38.33-.11.02-.22.04-.33.05-.05,0-.42.08-.08.01-.25.05-.52.06-.78.08-.55.05-1.01.3-1.23.83-.2.48-.12,1.1.28,1.47,1.98,1.87,4.82,2.64,7.5,2.48.7-.04,1.38-.59,1.35-1.35-.03-.7-.6-1.4-1.35-1.35h0Z"/><path class="cls-3" d="m221.72,172.76c1.81.29,3.63.52,5.45.68l-.68-2.52c-.92.48-1.86.93-2.81,1.35-.12.05-.23.1-.35.15-.07.03-.13.06-.2.09.14-.06.16-.07.07-.03-.24.1-.47.2-.71.29-.49.2-.99.38-1.48.56-.66.24-1.18.93-.94,1.66.21.65.95,1.2,1.66.94,2.1-.76,4.15-1.65,6.13-2.68.51-.26.8-.98.62-1.52-.2-.6-.68-.94-1.3-.99-.83-.07-1.67-.16-2.5-.26-.19-.02-.38-.05-.57-.07-.38-.05.29.04-.09-.01-.11-.02-.23-.03-.34-.05-.41-.06-.83-.12-1.24-.19-.37-.06-.7-.06-1.04.14-.28.16-.55.48-.62.81-.15.65.2,1.54.94,1.66h0Z"/><path class="cls-3" d="m105.88,205.4c4.52,2.45,9.97,2.99,15.03,3.1,5.74.12,11.2-.81,16.69-2.42,1.66-.49.96-3.09-.72-2.6-5.15,1.51-10.23,2.4-15.61,2.33-4.68-.07-9.84-.47-14.03-2.73-1.53-.83-2.89,1.5-1.36,2.33h0Z"/><path class="cls-3" d="m19.91,178.42c6.05,10.34,14.82,19.29,23.86,27.04,14.12,12.11,30.22,21.31,47.6,27.87,4.82,1.82,9.7,3.51,14.35,5.73,4.38,2.09,8.35,4.44,11.47,8.26,1.1,1.35,3-.57,1.91-1.91-5.39-6.62-13.83-9.73-21.59-12.65-9.51-3.58-18.84-7.32-27.71-12.33-13.86-7.83-26.6-17.81-37.24-29.67-3.81-4.25-7.42-8.76-10.31-13.7-.88-1.5-3.21-.14-2.33,1.36h0Z"/><path class="cls-3" d="m219.9,177.06c-5.94,10.14-14.57,18.89-23.43,26.49-14,12.01-30.03,21.03-47.26,27.5-4.71,1.77-9.49,3.43-14.02,5.63s-8.07,4.94-11.15,8.73c-1.08,1.34.81,3.26,1.91,1.91,2.79-3.44,6.05-6.04,10-8.01s8.14-3.47,12.29-5.02c9.36-3.5,18.47-7.43,27.12-12.46,13.6-7.91,26.17-17.9,36.62-29.69,3.78-4.26,7.38-8.79,10.26-13.72.88-1.5-1.45-2.86-2.33-1.36h0Z"/><path class="cls-3" d="m97.4,207.43c4.21-.56,8.36-1.48,12.47-2.54s7.89-2.05,11.54-3.79c1.46-.7,1.84-2.79,1.08-4.1-.88-1.5-2.64-1.77-4.1-1.08-.16.08-.32.15-.48.22-.49.24.45-.16.08-.03s-.75.3-1.13.43c-.8.29-1.6.56-2.41.82-2.04.65-4.1,1.22-6.17,1.75s-4.15,1.02-6.23,1.46c-.93.2-1.86.38-2.79.55-.4.07-.79.14-1.19.21-.27.04-1.6.23-.67.11-1.61.21-3,1.23-3,3,0,1.46,1.38,3.21,3,3h0Z"/><path class="cls-3" d="m147.05,201.43c-.71-.09.71.12-.03,0-.19-.03-.38-.06-.56-.09-.45-.07-.89-.14-1.34-.22-.91-.16-1.82-.34-2.73-.52-2.2-.45-4.39-.95-6.57-1.49s-4.16-1.08-6.22-1.7c-.88-.27-1.75-.55-2.62-.86-.36-.13-.71-.26-1.07-.4-.15-.06-.81-.37-.03,0-.16-.08-.33-.15-.5-.22-1.47-.68-3.23-.42-4.1,1.08-.76,1.29-.4,3.42,1.08,4.1,3.77,1.74,7.86,2.79,11.87,3.79,4.23,1.05,8.5,1.98,12.83,2.54,1.61.21,3-1.53,3-3,0-1.79-1.39-2.79-3-3h0Z"/><path class="cls-3" d="m123.8,198.82l9.17-11.76s4.08-7.84-2.04-10.78c0,0-1.02-1.96-9.17-1.96h-.71c-8.15,0-9.17,1.96-9.17,1.96-6.11,2.94-2.04,10.78-2.04,10.78l9.17,11.76"/><path class="cls-4" d="m119.51,178.7c-.05-.2-.14-.39-.22-.57-.12-.27-.31-.5-.5-.73-.06-.07-.13-.14-.2-.2-.16-.14-.33-.28-.52-.38-.4-.23-.77-.32-1.22-.37-.21-.03-.43,0-.64.03-.03,0-.05-.02-.08-.03-.36-.08-.82-.08-1.13.15-.16.12-.33.24-.47.38-.14.14-.26.31-.38.47-.17.23-.28.51-.38.78-.1.27-.13.57-.16.85-.03.29.02.57.06.86.05.29.16.55.28.81.12.26.3.49.5.69.19.2.42.37.66.5.24.12.51.24.78.29.56.1,1.14.11,1.68-.09.26-.1.53-.2.75-.36.3-.21.5-.39.71-.67.38-.49.62-1.14.57-1.77-.02-.21-.04-.42-.09-.62Z"/><path class="cls-3" d="m193.96,114.21c3.21,4.44,8.28,7.23,13.76,7.49,1.74.08,1.73-2.62,0-2.7-4.46-.21-8.81-2.52-11.43-6.15-.43-.59-1.17-.88-1.85-.48-.58.34-.91,1.25-.48,1.85h0Z"/><path class="cls-3" d="m79.89,162.05s-16.18-.49-16.18-9.31,11.76-8.82,20.1-7.35c6.83,1.2,12.74,3.92,12.74,7.84,0,5.88-4.9,8.82-16.67,8.82Z"/><path class="cls-3" d="m162.98,162.05s16.42-.49,16.42-9.31c0-8.82-11.94-8.82-20.4-7.35-6.93,1.2-12.94,3.92-12.94,7.84,0,5.88,4.98,8.82,16.92,8.82Z"/><path class="cls-4" d="m74.89,147.99c-.05-.19-.13-.36-.26-.5-.1-.16-.24-.29-.41-.38-.12-.05-.23-.1-.35-.15-.06-.02-.12-.01-.17-.02-.17-.09-.36-.13-.56-.13-.2,0-.39.03-.57.13-.04.01-.08.04-.12.06-.11.04-.22.08-.32.14-.26.14-.51.4-.65.66-.15.27-.25.6-.25.91,0,.16.02.32.07.47.04.11.1.31.19.43.06.08.18.26.29.36.09.07.24.21.38.28.08.04.29.15.44.17.14.03.29.04.43.06.02,0,.04,0,.06,0,.02,0,.03,0,.05,0,.12-.01.28-.03.4-.05,0,0,.02,0,.03,0,.15-.04.3-.11.44-.18.01,0,.03-.02.04-.03.06-.04.12-.09.17-.13.05-.04.11-.08.17-.13.01-.01.03-.02.04-.04.1-.11.18-.22.26-.34.09-.13.16-.34.2-.45.02-.04.03-.08.04-.12.03-.16.07-.34.06-.51,0-.17-.03-.34-.07-.51Z"/><path class="cls-4" d="m161.16,147.99c-.05-.19-.13-.36-.26-.5-.1-.16-.24-.29-.41-.38-.12-.05-.23-.1-.35-.15-.06-.02-.12-.01-.17-.02-.17-.09-.36-.13-.56-.13-.2,0-.39.03-.57.13-.04.01-.08.04-.12.06-.11.04-.22.08-.32.14-.26.14-.51.4-.65.66-.15.27-.25.6-.25.91,0,.16.02.32.07.47.04.11.1.31.19.43.06.08.18.26.29.36.09.07.24.21.38.28.08.04.29.15.44.17.14.03.29.04.43.06.02,0,.04,0,.06,0,.02,0,.03,0,.05,0,.12-.01.28-.03.4-.05,0,0,.02,0,.03,0,.15-.04.3-.11.44-.18.01,0,.03-.02.04-.03.06-.04.12-.09.17-.13.05-.04.11-.08.17-.13.01-.01.03-.02.04-.04.1-.11.18-.22.26-.34.09-.13.16-.34.2-.45.02-.04.03-.08.04-.12.03-.16.07-.34.06-.51,0-.17-.03-.34-.07-.51Z"/><path class="cls-4" d="m61.76,134.11s5.88-1.96,18.59,6.12c1,.63,1.99,1.29,3.09,1.72,3.2,1.26,9.41,2.67,13.61-2.94,0,0,4.9-8.82-7.84-12.74-12.74-3.92-24.51,4.9-27.45,7.84Z"/><path class="cls-4" d="m171.12,124.59s-6.16-.74-16.98,9.73c-.85.82-1.69,1.66-2.68,2.31-2.88,1.88-8.68,4.5-13.93-.15,0,0-6.57-7.66,5.12-14.06,11.7-6.4,24.99-.12,28.47,2.17Z"/><path class="cls-3" d="m122.65,244.87c-.49-.9-1.19-1.64-2.01-2.24-.26-.19-.72-.22-1.02-.13-.31.08-.64.32-.79.61-.16.31-.24.68-.13,1.02.11.34.31.56.58.77-.03-.02-.06-.05-.09-.07.3.23.56.5.8.79.2.28.38.58.52.89.13.33.22.67.28,1.02,0,.09.02.18.02.27.03.69.59,1.36,1.32,1.32.69-.03,1.36-.58,1.32-1.32-.05-1.03-.32-2.02-.81-2.93Z"/><path class="cls-2" d="m126.83,218c-.62-.8-1.82-1.12-2.78-1.32-.63-.13-1.27-.2-1.91-.22-.16-.07-.34-.12-.54-.12-1.06,0-2.14.17-3.13.54-.58.22-1.13.5-1.46,1.05-.34.57-.38,1.33-.02,1.91.34.56.91.76,1.49.98.5.18,1,.36,1.51.51,1,.3,2.04.52,3.09.55,1,.03,2.2-.08,3.06-.66,1.04-.71,1.51-2.17.69-3.23Z"/></g></svg>