<?xml version="1.0" encoding="UTF-8"?><svg id="Layer_2" xmlns="http://www.w3.org/2000/svg" viewBox="0 0 229.23 247.09"><defs><style>.cls-1{stroke-width:0px;}.cls-2{stroke-miterlimit:10;}.cls-2,.cls-3{fill:none;stroke:#000;stroke-width:2px;}.cls-3{stroke-linecap:round;stroke-linejoin:round;}</style></defs><g id="Layer_1-2"><path class="cls-2" d="m118.32,244.58c4-5,19.97-12.5,19.97-12.5,42-12,71-45,71-45l7-12c0-1,4-17-10-20-14-3-22,8-36,14-14,6-16,6-36-6,0,0-7-5-18-5h-.47c-11,0-18,5-18,5-20,12-22,12-36,6s-22-17-36-14-10,19-10,20l7,12s29,33,71,45c0,0,15,6,19,11"/><path class="cls-2" d="m53,47.73s-10.68-8.16-14.68,2.84,1,36,2,38c-.28.19,7.34-11.95,22.8-20.62,1.66-.93-11.59-1.71-9.8-2.38l-7-8-1-7s15,12,19,9l-11.32-11.84Z"/><path class="cls-2" d="m176.32,48.58s12.8-10.93,17.47,2c2.53,7,1.53,19,1.53,19-22,2-18,4-18,4-4.7-4.3-6.86-5.5-13.53-8l6.53-9,6-8Z"/><path class="cls-1" d="m69.12,63.5c-5.09,2.1-11.49,2.9-16.39-.12-5.47-3.37-6.11-10.42-6.55-16.21l-2.8.76c5.25,10.27,16.64,14.57,27.49,15.74,1.75.19,1.93-2.45.4-2.95-2.57-.83-4.95-2.36-7.16-3.88-2.9-1.99-5.65-4.31-7.89-7.03-3.87-4.68-5.35-11.14-4.98-17.1.29-4.7,1.86-9.19,4.23-13.24l-2.8-.76c-.15,5.57,1.75,10.91,5.26,15.22,1.22,1.5,3.33-.64,2.12-2.12-3-3.69-4.51-8.36-4.38-13.1.04-1.5-2.06-2.02-2.8-.76-4.25,7.26-5.86,15.85-3.74,24.06.76,2.96,1.99,5.89,3.77,8.38,2.23,3.12,5.13,5.69,8.19,7.97,2.84,2.11,5.98,4.16,9.37,5.25l.4-2.95c-9.82-1.06-20.15-4.97-24.9-14.25-.66-1.3-2.91-.72-2.8.76.51,6.85,1.49,14.52,7.74,18.62,5.56,3.64,13.09,3.04,18.99.61,1.76-.73.99-3.63-.8-2.89h0Z"/><path class="cls-1" d="m83.53,62.45c-6.1-3.97-11.81-8.88-16.31-14.62s-6.96-12-5.52-19.09c.8-3.92,2.61-7.56,5.19-10.61l-2.51-.66c.94,2.52,2.26,4.88,4.25,6.72s4.6,3.11,7.28,3.91c1.85.55,2.65-2.34.8-2.89-4.5-1.34-7.77-4.1-9.43-8.53-.36-.96-1.71-1.6-2.51-.66-4.97,5.89-7.48,13.61-6.06,21.28s7.19,14.31,12.79,19.52c3.26,3.03,6.79,5.8,10.52,8.22,1.62,1.06,3.13-1.54,1.51-2.59h0Z"/><path class="cls-1" d="m70.89,25.93c-.9,6.99,1.4,14.22,4.83,20.25,3.13,5.52,7.61,10,13.42,12.64,1.74.79,3.27-1.79,1.51-2.59-5.38-2.45-9.44-6.45-12.34-11.57-3.19-5.62-5.26-12.23-4.42-18.73.25-1.91-2.76-1.89-3,0h0Z"/><path class="cls-1" d="m100.07,54.67c-7.01-2.69-11.96-8.76-15.72-15.03-2.05-3.42-4.11-7.05-5.36-10.86-1.35-4.09-1.28-8.38-.29-12.54,1.15-4.81,3.35-9.27,5.8-13.53l-2.8-.76c-.09,5.71,2.61,11.29,7.12,14.78,5.15,3.99,11.83,4.33,18.09,4.36,6.83.04,13.74-.07,20.49,1.14,3.38.6,6.73,1.51,9.87,2.93s5.92,3.16,8.69,5.04c5.89,3.99,12.74,9.09,13.2,16.85.11,1.92,3.11,1.93,3,0-.4-6.74-4.79-12.03-9.92-16.02s-11.02-7.86-17.35-10-13.33-2.71-20.08-2.86-13.55.66-19.81-1.47-10.4-8.19-10.3-14.74c.02-1.49-2.06-2.04-2.8-.76-4.54,7.9-8.51,17.18-6.36,26.45,1,4.3,3.24,8.35,5.42,12.15,2.05,3.58,4.39,7.04,7.2,10.07,3.11,3.36,6.82,6.04,11.11,7.68,1.8.69,2.58-2.21.8-2.89h0Z"/><path class="cls-1" d="m98.9,29.77c7.29,12.23,19.93,21.01,33.87,23.84,3.99.81,8.07,1.15,12.15.96,1.92-.09,1.93-3.09,0-3-13.48.62-26.91-4.78-36.43-14.32-2.7-2.71-5.04-5.72-6.99-9-.99-1.66-3.58-.15-2.59,1.51h0Z"/><path class="cls-1" d="m132.24,47.79c8.37,1.48,16.09,6.02,21.27,12.79.79,1.04,2.93.91,2.8-.76-.17-2.09.13-4.11,1.05-6.02h-2.59c1.14,2.2,2.28,4.41,3.42,6.61.47.9,1.67.91,2.36.3,1.15-1.03,2.31-2.07,3.46-3.1l-2.51-.66c.68,2.74,1.25,5.51,1.7,8.3.14.85,1.12,1.18,1.85,1.05,1.08-.2,1.73-1.13,1.72-2.19-.02-1.93-3.02-1.93-3,0l.49-.7,1.85,1.05c-.45-2.79-1.02-5.56-1.7-8.3-.29-1.15-1.7-1.39-2.51-.66-1.15,1.03-2.31,2.07-3.46,3.1l2.36.3c-1.14-2.2-2.28-4.41-3.42-6.61-.49-.96-2.11-1-2.59,0-1.14,2.37-1.67,4.9-1.45,7.53l2.8-.76c-5.65-7.39-13.87-12.55-23.06-14.17-1.89-.33-2.7,2.56-.8,2.89h0Z"/><path class="cls-1" d="m154.4,15.64c6.2,2.61,11.2,7.64,14.17,13.63,3.38,6.82,3.48,14.38,1.37,21.6-1.33,4.55-3.37,8.85-5.59,13.02-.7,1.3.72,2.82,2.05,2.05.3-.17.6-.35.9-.52,1.67-.96.16-3.56-1.51-2.59-.3.17-.6.35-.9.52l2.05,2.05c4.18-7.84,7.91-16.51,7.44-25.58-.38-7.43-3.63-14.56-8.75-19.93-2.95-3.1-6.5-5.49-10.43-7.14-.75-.32-1.64.34-1.85,1.05-.25.86.3,1.53,1.05,1.85h0Z"/><path class="cls-1" d="m122.22,18.63c-5.49-.87-10.72-2.81-15.52-5.6-2.11-1.22-4.18-2.56-5.82-4.02l-1.82,2.36c6.14,2.63,12.47,4.27,19.13,4.86,6.3.55,12.62.2,18.93.37,6.71.19,13.48,1.34,19.25,4.96,5.15,3.23,8.72,8.87,10.41,14.63,2.35,8.05-.19,15.95-3.57,23.31-.8,1.74,1.79,3.27,2.59,1.51,3.18-6.94,5.85-14.41,4.65-22.16-.97-6.23-4.1-12.36-8.62-16.76-10.21-9.96-25.14-8.21-38.16-8.56-8-.22-15.71-1.59-23.1-4.75-1.42-.61-3.21,1.12-1.82,2.36,6.18,5.47,14.58,9.1,22.66,10.39,1.89.3,2.7-2.59.8-2.89h0Z"/><path class="cls-1" d="m154.68,15.15c7.42,2.14,15.6,4.65,20.4,11.17s3.19,15.05-.65,21.86c-2.3,4.08-5.17,7.79-7.78,11.66-1.08,1.61,1.52,3.11,2.59,1.51,4.97-7.37,10.95-14.53,11.86-23.72.84-8.45-4.13-15.56-11.17-19.76-4.47-2.66-9.49-4.19-14.46-5.62-1.86-.54-2.65,2.36-.8,2.89h0Z"/><path class="cls-1" d="m176.22,73.52c3.14-.59,6.24-1.39,9.41-1.8,3.56-.46,7.21.25,10.7.89,2.68.49,5.32,1.13,7.93,1.89,3.64,1.05,7.18,1.46,10.97,1.54l-.4-2.95c-6.99,2.42-14.36,3.29-21.72,2.57-1.7-.17-2.01,2.54-.4,2.95,7.2,1.83,14.72,1.84,21.92.03l-1.16-2.74c-6.72,3.17-13.78,6.32-21.39,5.23-6.22-.89-11.87-4.26-14.98-9.81-.94-1.68-3.54-.17-2.59,1.51,3.47,6.19,9.83,10.15,16.79,11.19,8.5,1.26,16.16-1.98,23.69-5.53,1.58-.74.44-3.14-1.16-2.74-6.68,1.67-13.65,1.66-20.33-.03l-.4,2.95c7.6.74,15.31-.18,22.52-2.68,1.57-.54,1.35-2.91-.4-2.95-2.53-.05-5.1-.08-7.57-.69-1.01-.25-2-.57-3-.85-2.83-.81-5.7-1.47-8.6-1.96-3.71-.62-7.4-1.23-11.14-.71-3.2.44-6.33,1.22-9.49,1.81-1.9.35-1.09,3.25.8,2.89h0Z"/><path class="cls-1" d="m178.06,78.63c1.73,2.78,3.56,5.6,6.21,7.59,2.94,2.21,6.75,2.69,10.32,3.03,6.95.66,15.08-.3,20.83-4.62,2.84-2.14,4.3-6.42.92-8.84-1.57-1.13-3.07,1.47-1.51,2.59,1.38.99-.07,2.94-.93,3.65-1.39,1.14-3.18,1.96-4.85,2.58-3.41,1.28-7.03,1.82-10.67,1.82-1.83,0-3.67-.13-5.48-.38s-3.86-.55-5.55-1.43c-3.05-1.58-4.94-4.69-6.7-7.51-1.02-1.64-3.61-.13-2.59,1.51h0Z"/><path class="cls-1" d="m208.45,93.09c-8.95-1.45-17.93-2.7-26.93-3.74-1.48-.17-2.04,2.16-.76,2.8,12.11,6.01,24.48,11.47,37.08,16.36,1.29.5,2.27-1.15,1.69-2.2-1.26-2.31-2.88-4.39-4.81-6.17l-.66,2.51c1.97-.69,3.94-1.38,5.91-2.08,1.3-.46,1.54-2.54,0-2.89-2.43-.55-4.87-1.1-7.3-1.65l.66,2.51c2.23-1.96,4.46-3.91,6.68-5.87,1.23-1.08-.12-2.74-1.46-2.51-3.19.55-6.4.95-9.63,1.21l1.06,2.56c2.5-2.68,4.27-5.91,5.14-9.47.46-1.88-2.43-2.68-2.89-.8-.75,3.07-2.21,5.84-4.37,8.15-.82.88-.3,2.67,1.06,2.56,3.5-.28,6.98-.72,10.43-1.31l-1.46-2.51c-2.23,1.96-4.46,3.91-6.68,5.87-.84.73-.4,2.27.66,2.51,2.43.55,4.87,1.1,7.3,1.65v-2.89c-1.97.69-3.94,1.38-5.91,2.08-1.01.35-1.54,1.69-.66,2.51,1.76,1.62,3.2,3.46,4.34,5.56l1.69-2.2c-12.36-4.8-24.49-10.16-36.36-16.06l-.76,2.8c8.74,1.02,17.45,2.23,26.14,3.64,1.89.31,2.7-2.58.8-2.89h0Z"/><path class="cls-1" d="m181.54,38.33c4.15-1.06,8.63-1.97,12.94-1.84,1.92.06,3.37.67,4.29,2.42s1.45,3.85,1.9,5.79c.99,4.27,1.35,8.68,1.65,13.05.31,4.59.43,9.19.38,13.78-.02,1.93,2.98,1.93,3,0,.06-5.09-.1-10.18-.49-15.26s-.84-9.89-2.24-14.63c-.6-2.02-1.29-4.27-2.72-5.87-1.35-1.51-3.25-2.11-5.21-2.26-2.25-.17-4.57.16-6.79.46-2.53.34-5.04.83-7.51,1.46-1.87.48-1.08,3.37.8,2.89h0Z"/><path class="cls-1" d="m205.17,71.89l6.27-.23-.76-2.8c-1.08.78-2.21,1.48-3.38,2.12-.69.37-.97,1.39-.54,2.05.45.7,1.31.94,2.05.54,1.17-.63,2.3-1.34,3.38-2.12.53-.38.91-1.02.69-1.69-.2-.61-.77-1.13-1.45-1.1l-6.27.23c-.78.03-1.54.67-1.5,1.5.04.79.66,1.53,1.5,1.5h0Z"/><path class="cls-1" d="m204.12,48.26c1.41-.56,2.83-1.12,4.24-1.68l-1.69-2.2c-.47,1.05-1.06,2.05-1.74,2.98-.04.05-.07.1-.11.15-.16.22.15-.19.03-.04-.09.11-.18.22-.26.33-.18.22-.36.43-.56.63-.4.44-.83.85-1.28,1.23-.59.52-.57,1.6,0,2.12.63.58,1.49.55,2.12,0,1.85-1.61,3.38-3.65,4.39-5.89.26-.57.28-1.15-.12-1.67-.33-.43-1.03-.76-1.58-.54-1.41.56-2.83,1.12-4.24,1.68-.38.15-.68.33-.9.69-.19.32-.27.8-.15,1.16.23.7,1.06,1.36,1.85,1.05h0Z"/><path class="cls-1" d="m204.36,59.54l3.36-1.21c.37-.13.69-.34.9-.69.19-.32.27-.8.15-1.16s-.34-.71-.69-.9-.78-.29-1.16-.15l-3.36,1.21c-.37.13-.69.34-.9.69-.19.32-.27.8-.15,1.16s.34.71.69.9.78.29,1.16.15h0Z"/><path class="cls-1" d="m49.22,34.63c-2.95-.95-6.04-1.31-9.11-1.56-2.03-.17-4.07-.07-5.85,1.05-4,2.5-4.94,8.13-5.82,12.36-2.48,11.93-3.25,24.08-1.59,36.17.9,6.52,2.45,12.92,4.33,19.21.55,1.84,3.45,1.06,2.89-.8-3.07-10.26-5.14-20.76-5.17-31.5-.01-5.75.51-11.5,1.46-17.17.5-2.98,1.06-5.98,1.82-8.9.5-1.93,1.1-4.03,2.35-5.63,1.13-1.44,2.7-1.94,4.49-1.86,3.15.14,6.39.57,9.4,1.54,1.84.59,2.63-2.3.8-2.89h0Z"/><path class="cls-1" d="m31.24,100.96c-2.17,2.82-3.14,6.28-3.84,9.71-.83,4.09-1.45,8.21-2,12.35-1.11,8.45-1.75,16.94-2.39,25.44l2.95-.4c-2.51-10.6-3.48-21.48-2.9-32.36.1-1.93-2.9-1.92-3,0-.59,11.13.43,22.31,3.01,33.15.41,1.73,2.82,1.22,2.95-.4.61-8.17,1.23-16.34,2.27-24.46.52-4.06,1.14-8.11,1.94-12.12.66-3.34,1.5-6.65,3.62-9.4.5-.65.09-1.67-.54-2.05-.77-.46-1.56-.1-2.05.54h0Z"/><path class="cls-1" d="m23.4,93.2c-.94,4.97,1.17,10.1,5.35,12.96.67.46,1.66.13,2.05-.54.43-.74.13-1.59-.54-2.05s-1.4-1.14-2-1.88c-.4-.5-1.09-1.67-1.33-2.25-.19-.46-.34-.93-.47-1.41-.06-.24-.12-.48-.17-.72-.02-.11-.04-.22-.06-.33l-.03-.16c.01.1.01.1,0-.01-.11-.98-.07-2.04.07-2.81s-.22-1.62-1.05-1.85c-.73-.2-1.69.25-1.85,1.05h0Z"/><path class="cls-1" d="m25.9,80.04c-2.09,3.03-4.55,6.01-6.26,9.27-1.48,2.81-1.84,6.11-1.44,9.24.75,5.91,4.22,11.29,9.37,14.31,1.67.98,3.18-1.61,1.51-2.59-4.42-2.59-7.48-7.33-7.97-12.45-.26-2.79.18-5.53,1.66-7.93,1.77-2.86,3.81-5.57,5.72-8.33,1.1-1.59-1.5-3.09-2.59-1.51h0Z"/><path class="cls-1" d="m19.49,103.94c.29,5,.27,10.01-.1,15.01-.22,3.01-.54,5.3-1.58,8.23s-2.34,5.69-3.93,8.31c-1.39,2.29-3.09,4.8-5.56,6.02-1.73.86-.21,3.45,1.51,2.59,4.31-2.14,7.01-7.31,8.95-11.48,1.03-2.21,1.95-4.49,2.63-6.83.73-2.54.87-5.18,1.05-7.81.31-4.67.31-9.36.03-14.04-.11-1.92-3.11-1.93-3,0h0Z"/><path class="cls-1" d="m193.81,96.24c-3.13-.79-6.31-1.36-9.52-1.74-1.29-.15-1.98,1.74-1.06,2.56,9.61,8.58,21.23,14.73,33.76,17.77,1.88.46,2.68-2.44.8-2.89-12.02-2.92-23.21-8.75-32.43-17l-1.06,2.56c2.94.35,5.85.91,8.72,1.63,1.87.47,2.67-2.42.8-2.89h0Z"/><path class="cls-1" d="m208.98,121.82c2.07,9.07,4.42,18.08,7.05,27.01,2.05,6.96,4.28,14.6,10.66,18.83l.76-2.8c-2.65-.13-5.17-1.1-7.2-2.81-1.47-1.24-3.6.87-2.12,2.12,2.67,2.25,5.84,3.52,9.32,3.69,1.57.08,1.92-2.02.76-2.8-6.01-3.99-7.8-11.94-9.69-18.43-2.47-8.47-4.67-17.01-6.64-25.61-.43-1.88-3.32-1.09-2.89.8h0Z"/><path class="cls-1" d="m204.04,109.25c-.96,12.93-.76,25.9-1.71,38.83-.13,1.75,2.45,1.94,2.95.4,1.43-4.42,3.05-8.8,4.28-13.28s1.9-9.13,2.37-13.78c.19-1.92-2.81-1.91-3,0-.45,4.49-1.13,8.93-2.35,13.27s-2.8,8.66-4.2,12.99l2.95.4c.96-12.93.76-25.9,1.71-38.83.14-1.93-2.86-1.92-3,0h0Z"/><path class="cls-1" d="m211.62,113.2c3.14,4.78,6.29,9.56,9.43,14.34l2.36-1.82c-2.29-1.89-5.17-2.71-7.83-3.94-1.2-.56-2.48.35-2.2,1.69,1.24,6.01,2.52,12.22.92,18.29-.49,1.87,2.4,2.67,2.89.8,1.74-6.61.43-13.34-.92-19.89l-2.2,1.69c2.37,1.09,5.18,1.79,7.22,3.47,1.22,1.01,3.36-.29,2.36-1.82-3.14-4.78-6.29-9.56-9.43-14.34-1.06-1.61-3.66-.11-2.59,1.51h0Z"/><path class="cls-1" d="m26.64,61.47c-7.06,5.28-16.36,6.82-24.73,4.04-1.53-.51-2.36,1.45-1.46,2.51,6.02,7.05,15.93,6.38,24.21,5.25l-.8-2.89c-3.22.98-6.49,1.9-9.87,2.08-4.03.22-7.97-.52-11.84-1.56-1.42-.38-2.56,1.46-1.46,2.51,6.84,6.54,17,9.05,26.09,6.38,1.85-.54,1.06-3.44-.8-2.89-8.07,2.37-17.09.21-23.17-5.61l-1.46,2.51c4.11,1.1,8.37,1.91,12.64,1.67,3.65-.2,7.18-1.14,10.67-2.19,1.9-.58,1.06-3.15-.8-2.89-7.25.99-16.03,1.69-21.29-4.48l-1.46,2.51c9.04,3.01,19.41,1.37,27.05-4.34,1.53-1.14.03-3.75-1.51-2.59h0Z"/><path class="cls-1" d="m20.11,127.2c-3.25,6.7-5.17,13.68-6.4,21-.58,3.47-1.27,6.94-3.01,10.04-1.57,2.78-3.77,5.15-6.42,6.93-1.15.77-.83,2.9.76,2.8,3.44-.22,6.71-1.36,9.47-3.44,1.52-1.15.03-3.76-1.51-2.59-2.33,1.76-5.03,2.84-7.96,3.03l.76,2.8c5.97-4,9.21-10,10.5-16.96.7-3.78,1.25-7.55,2.29-11.26s2.43-7.35,4.12-10.84c.84-1.73-1.75-3.25-2.59-1.51h0Z"/><path class="cls-1" d="m14.82,169.58c-.56.03-1.13.03-1.69-.03-.07,0-.14-.02-.21-.02-.19-.02.32.05.04,0-.14-.02-.27-.05-.41-.07-.29-.06-.58-.13-.86-.21-.27-.08-.52-.18-.78-.27-.19-.07.26.12.07.03-.06-.03-.13-.06-.19-.09-.14-.07-.28-.13-.41-.21-.24-.13-.47-.27-.69-.43-.04-.03-.28-.21-.09-.06.17.14-.01-.01-.05-.04-.12-.1-.23-.2-.34-.3l-1.06,2.56c2.27-.19,4.56-.7,6.43-2.07.32-.24.58-.49.69-.9.1-.36.05-.84-.15-1.16-.4-.62-1.38-1.04-2.05-.54-.39.29-.81.55-1.24.76-.1.05-.2.09-.3.14-.28.13.27-.1-.1.04-.22.09-.45.17-.68.24-.46.14-.93.25-1.41.34-.11.02-.22.04-.33.06-.08.01-.44.1-.05,0-.25.06-.54.06-.79.08-.61.05-1.12.34-1.37.92-.23.54-.13,1.22.31,1.64,2.04,1.93,4.97,2.73,7.73,2.57.78-.05,1.54-.66,1.5-1.5-.03-.77-.66-1.55-1.5-1.5h0Z"/><path class="cls-1" d="m218.46,169.12c1.86.3,3.72.53,5.59.7l-.76-2.8c-.94.49-1.9.95-2.87,1.38-.12.05-.24.1-.36.16-.07.03-.14.06-.21.09.17-.07.2-.09.1-.04-.24.1-.48.2-.72.3-.5.2-1.01.39-1.51.57-.74.27-1.31,1.03-1.05,1.85.23.72,1.06,1.33,1.85,1.05,2.15-.78,4.26-1.69,6.28-2.75.56-.29.89-1.09.69-1.69-.22-.67-.76-1.04-1.45-1.1-.85-.07-1.7-.16-2.55-.27-.19-.02-.38-.05-.58-.07-.4-.05.33.05-.06,0-.12-.02-.23-.03-.35-.05-.42-.06-.84-.12-1.27-.19s-.78-.07-1.16.15c-.31.18-.61.54-.69.9-.16.72.22,1.71,1.05,1.85h0Z"/><path class="cls-1" d="m99.27,201.4c4.7,2.56,10.34,3.66,15.64,4.08,6.56.51,12.62-1.54,18.82-3.37,1.85-.55,1.06-3.44-.8-2.89-5.83,1.73-11.5,3.71-17.67,3.29-4.86-.33-10.16-1.34-14.47-3.69-1.7-.92-3.21,1.66-1.51,2.59h0Z"/><path class="cls-1" d="m12.53,174.83c6.14,10.48,15.01,19.56,24.15,27.43,14.42,12.41,30.87,21.85,48.64,28.57,4.86,1.84,9.79,3.52,14.48,5.76,4.57,2.18,8.72,4.56,11.96,8.54,1.22,1.5,3.33-.64,2.12-2.12-5.57-6.83-14.31-10.02-22.32-13.03-9.66-3.63-19.12-7.45-28.12-12.54-14.08-7.97-27.03-18.13-37.85-30.19-3.87-4.32-7.54-8.91-10.48-13.93-.98-1.67-3.57-.16-2.59,1.51h0Z"/><path class="cls-1" d="m216.53,173.32c-6.04,10.31-14.81,19.2-23.82,26.94-14.36,12.33-30.79,21.54-48.47,28.17-4.73,1.78-9.52,3.45-14.07,5.66s-8.26,5.05-11.4,8.93c-1.21,1.49.9,3.62,2.12,2.12,2.81-3.46,6.08-6.1,10.05-8.09s8.22-3.53,12.41-5.09c9.6-3.58,18.95-7.6,27.82-12.75,13.88-8.06,26.71-18.24,37.38-30.25,3.9-4.39,7.6-9.04,10.57-14.12.98-1.67-1.61-3.18-2.59-1.51h0Z"/><path class="cls-1" d="m91.68,202.81c4.43-.59,8.8-1.73,13.1-2.91s8.34-2.25,12.19-4.09c1.74-.83.22-3.42-1.51-2.59-3.61,1.72-7.64,2.73-11.48,3.78s-8.23,2.26-12.31,2.8c-.81.11-1.49.61-1.5,1.5,0,.73.7,1.61,1.5,1.5h0Z"/><path class="cls-1" d="m142.32,199.81c-4.43-.57-9.43-2.03-13.93-3.29s-9.15-2.45-13.07-4.27c-1.74-.8-3.27,1.78-1.51,2.59,4.37,2.02,9.17,3.27,13.79,4.57s9.74,2.75,14.73,3.39c1.91.25,1.89-2.76,0-3h0Z"/><path class="cls-1" d="m125.89,172.58s-1.04-2-9.36-2h-.72c-8.32,0-9.36,2-9.36,2-6.24,3-2.08,11-2.08,11l9.36,12h4.88l9.36-12s4.16-8-2.08-11Zm-12.14,4.91c-.22.29-.43.47-.73.69-.23.17-.51.27-.77.37-.55.2-1.14.19-1.71.09-.28-.05-.55-.17-.8-.29-.25-.13-.48-.31-.67-.51-.2-.21-.39-.45-.51-.71-.12-.27-.24-.54-.29-.83-.05-.29-.09-.58-.06-.88.03-.29.06-.59.16-.87.1-.27.21-.55.39-.79.12-.16.24-.33.39-.48.15-.14.32-.26.48-.38.32-.23.79-.24,1.16-.15.03,0,.06.02.08.03.21-.04.43-.06.65-.03.46.05.84.14,1.25.38.19.11.36.25.53.39.07.06.14.13.21.21.19.23.38.47.51.74.08.19.18.38.23.59.05.21.08.42.09.63.06.64-.19,1.3-.58,1.8Z"/><path class="cls-1" d="m190.07,109.34c3.3,4.57,8.5,7.44,14.14,7.7.81.04,1.5-.72,1.5-1.5,0-.84-.69-1.46-1.5-1.5-4.49-.21-8.9-2.54-11.55-6.22-.47-.66-1.31-.97-2.05-.54-.65.38-1.01,1.39-.54,2.05h0Z"/><path class="cls-1" d="m77.82,141.08c-8.5-1.5-20.5-1.5-20.5,7.5s16.5,9.5,16.5,9.5c12,0,17-3,17-9,0-4-6.04-6.77-13-8Zm-9.1,3.69s-.02.08-.04.13c-.05.12-.12.33-.21.46-.08.12-.17.24-.27.35-.01.01-.02.03-.04.04-.05.05-.12.09-.17.13-.05.04-.11.09-.17.13-.01,0-.03.02-.04.03-.14.07-.29.15-.45.18,0,0-.02,0-.03,0-.12.02-.28.04-.41.06-.02,0-.03,0-.05,0-.02,0-.04,0-.06,0-.15-.01-.3-.03-.44-.06-.15-.03-.37-.14-.44-.18-.14-.06-.29-.21-.38-.28-.12-.09-.23-.28-.29-.36-.09-.13-.16-.33-.2-.44-.05-.15-.06-.32-.07-.48,0-.32.09-.66.25-.93.15-.26.4-.52.67-.67.1-.06.21-.11.33-.14.04-.02.08-.04.13-.06.18-.09.37-.14.58-.13.21,0,.4.04.57.13.06,0,.12,0,.18.02.12.05.24.1.36.15.17.09.31.22.42.39.13.14.22.31.27.51.04.17.06.34.07.52,0,.17-.03.35-.06.52Z"/><path class="cls-1" d="m154.52,141.08c-7.07,1.23-13.19,4-13.19,8,0,6,5.07,9,17.25,9,0,0,16.75-.5,16.75-9.5s-12.18-9-20.81-7.5Zm2.21,3.69s-.02.08-.04.13c-.05.12-.12.33-.21.46-.08.12-.17.24-.27.35-.01.01-.02.03-.04.04-.05.05-.12.09-.17.13-.05.04-.11.09-.17.13-.01,0-.03.02-.04.03-.14.07-.29.15-.45.18,0,0-.02,0-.03,0-.12.02-.28.04-.41.06-.02,0-.03,0-.05,0-.02,0-.04,0-.06,0-.15-.01-.3-.03-.44-.06-.15-.03-.37-.14-.44-.18-.14-.06-.29-.21-.38-.28-.12-.09-.23-.28-.29-.36-.09-.13-.16-.33-.2-.44-.05-.15-.06-.32-.07-.48,0-.32.09-.66.25-.93.15-.26.4-.52.67-.67.1-.06.21-.11.33-.14.04-.02.08-.04.13-.06.18-.09.37-.14.58-.13.21,0,.4.04.57.13.06,0,.12,0,.18.02.12.05.24.1.36.15.17.09.31.22.42.39.13.14.22.31.27.51.04.17.06.34.07.52,0,.17-.03.35-.06.52Z"/><path class="cls-3" d="m55.32,129.58s6-2,18.97,6.24c1.02.65,2.02,1.31,3.15,1.76,3.26,1.28,9.6,2.72,13.89-3,0,0,5-9-8-13s-25,5-28,8Z"/><path class="cls-3" d="m166.88,119.87s-6.28-.75-17.32,9.93c-.87.84-1.72,1.69-2.73,2.35-2.94,1.91-8.85,4.59-14.21-.15,0,0-6.71-7.81,5.23-14.34,11.93-6.53,25.49-.12,29.04,2.21Z"/><path class="cls-1" d="m121.7,215.14c-.63-.81-1.86-1.14-2.83-1.35-.64-.14-1.3-.21-1.95-.22-.17-.08-.35-.12-.55-.12-1.08,0-2.19.17-3.19.55-.59.22-1.15.51-1.49,1.07-.35.59-.39,1.36-.03,1.95.35.57.93.78,1.52,1,.51.19,1.02.37,1.54.52,1.02.31,2.09.53,3.15.56,1.02.03,2.25-.09,3.12-.68,1.06-.72,1.54-2.21.7-3.29Z"/><path class="cls-1" d="m117.45,242.76c-.5-.92-1.21-1.67-2.05-2.29-.27-.19-.74-.22-1.04-.14-.31.09-.65.33-.81.62-.17.31-.25.69-.14,1.04.11.34.31.57.6.78-.03-.02-.06-.05-.1-.07.3.24.57.51.82.81.21.29.38.59.53.91.13.34.23.68.29,1.04,0,.09.02.18.02.28.03.7.6,1.38,1.35,1.35.7-.03,1.38-.59,1.35-1.35-.05-1.05-.32-2.06-.82-2.98Z"/></g></svg>