<?xml version="1.0" encoding="UTF-8"?><svg id="Layer_2" xmlns="http://www.w3.org/2000/svg" xmlns:xlink="http://www.w3.org/1999/xlink" viewBox="0 0 228.9 246.69"><defs><style>.cls-1{fill:url(#linear-gradient);}.cls-1,.cls-2,.cls-3,.cls-4,.cls-5,.cls-6,.cls-7,.cls-8{stroke-width:0px;}.cls-2{fill:#e6e6e6;}.cls-4{fill:#fff;}.cls-5{fill:url(#linear-gradient-2);}.cls-6{fill:url(#radial-gradient-2);}.cls-7{fill:url(#linear-gradient-3);}.cls-8{fill:url(#radial-gradient);}</style><radialGradient id="radial-gradient" cx="115.17" cy="126.88" fx="115.17" fy="158.11" r="100.59" gradientUnits="userSpaceOnUse"><stop offset="0" stop-color="#fbf5cb"/><stop offset=".06" stop-color="#fbeec1"/><stop offset=".35" stop-color="#fbd497"/><stop offset=".62" stop-color="#fbc079"/><stop offset=".84" stop-color="#fbb566"/><stop offset="1" stop-color="#fcb160"/></radialGradient><radialGradient id="radial-gradient-2" cx="115.91" cy="199.38" fx="115.91" fy="173.22" r="78.03" gradientUnits="userSpaceOnUse"><stop offset="0" stop-color="#fff"/><stop offset=".48" stop-color="#fcfcfc"/><stop offset=".76" stop-color="#f4f4f4"/><stop offset=".99" stop-color="#e6e6e6"/><stop offset="1" stop-color="#e6e6e6"/></radialGradient><linearGradient id="linear-gradient" x1="112.31" y1="67.06" x2="112.31" y2="4.38" gradientUnits="userSpaceOnUse"><stop offset="0" stop-color="#534741"/><stop offset=".31" stop-color="#554943"/><stop offset=".53" stop-color="#5f534a"/><stop offset=".72" stop-color="#6e6256"/><stop offset=".9" stop-color="#847967"/><stop offset="1" stop-color="#958a74"/></linearGradient><linearGradient id="linear-gradient-2" x1="17.67" y1="145.38" x2="17.67" y2="62.38" gradientUnits="userSpaceOnUse"><stop offset="0" stop-color="#664a13"/><stop offset=".27" stop-color="#674b15"/><stop offset=".46" stop-color="#6b521f"/><stop offset=".63" stop-color="#735c2e"/><stop offset=".78" stop-color="#7e6b45"/><stop offset=".92" stop-color="#8c7d61"/><stop offset="1" stop-color="#958a74"/></linearGradient><linearGradient id="linear-gradient-3" x1="198.17" y1="149.38" x2="198.17" y2="70.3" gradientUnits="userSpaceOnUse"><stop offset="0" stop-color="#534741"/><stop offset=".57" stop-color="#544842"/><stop offset=".77" stop-color="#5b4e46"/><stop offset=".91" stop-color="#67584f"/><stop offset="1" stop-color="#736357"/></linearGradient></defs><g id="Layer_1-2"><polygon class="cls-8" points="16.67 178.88 6.67 164.88 12.67 157.88 19.67 124.88 27.67 93.88 27.67 63.88 28.67 50.88 32.67 38.88 35.67 34.88 43.67 34.88 151.67 41.88 180.67 36.88 190.67 34.88 196.67 34.88 200.67 38.88 202.67 50.88 204.67 73.88 206.67 106.88 212.67 131.88 218.67 153.88 223.67 164.88 221.67 169.88 215.67 174.88 162.67 217.88 73.67 218.88 16.67 178.88"/><path class="cls-6" d="m118.17,244.38c4-5,19.97-12.5,19.97-12.5,42-12,71-45,71-45l7-12c0-1,4-17-10-20-14-3-22,8-36,14-14,6-16,6-36-6,0,0-7-5-18-5h-.47c-11,0-18,5-18,5-20,12-22,12-36,6s-22-17-36-14-10,19-10,20l7,12s29,33,71,45c0,0,15,6,19,11"/><path class="cls-1" d="m69.17,64.38s-16,9-23-6l-1-11s7,12,22,14c0,0-19-11-17-30l3-12,2,9,4,5s3-13,6-15c0,0,6,7,12,9,0,0-3-12,5-23,0,0,3,17,28,15h8s-10-3-13-7c0,0,13,4,37,3,0,0,24,1,27,24,0,0,4-2,2-9l-11-15s22,4,19,25l-14,24-2-7-4,2-3-6-2,6-8-8s5,7-14,3,2,3,2,3c0,0-16,4-34,0l-5-3s2,3,8,7c0,0-10,1-15-3,0,0-7-5-1,4l-6-1,1,2-12,1h-1Z"/><path class="cls-5" d="m27.17,62.38s-1,13,5,39c0,0-7,19-8,44,0,0-3-17-4-34v-7s-3-11,4-19l3-7s-12,4-24-6l13,1-13-5s11,1,17-2l7-4Z"/><path class="cls-7" d="m175.17,71.38s21-3,28,1l1-2,6,1-3,2,9,5v3l-3,4-4,7,8-1-4,5,5,2-5,3,5,5-12-4,7,9,8,14-6-2,1,8v8l-6-16s-4,20-7,26l1-20,1-15s-9,2-13-5l8-3s-10-4-15-10h5l-9-6s-2-3,11-2c0,0-13-2-11-11,0,0-5-2-6-6Z"/><path class="cls-4" d="m52.85,47.54s-10.68-8.16-14.68,2.84,1,36,2,38c-.28.19,7.34-11.95,22.8-20.62,1.66-.93-11.59-1.71-9.8-2.38l-7-8-1-7s15,12,19,9l-11.32-11.84Z"/><path class="cls-4" d="m176.17,48.38s12.8-10.93,17.47,2c2.53,7,1.53,19,1.53,19-22,2-18,4-18,4-4.7-4.3-6.86-5.5-13.53-8l6.53-9,6-8Z"/><path class="cls-3" d="m69.01,63.45c-5.13,2.11-11.57,2.91-16.51-.14-5.52-3.41-6.18-10.49-6.62-16.34l-2.52.68c5.22,10.22,16.56,14.5,27.36,15.66,1.57.17,1.74-2.21.36-2.65-2.58-.83-4.98-2.37-7.19-3.89-2.91-2-5.67-4.33-7.92-7.05-3.89-4.71-5.4-11.2-5.03-17.21.29-4.73,1.87-9.25,4.25-13.32l-2.52-.68c-.15,5.53,1.74,10.83,5.22,15.11,1.1,1.35,3-.57,1.91-1.91-3.03-3.72-4.55-8.43-4.43-13.2.04-1.35-1.85-1.82-2.52-.68-4.23,7.23-5.83,15.77-3.73,23.94.76,2.95,1.98,5.86,3.76,8.35,2.22,3.1,5.1,5.65,8.14,7.91,2.83,2.1,5.96,4.15,9.34,5.24l.36-2.65c-9.87-1.07-20.26-4.99-25.03-14.33-.6-1.17-2.62-.65-2.52.68.51,6.8,1.46,14.43,7.67,18.49,5.53,3.62,13.01,3.01,18.88.59,1.58-.65.89-3.27-.72-2.6h0Z"/><path class="cls-3" d="m83.3,62.39c-6.12-3.98-11.83-8.89-16.34-14.64-4.37-5.57-7.01-12.09-5.56-19.23.8-3.94,2.63-7.6,5.22-10.67l-2.26-.6c.93,2.49,2.24,4.83,4.21,6.66s4.56,3.08,7.21,3.87c1.67.5,2.38-2.11.72-2.6-4.55-1.35-7.86-4.15-9.54-8.64-.32-.86-1.54-1.44-2.26-.6-4.94,5.85-7.44,13.52-6.02,21.13s7.16,14.26,12.75,19.46c3.25,3.02,6.77,5.78,10.49,8.2,1.46.95,2.82-1.39,1.36-2.33h0Z"/><path class="cls-3" d="m70.89,25.73c-.9,6.97,1.4,14.16,4.81,20.17,3.12,5.5,7.58,9.96,13.36,12.59,1.57.71,2.94-1.61,1.36-2.33-5.4-2.46-9.48-6.49-12.4-11.62-3.2-5.64-5.28-12.28-4.44-18.81.22-1.72-2.48-1.7-2.7,0h0Z"/><path class="cls-3" d="m99.88,54.62c-7.05-2.71-12.03-8.8-15.81-15.1-2.06-3.43-4.12-7.08-5.38-10.89-1.36-4.11-1.29-8.44-.29-12.62,1.16-4.82,3.36-9.29,5.81-13.57l-2.52-.68c-.09,5.67,2.59,11.21,7.08,14.68,5.12,3.96,11.77,4.28,17.98,4.32,6.84.04,13.76-.06,20.53,1.14,3.39.61,6.76,1.52,9.9,2.94s5.92,3.16,8.69,5.04c5.94,4.02,12.81,9.16,13.27,16.98.1,1.73,2.8,1.74,2.7,0-.4-6.7-4.78-11.95-9.87-15.92s-10.98-7.83-17.28-9.96-13.3-2.7-20.04-2.86-13.58.66-19.85-1.48-10.51-8.27-10.41-14.89c.02-1.34-1.85-1.83-2.52-.68-4.52,7.87-8.49,17.11-6.34,26.34,1,4.29,3.23,8.32,5.4,12.12,2.04,3.57,4.37,7.02,7.17,10.04,3.09,3.34,6.78,6.01,11.04,7.64,1.62.62,2.33-1.99.72-2.6h0Z"/><path class="cls-3" d="m98.88,29.5c7.27,12.2,19.88,20.95,33.78,23.78,3.98.81,8.05,1.14,12.11.96,1.73-.08,1.74-2.78,0-2.7-13.52.62-26.99-4.8-36.53-14.36-2.71-2.71-5.06-5.74-7.02-9.03-.89-1.49-3.22-.13-2.33,1.36h0Z"/><path class="cls-3" d="m132.13,47.45c8.41,1.48,16.16,6.06,21.36,12.86.71.93,2.64.81,2.52-.68-.18-2.12.14-4.17,1.07-6.09h-2.33c1.14,2.2,2.28,4.41,3.42,6.61.42.81,1.51.82,2.12.27,1.15-1.03,2.31-2.07,3.46-3.1l-2.26-.6c.68,2.74,1.25,5.51,1.7,8.3.12.76,1.01,1.06,1.66.94,1.01-.19,1.62-1.05,1.61-2.05-.02-1.74-2.72-1.74-2.7,0l.38-.55,1.66.94c-.45-2.79-1.02-5.56-1.7-8.3-.26-1.03-1.53-1.25-2.26-.6-1.15,1.03-2.31,2.07-3.46,3.1l2.12.27c-1.14-2.2-2.28-4.41-3.42-6.61-.45-.86-1.9-.9-2.33,0-1.13,2.35-1.65,4.85-1.43,7.46l2.52-.68c-5.62-7.36-13.82-12.49-22.97-14.1-1.7-.3-2.43,2.3-.72,2.6h0Z"/><path class="cls-3" d="m154.28,15.3c6.23,2.62,11.27,7.67,14.26,13.7,3.4,6.86,3.51,14.45,1.39,21.72-1.33,4.57-3.37,8.87-5.61,13.06-.63,1.17.65,2.54,1.85,1.85.3-.17.6-.35.9-.52,1.51-.87.15-3.2-1.36-2.33-.3.17-.6.35-.9.52l1.85,1.85c4.17-7.82,7.89-16.46,7.42-25.51-.38-7.39-3.62-14.49-8.7-19.82-2.93-3.08-6.46-5.46-10.37-7.11-1.6-.67-2.3,1.94-.72,2.6h0Z"/><path class="cls-3" d="m122.03,18.58c-5.5-.88-10.74-2.82-15.55-5.61-2.08-1.21-4.16-2.54-5.85-4.04l-1.64,2.12c6.12,2.62,12.43,4.25,19.06,4.84s12.62.2,18.93.37c6.73.19,13.54,1.35,19.33,4.98,5.19,3.25,8.78,8.92,10.48,14.72,2.36,8.09-.19,16.03-3.58,23.42-.72,1.57,1.61,2.94,2.33,1.36,3.17-6.9,5.83-14.34,4.63-22.04-.97-6.21-4.08-12.31-8.58-16.7-10.18-9.92-25.08-8.17-38.05-8.52-8.03-.22-15.76-1.6-23.18-4.77-1.28-.55-2.89,1.01-1.64,2.12,6.16,5.45,14.54,9.06,22.6,10.35,1.7.27,2.43-2.33.72-2.6h0Z"/><path class="cls-3" d="m154.57,14.81c7.46,2.15,15.67,4.69,20.49,11.23,4.99,6.77,3.21,15.16-.65,22.01-2.3,4.08-5.17,7.79-7.78,11.66-.97,1.45,1.36,2.8,2.33,1.36,4.95-7.35,10.93-14.48,11.84-23.64.83-8.4-4.1-15.46-11.1-19.63-4.46-2.65-9.47-4.18-14.42-5.61-1.67-.48-2.39,2.12-.72,2.6h0Z"/><path class="cls-3" d="m176.03,73.18c3.15-.59,6.27-1.39,9.45-1.8,3.57-.46,7.23.25,10.74.89,2.68.49,5.32,1.13,7.93,1.89,3.63,1.05,7.15,1.46,10.93,1.53l-.36-2.65c-7.01,2.43-14.38,3.3-21.76,2.58-1.53-.15-1.81,2.28-.36,2.65,7.17,1.82,14.66,1.83,21.84.03l-1.04-2.47c-6.75,3.19-13.83,6.34-21.49,5.25-6.26-.89-11.96-4.29-15.09-9.88-.85-1.52-3.18-.16-2.33,1.36,3.45,6.16,9.78,10.09,16.7,11.12,8.45,1.25,16.09-1.98,23.57-5.52,1.42-.67.4-2.83-1.04-2.47-6.71,1.68-13.7,1.67-20.41-.03l-.36,2.65c7.59.74,15.28-.18,22.48-2.67,1.41-.49,1.22-2.62-.36-2.65-2.55-.05-5.13-.08-7.61-.7-1.01-.25-2-.57-3-.85-2.83-.81-5.7-1.47-8.6-1.96-3.68-.62-7.35-1.22-11.06-.71-3.2.44-6.33,1.22-9.49,1.81-1.71.32-.98,2.92.72,2.6h0Z"/><path class="cls-3" d="m178.04,78.36c1.72,2.76,3.53,5.56,6.16,7.53,2.92,2.19,6.7,2.68,10.24,3.01,6.93.66,15.03-.29,20.75-4.6,2.75-2.07,4.2-6.23.92-8.58-1.41-1.01-2.76,1.33-1.36,2.33,1.48,1.06.04,3.11-.91,3.9-1.4,1.16-3.21,1.98-4.9,2.61-3.42,1.28-7.06,1.83-10.71,1.82-1.85,0-3.7-.13-5.52-.38s-3.88-.56-5.59-1.44c-3.07-1.59-4.99-4.72-6.75-7.57-.92-1.47-3.25-.12-2.33,1.36h0Z"/><path class="cls-3" d="m208.26,93.04c-8.94-1.45-17.9-2.69-26.89-3.74-1.33-.15-1.84,1.94-.68,2.52,12.1,6,24.46,11.46,37.05,16.35,1.16.45,2.04-1.04,1.52-1.98-1.25-2.3-2.87-4.36-4.79-6.14l-.6,2.26c1.97-.69,3.94-1.38,5.91-2.08,1.17-.41,1.39-2.29,0-2.6-2.43-.55-4.87-1.1-7.3-1.65l.6,2.26c2.23-1.96,4.46-3.91,6.68-5.87,1.11-.97-.11-2.46-1.31-2.26-3.21.55-6.43.95-9.67,1.21l.95,2.3c2.48-2.66,4.24-5.87,5.1-9.41.41-1.69-2.19-2.41-2.6-.72-.76,3.1-2.23,5.88-4.41,8.22-.74.79-.27,2.4.95,2.3,3.48-.28,6.95-.71,10.39-1.31l-1.31-2.26c-2.23,1.96-4.46,3.91-6.68,5.87-.75.66-.36,2.04.6,2.26,2.43.55,4.87,1.1,7.3,1.65v-2.6c-1.97.69-3.94,1.38-5.91,2.08-.91.32-1.39,1.52-.6,2.26,1.77,1.63,3.21,3.48,4.37,5.59l1.52-1.98c-12.37-4.81-24.51-10.17-36.4-16.07l-.68,2.52c8.75,1.02,17.48,2.23,26.18,3.64,1.7.28,2.43-2.33.72-2.6h0Z"/><path class="cls-3" d="m181.35,37.99c4.17-1.06,8.66-1.98,12.98-1.85,1.97.06,3.48.69,4.42,2.49s1.47,3.88,1.92,5.83c.99,4.29,1.35,8.71,1.65,13.09s.43,9.19.38,13.78c-.02,1.74,2.68,1.74,2.7,0,.06-5.09-.1-10.18-.49-15.26s-.84-9.86-2.23-14.59c-.59-2-1.27-4.22-2.68-5.81-1.32-1.48-3.18-2.07-5.1-2.21-2.25-.17-4.57.16-6.79.46-2.52.34-5.01.83-7.47,1.45-1.68.43-.97,3.03.72,2.6h0Z"/><path class="cls-3" d="m205.02,71.55c2.09-.08,4.18-.15,6.27-.23l-.68-2.52c-1.08.78-2.21,1.48-3.38,2.12-.62.34-.87,1.25-.48,1.85.41.63,1.18.84,1.85.48,1.17-.63,2.3-1.34,3.38-2.12.47-.34.82-.92.62-1.52-.18-.55-.69-1.01-1.3-.99-2.09.08-4.18.15-6.27.23-.7.03-1.38.6-1.35,1.35.03.71.59,1.38,1.35,1.35h0Z"/><path class="cls-3" d="m203.93,47.92c1.41-.56,2.83-1.12,4.24-1.68l-1.52-1.98c-.47,1.05-1.06,2.05-1.74,2.98-.04.05-.07.1-.11.15-.15.2.12-.14.01-.01-.09.11-.18.22-.26.33-.18.22-.36.43-.56.63-.4.44-.83.85-1.28,1.23-.53.46-.51,1.44,0,1.91.57.52,1.34.5,1.91,0,1.85-1.6,3.36-3.63,4.36-5.86.23-.51.25-1.03-.11-1.5-.3-.39-.92-.68-1.42-.48-1.41.56-2.83,1.12-4.24,1.68-.34.13-.62.29-.81.62-.17.29-.24.72-.14,1.04.21.63.96,1.22,1.66.94h0Z"/><path class="cls-3" d="m204.17,59.19l3.36-1.21c.34-.12.62-.3.81-.62.17-.29.24-.72.14-1.04s-.31-.64-.62-.81-.7-.26-1.04-.14l-3.36,1.21c-.34.12-.62.3-.81.62-.17.29-.24.72-.14,1.04s.31.64.62.81.7.26,1.04.14h0Z"/><path class="cls-3" d="m49.03,34.58c-2.93-.94-6.02-1.3-9.07-1.56-2.01-.17-4.02-.07-5.77,1.03-3.96,2.48-4.88,8.09-5.75,12.27-2.48,11.9-3.25,24.02-1.59,36.09.9,6.52,2.45,12.92,4.33,19.21.5,1.66,3.1.95,2.6-.72-3.07-10.27-5.15-20.78-5.17-31.54-.01-5.77.51-11.53,1.46-17.21.5-2.98,1.06-5.98,1.82-8.9.51-1.95,1.11-4.05,2.37-5.67,1.15-1.49,2.78-2.02,4.62-1.94,3.16.14,6.42.57,9.44,1.54,1.66.53,2.37-2.07.72-2.6h0Z"/><path class="cls-3" d="m31.22,100.84c-2.16,2.81-3.13,6.26-3.82,9.68-.82,4.07-1.45,8.19-1.99,12.31-1.11,8.45-1.75,16.94-2.39,25.44l2.65-.36c-2.52-10.61-3.48-21.51-2.9-32.4.09-1.74-2.61-1.73-2.7,0-.59,11.12.43,22.28,3,33.11.37,1.55,2.54,1.09,2.65-.36.61-8.17,1.23-16.34,2.27-24.46.52-4.07,1.15-8.14,1.94-12.16.66-3.35,1.51-6.68,3.63-9.43,1.06-1.38-1.29-2.72-2.33-1.36h0Z"/><path class="cls-3" d="m23.39,93.05c-.92,4.9,1.16,9.97,5.28,12.79.6.41,1.5.11,1.85-.48.39-.67.12-1.43-.48-1.85-3.08-2.11-4.71-6.17-4.04-9.74.13-.72-.2-1.46-.94-1.66-.66-.18-1.52.22-1.66.94h0Z"/><path class="cls-3" d="m25.88,79.92c-2.09,3.03-4.55,6.01-6.26,9.27-1.47,2.79-1.82,6.06-1.42,9.16.74,5.85,4.2,11.19,9.3,14.18,1.5.88,2.86-1.45,1.36-2.33-4.47-2.62-7.55-7.41-8.04-12.58-.27-2.81.18-5.59,1.68-8.01,1.77-2.86,3.81-5.57,5.72-8.33.99-1.43-1.35-2.78-2.33-1.36h0Z"/><path class="cls-3" d="m19.49,103.75c.29,5,.27,10.01-.1,15.01-.22,2.98-.56,5.4-1.59,8.27s-2.35,5.71-3.94,8.35c-1.4,2.31-3.12,4.84-5.61,6.08-1.56.77-.19,3.1,1.36,2.33,4.29-2.13,6.97-7.28,8.9-11.43,1.02-2.2,1.94-4.47,2.61-6.8.73-2.52.87-5.16,1.04-7.77.31-4.67.31-9.36.03-14.04-.1-1.73-2.8-1.74-2.7,0h0Z"/><path class="cls-3" d="m193.62,96.19c-3.12-.79-6.28-1.36-9.48-1.74-1.16-.14-1.78,1.57-.95,2.3,9.59,8.57,21.19,14.7,33.69,17.73,1.69.41,2.41-2.19.72-2.6-12.04-2.92-23.25-8.78-32.5-17.04l-.95,2.3c2.95.35,5.88.91,8.76,1.64,1.68.43,2.4-2.18.72-2.6h0Z"/><path class="cls-3" d="m208.97,121.58c2.07,9.07,4.42,18.08,7.05,27.01,2.04,6.91,4.25,14.53,10.59,18.74l.68-2.52c-2.69-.13-5.25-1.12-7.31-2.85-1.32-1.11-3.24.79-1.91,1.91,2.63,2.22,5.77,3.48,9.22,3.64,1.42.07,1.73-1.82.68-2.52-6.05-4.01-7.86-11.99-9.76-18.52-2.47-8.47-4.67-17.01-6.64-25.61-.39-1.69-2.99-.98-2.6.72h0Z"/><path class="cls-3" d="m204.04,109.05c-.96,12.93-.76,25.9-1.71,38.83-.12,1.58,2.2,1.75,2.65.36,1.43-4.42,3.05-8.8,4.28-13.28s1.9-9.1,2.37-13.74c.17-1.73-2.53-1.72-2.7,0-.45,4.5-1.13,8.95-2.35,13.31s-2.8,8.66-4.2,12.99l2.65.36c.96-12.93.76-25.9,1.71-38.83.13-1.73-2.57-1.73-2.7,0h0Z"/><path class="cls-3" d="m211.6,112.93c3.14,4.78,6.29,9.56,9.43,14.34l2.12-1.64c-2.28-1.88-5.16-2.69-7.8-3.92-1.08-.5-2.23.32-1.98,1.52,1.25,6.04,2.53,12.28.92,18.37-.44,1.68,2.16,2.4,2.6.72,1.73-6.58.42-13.29-.92-19.81l-1.98,1.52c2.38,1.1,5.2,1.8,7.25,3.5,1.1.91,3.03-.26,2.12-1.64-3.14-4.78-6.29-9.56-9.43-14.34-.95-1.45-3.29-.09-2.33,1.36h0Z"/><path class="cls-3" d="m26.57,61.4c-7.09,5.3-16.44,6.85-24.85,4.05-1.38-.46-2.12,1.31-1.31,2.26,5.98,7,15.84,6.33,24.07,5.21l-.72-2.6c-3.24.98-6.52,1.9-9.91,2.09-4.04.22-7.99-.52-11.88-1.57-1.28-.34-2.3,1.31-1.31,2.26,6.8,6.5,16.9,9,25.94,6.34,1.66-.49.96-3.09-.72-2.6-8.12,2.38-17.19.2-23.31-5.65l-1.31,2.26c4.1,1.1,8.34,1.9,12.6,1.66,3.64-.2,7.16-1.13,10.63-2.19,1.71-.52.95-2.83-.72-2.6-7.3,1-16.14,1.7-21.44-4.52l-1.31,2.26c9.01,3,19.32,1.36,26.93-4.33,1.38-1.03.03-3.37-1.36-2.33h0Z"/><path class="cls-3" d="m20.09,127.08c-3.24,6.69-5.16,13.65-6.39,20.97-.58,3.48-1.28,6.97-3.03,10.08-1.58,2.81-3.8,5.19-6.47,6.98-1.03.69-.75,2.61.68,2.52,3.41-.22,6.66-1.35,9.4-3.42,1.37-1.03.03-3.38-1.36-2.33-2.36,1.78-5.08,2.86-8.03,3.05l.68,2.52c5.94-3.98,9.15-9.95,10.43-16.87.7-3.78,1.25-7.55,2.29-11.26s2.44-7.37,4.14-10.87c.75-1.56-1.57-2.93-2.33-1.36h0Z"/><path class="cls-3" d="m14.67,169.53c-.56.03-1.13.03-1.69-.03-.07,0-.14-.02-.21-.02-.17-.02.26.04,0,0-.14-.02-.27-.05-.41-.07-.29-.06-.58-.13-.86-.21-.27-.08-.52-.18-.78-.27-.18-.06.21.1.04.02-.06-.03-.13-.06-.19-.09-.14-.07-.28-.13-.41-.21-.24-.13-.47-.27-.69-.43-.03-.02-.27-.19-.11-.07.14.11-.03-.03-.06-.05-.12-.1-.23-.2-.34-.3l-.95,2.3c2.24-.19,4.51-.7,6.35-2.05.57-.42.91-1.19.48-1.85-.36-.56-1.24-.93-1.85-.48-.39.29-.81.55-1.24.76-.1.05-.2.09-.3.14-.14.06-.13.06.02,0-.05.02-.1.04-.15.06-.22.09-.45.17-.68.24-.46.14-.93.25-1.41.34-.11.02-.22.04-.33.06-.05,0-.42.08-.09.01-.26.05-.53.06-.79.08-.55.05-1.01.3-1.23.83-.2.48-.12,1.1.28,1.47,2.01,1.9,4.9,2.69,7.63,2.53.7-.04,1.38-.59,1.35-1.35-.03-.7-.6-1.4-1.35-1.35h0Z"/><path class="cls-3" d="m218.35,168.78c1.84.29,3.7.53,5.55.69l-.68-2.52c-.94.49-1.9.95-2.87,1.38-.12.05-.24.1-.36.16-.07.03-.14.06-.21.09.13-.06.16-.07.07-.03-.24.1-.48.2-.72.3-.5.2-1.01.39-1.51.57-.66.24-1.18.93-.94,1.66.21.65.95,1.2,1.66.94,2.14-.77,4.23-1.68,6.25-2.74.51-.26.8-.98.62-1.52-.2-.6-.68-.94-1.3-.99-.85-.07-1.7-.16-2.55-.27-.19-.02-.38-.05-.58-.07-.39-.05.28.04-.1-.01-.12-.02-.23-.03-.35-.05-.42-.06-.84-.12-1.27-.19-.37-.06-.7-.06-1.04.14-.28.16-.55.48-.62.81-.15.65.2,1.54.94,1.66h0Z"/><path class="cls-3" d="m100.19,202.07c4.62,2.5,10.2,3.05,15.36,3.15,5.83.11,11.39-.84,16.97-2.47,1.66-.49.96-3.09-.72-2.6-5.24,1.53-10.41,2.45-15.89,2.38-4.79-.06-10.08-.47-14.37-2.79-1.53-.83-2.89,1.5-1.36,2.33h0Z"/><path class="cls-3" d="m12.51,174.56c6.13,10.47,15,19.54,24.13,27.4,14.4,12.39,30.83,21.82,48.57,28.54,4.87,1.84,9.81,3.53,14.52,5.78s8.74,4.57,11.99,8.56c1.1,1.35,3-.57,1.91-1.91-5.55-6.81-14.26-9.99-22.25-12.99-9.67-3.63-19.15-7.45-28.16-12.56-14.09-7.98-27.06-18.15-37.88-30.22-3.88-4.33-7.56-8.93-10.51-13.96-.88-1.5-3.21-.14-2.33,1.36h0Z"/><path class="cls-3" d="m216.51,173.2c-6.05,10.32-14.82,19.22-23.84,26.97-6.54,5.62-13.56,10.67-20.95,15.11-8.77,5.28-18.01,9.5-27.59,13.1-4.72,1.77-9.5,3.44-14.04,5.64s-8.24,5.04-11.37,8.91c-1.08,1.34.81,3.26,1.91,1.91,2.81-3.47,6.1-6.12,10.08-8.12s8.25-3.54,12.45-5.1c9.59-3.58,18.92-7.59,27.79-12.74,13.87-8.05,26.69-18.23,37.35-30.23,3.89-4.38,7.59-9.02,10.55-14.09.88-1.5-1.45-2.86-2.33-1.36h0Z"/><path class="cls-3" d="m91.53,204.11c4.29-.57,8.52-1.51,12.71-2.59,3.97-1.02,8.04-2.09,11.76-3.86,1.46-.7,1.84-2.79,1.08-4.1-.88-1.5-2.64-1.77-4.1-1.08-.16.08-.33.15-.49.23-.49.24.44-.15.07-.03-.39.13-.77.3-1.15.44-.81.3-1.63.57-2.46.83-2.08.66-4.18,1.24-6.29,1.78s-4.23,1.04-6.36,1.49c-.95.2-1.9.39-2.85.56-.4.07-.81.14-1.21.21-.27.04-1.61.23-.7.11-1.61.21-3,1.23-3,3,0,1.46,1.38,3.21,3,3h0Z"/><path class="cls-3" d="m142.17,198.11c-.72-.09.71.12-.05,0-.19-.03-.38-.06-.57-.09-.46-.07-.91-.15-1.37-.23-.93-.16-1.86-.34-2.79-.53-2.24-.46-4.48-.96-6.7-1.52s-4.25-1.1-6.34-1.74c-.9-.27-1.79-.56-2.67-.87-.36-.13-.72-.27-1.09-.4-.15-.06-.82-.37-.05-.01-.17-.08-.34-.15-.51-.23-1.47-.68-3.23-.42-4.1,1.08-.76,1.29-.4,3.42,1.08,4.1,3.84,1.77,8,2.84,12.09,3.86,4.31,1.07,8.66,2.02,13.07,2.59,1.61.21,3-1.53,3-3,0-1.79-1.39-2.79-3-3h0Z"/><path class="cls-3" d="m118.46,195.38l9.36-12s4.16-8-2.08-11c0,0-1.04-2-9.36-2h-.72c-8.32,0-9.36,2-9.36,2-6.24,3-2.08,11-2.08,11l9.36,12"/><path class="cls-4" d="m114.08,174.86c-.05-.2-.14-.4-.23-.59-.12-.28-.31-.51-.51-.74-.06-.07-.13-.14-.21-.21-.16-.14-.34-.28-.53-.39-.41-.24-.79-.32-1.25-.38-.22-.03-.44,0-.65.03-.03,0-.05-.02-.08-.03-.37-.08-.84-.08-1.16.15-.16.12-.34.24-.48.38-.15.14-.27.31-.39.48-.17.24-.28.52-.39.79-.1.27-.13.58-.16.87-.03.3.02.59.06.88.05.29.17.56.29.83.12.26.31.5.51.71.19.2.42.38.67.51.25.13.52.25.8.29.57.1,1.16.11,1.71-.09.26-.1.54-.21.77-.37.3-.22.51-.4.73-.69.39-.5.64-1.16.58-1.8-.02-.21-.04-.43-.09-.63Z"/><path class="cls-3" d="m190.05,109.07c3.26,4.53,8.43,7.36,14.01,7.63,1.74.08,1.73-2.62,0-2.7-4.56-.21-9-2.58-11.68-6.29-.43-.59-1.17-.88-1.85-.48-.58.34-.91,1.25-.48,1.85h0Z"/><path class="cls-3" d="m73.67,157.88s-16.5-.5-16.5-9.5,12-9,20.5-7.5c6.96,1.23,13,4,13,8,0,6-5,9-17,9Z"/><path class="cls-3" d="m158.43,157.88s16.75-.5,16.75-9.5c0-9-12.18-9-20.81-7.5-7.07,1.23-13.19,4-13.19,8,0,6,5.07,9,17.25,9Z"/><path class="cls-4" d="m68.57,143.53c-.05-.2-.14-.37-.27-.51-.11-.16-.25-.29-.42-.39-.12-.05-.24-.1-.36-.15-.06-.02-.12-.02-.18-.02-.18-.09-.37-.14-.57-.13-.21,0-.4.04-.58.13-.04.01-.08.04-.13.06-.11.04-.22.09-.33.14-.26.15-.52.41-.67.67-.16.28-.26.61-.25.93,0,.16.02.33.07.48.04.12.11.32.2.44.06.09.18.27.29.36.09.08.25.22.38.28.08.04.3.15.44.18.15.03.29.05.44.06.02,0,.04,0,.06,0,.02,0,.03,0,.05,0,.12-.01.29-.03.41-.06,0,0,.02,0,.03,0,.16-.04.31-.11.45-.18.01,0,.03-.02.04-.03.06-.04.12-.09.17-.13.05-.04.12-.09.17-.13.01-.01.03-.02.04-.04.1-.11.19-.23.27-.35.09-.13.16-.34.21-.46.02-.04.03-.08.04-.13.03-.17.07-.35.06-.52,0-.17-.03-.35-.07-.52Z"/><path class="cls-4" d="m156.57,143.53c-.05-.2-.14-.37-.27-.51-.11-.16-.25-.29-.42-.39-.12-.05-.24-.1-.36-.15-.06-.02-.12-.02-.18-.02-.18-.09-.37-.14-.57-.13-.21,0-.4.04-.58.13-.04.01-.08.04-.13.06-.11.04-.22.09-.33.14-.26.15-.52.41-.67.67-.16.28-.26.61-.25.93,0,.16.02.33.07.48.04.12.11.32.2.44.06.09.18.27.29.36.09.08.25.22.38.28.08.04.3.15.44.18.15.03.29.05.44.06.02,0,.04,0,.06,0,.02,0,.03,0,.05,0,.12-.01.29-.03.41-.06,0,0,.02,0,.03,0,.16-.04.31-.11.45-.18.01,0,.03-.02.04-.03.06-.04.12-.09.17-.13.05-.04.12-.09.17-.13.01-.01.03-.02.04-.04.1-.11.19-.23.27-.35.09-.13.16-.34.21-.46.02-.04.03-.08.04-.13.03-.17.07-.35.06-.52,0-.17-.03-.35-.07-.52Z"/><path class="cls-4" d="m55.17,129.38s6-2,18.97,6.24c1.02.65,2.02,1.31,3.15,1.76,3.26,1.28,9.6,2.72,13.89-3,0,0,5-9-8-13s-25,5-28,8Z"/><path class="cls-4" d="m166.73,119.67s-6.28-.75-17.32,9.93c-.87.84-1.72,1.69-2.73,2.35-2.94,1.91-8.85,4.59-14.21-.15,0,0-6.71-7.81,5.23-14.34,11.93-6.53,25.49-.12,29.04,2.21Z"/><path class="cls-3" d="m117.29,242.35c-.5-.92-1.21-1.67-2.05-2.29-.27-.19-.74-.22-1.04-.14-.31.09-.65.33-.81.62-.17.31-.25.69-.14,1.04.11.34.31.57.6.78-.03-.02-.06-.05-.1-.07.3.24.57.51.82.81.21.29.38.59.53.91.13.34.23.68.29,1.04,0,.09.02.18.02.28.03.7.6,1.38,1.35,1.35.7-.03,1.38-.59,1.35-1.35-.05-1.05-.32-2.06-.82-2.98Z"/><path class="cls-2" d="m121.55,214.95c-.63-.81-1.86-1.14-2.83-1.35-.64-.14-1.3-.21-1.95-.22-.17-.08-.35-.12-.55-.12-1.08,0-2.19.17-3.19.55-.59.22-1.15.51-1.49,1.07-.35.59-.39,1.36-.03,1.95.35.57.93.78,1.52,1,.51.19,1.02.37,1.54.52,1.02.31,2.09.53,3.15.56,1.02.03,2.25-.09,3.12-.68,1.06-.72,1.54-2.21.7-3.29Z"/></g></svg>