<?xml version="1.0" encoding="UTF-8"?><svg id="Layer_2" xmlns="http://www.w3.org/2000/svg" viewBox="0 0 727.28 36.27"><defs><style>.cls-1{stroke-width:0px;}</style></defs><g id="Layer_1-2"><path class="cls-1" d="m46.45.13H14.34L0,36.22l29.82.05c5.25,0,9.98-3.18,11.97-8.07l8.87-21.74c1.23-3.02-.97-6.33-4.21-6.33Zm-15.54,24.2h-15.81l5.59-12.25h15.89l-5.66,12.25Z"/><path class="cls-1" d="m83.41.34c-1.58,0-3,.97-3.59,2.45l-11.75,29.54c-.75,1.89.63,3.94,2.64,3.94h31.21c1.9,0,3.61-1.16,4.33-2.93L119.59.34h-36.18Zm15.73,24.09h-15.81l4.93-12.25h15.89l-5,12.25Z"/><path class="cls-1" d="m338.39.34c-1.58,0-3,.97-3.59,2.45l-11.75,29.54c-.75,1.89.63,3.94,2.64,3.94h31.21c1.9,0,3.61-1.16,4.33-2.93L374.57.34h-36.18Zm15.73,24.09h-15.81l4.93-12.25h15.89l-5,12.25Z"/><path class="cls-1" d="m163.54,15.4l-2.29,5.38h7.05c.6,0,.99.63.73,1.17l-2.51,5.17h-15.26l7.56-18.41h27.36L189.69.12h-35.9c-1.81,0-3.44,1.11-4.12,2.81l-13.22,33.28,37.13.06c.82,0,1.56-.5,1.87-1.26l8.2-20.1-19.27-.07c-.37,0-.71.22-.85.56Z"/><path class="cls-1" d="m251.17,8.83l3.51-8.6-31.28-.1c-1.51,0-2.87.92-3.43,2.33l-13.41,33.75,31.47.06c1.42,0,2.7-.87,3.23-2.2l2.08-6.26h-22.65l3.09-6.55h14.86l2.19-6.14h-14.52l2.63-6.41,22.24.11Z"/><path class="cls-1" d="m271.54,36.27L285.87.23h11.35l-9.61,24.18h18.38l-3.85,9.73c-.51,1.29-1.74,2.13-3.12,2.13h-27.49Z"/><path class="cls-1" d="m391.44,36.2l13.97-34.42c.44-1.08,1.48-1.78,2.63-1.78h4.93c2.04,0,3.92,1.09,4.95,2.86l8.15,13.99L432.93,0h11.57l-13.66,34.29c-.46,1.16-1.57,1.92-2.81,1.92h-5.18c-1.74,0-3.36-.89-4.3-2.37l-9.04-14.16-6.64,16.59-11.43-.06Z"/><polygon class="cls-1" points="461.37 36.27 474.41 0 487.17 0 492.78 10.33 505.4 0 518.62 0 505.79 36.27 492.54 36.27 499.53 15.84 487.36 25.75 481.81 15.19 474.16 36.27 461.37 36.27"/><path class="cls-1" d="m556.27,0c-8.42,0-9.95,5.74-9.95,5.74,0,0-10.84,30.15-10.84,30.53h12.82l3.63-8.77h13.5l-3.17,8.77h13.52L588.44,0h-32.17Zm12.62,18.24h-13.64l3.19-8.93h13.64l-3.19,8.93Z"/><path class="cls-1" d="m651.47.26h-32.9l-13.26,36.01h13.39l4.85-13.32h6.5l6.76,13.32h13.52l-6.76-13.32c7.01,0,9.31-5.87,9.31-5.87,0,0,1.15-3.7,3.32-10.33,2.17-6.63-4.72-6.5-4.72-6.5Zm-10.46,14.66h-14.47l1.91-5.61h14.47l-1.91,5.61Z"/><path class="cls-1" d="m676.91,27.29h27.03l1.66-4.59h-20.53s-6.63-.26-3.7-8.03l3.44-9.31s1.15-5.23,9.05-5.23h33.41l-3.19,8.93h-27.03l-1.79,4.34h20.28s6.38.64,4.46,6.12l-3.7,10.97s-1.79,5.79-9.31,5.79h-33.54l3.44-8.98Z"/></g></svg>