<?xml version="1.0" encoding="UTF-8"?><svg id="Layer_2" xmlns="http://www.w3.org/2000/svg" viewBox="0 0 681.33 68.51"><defs><style>.cls-1,.cls-2{stroke-width:0px;}.cls-2{fill:#fff;}</style></defs><g id="Layer_1-2"><path class="cls-1" d="m300.95.04c-8.08,20.08-15.8,39.31-23.56,58.53q-3.83,9.48-13.95,9.47c-19.15,0-38.31,0-57.46,0h-6c5.93-14.63,11.6-28.61,17.26-42.59,2.99-7.39,5.87-14.84,9.04-22.15.58-1.34,2.31-3.11,3.51-3.12C253.26,0,276.73.04,300.95.04Zm-20.56,29.5c-8.38,0-15.85,0-23.31,0-7.61,0-7.68.07-9.05,8.26h13.21c-2.43,3.7-3.93,8.51-6.1,8.83-6.9,1.02-14.05.38-21.72.38,3.31-8.14,6.42-15.46,9.24-22.9,1.06-2.81,2.64-3.69,5.58-3.64,10.65.16,21.32.16,31.97-.04,1.65-.03,4.01-.98,4.76-2.25,1.73-2.95,2.66-6.36,3.96-9.71-.83-.23-1.28-.46-1.73-.46-17.15-.03-34.3-.12-51.45.12-1.49.02-3.64,1.94-4.31,3.48-4.16,9.6-8.01,19.34-11.93,29.05-2.53,6.26-5.01,12.54-7.76,19.44,18.71,0,36.66.03,54.6-.1.93,0,2.31-1.24,2.72-2.22,3.74-9.04,7.3-18.15,11.32-28.23Z"/><path class="cls-2" d="m280.39,29.54c-4.01,10.08-7.58,19.19-11.32,28.23-.41.98-1.78,2.21-2.72,2.22-17.94.13-35.89.1-54.6.1,2.75-6.89,5.23-13.17,7.76-19.44,3.92-9.71,7.76-19.45,11.93-29.05.67-1.54,2.82-3.46,4.31-3.48,17.15-.24,34.3-.14,51.45-.12.45,0,.89.23,1.73.46-1.3,3.35-2.24,6.76-3.96,9.71-.75,1.28-3.11,2.22-4.76,2.25-10.65.2-21.31.2-31.97.04-2.94-.05-4.51.83-5.58,3.64-2.82,7.43-5.93,14.76-9.24,22.9,7.67,0,14.82.64,21.72-.38,2.16-.32,3.67-5.12,6.1-8.83h-13.21c1.37-8.19,1.45-8.26,9.05-8.26,7.47,0,14.93,0,23.31,0Z"/><path class="cls-1" d="m393.57.78c-3.47,8.54-6.88,17.16-10.57,25.65-.39.9-2.53,1.72-3.66,1.51-6.21-1.14-9.12,1.85-10.33,7.48-.31,1.42-1,2.75-1.69,4.57h10.53c-3.71,9.16-7.13,17.75-10.73,26.28-.34.81-1.71,1.68-2.6,1.69-21.27.09-42.55.07-64.46.07,4.99-12.44,9.71-24.3,14.49-36.13,3.86-9.56,7.7-19.13,11.75-28.61.57-1.34,2.31-3.1,3.53-3.11,20.83-.17,41.66-.09,62.49-.05.27,0,.54.27,1.27.65Zm-27.55,46.72h-32.12q2.43-9.16,10.95-9.16c2.66,0,5.33,0,7.99,0,7.56,0,7.91-.32,8.96-8.75h-20.32c1.4-8.91,1.56-9.05,9.44-9.05,7.49,0,14.98.08,22.47-.08,1.46-.03,3.65-.61,4.2-1.63,1.75-3.26,2.89-6.85,4.48-10.85-16.1,0-31.4-.09-46.69.15-1.35.02-3.27,1.9-3.91,3.35-3.02,6.83-5.68,13.83-8.48,20.75-3.66,9.04-7.32,18.07-11.29,27.84,16.52,0,32.25.02,47.99-.07.73,0,1.81-.88,2.13-1.62,1.42-3.3,2.61-6.7,4.21-10.89Z"/><path class="cls-2" d="m366.02,47.49c-1.59,4.19-2.79,7.59-4.21,10.89-.31.73-1.39,1.61-2.13,1.62-15.74.09-31.48.07-47.99.07,3.96-9.77,7.63-18.8,11.29-27.84,2.8-6.93,5.46-13.92,8.48-20.75.64-1.46,2.56-3.33,3.91-3.35,15.29-.24,30.59-.15,46.69-.15-1.59,4-2.73,7.59-4.48,10.85-.55,1.02-2.74,1.6-4.2,1.63-7.49.16-14.98.08-22.47.08-7.88,0-8.04.14-9.44,9.05h20.32c-1.06,8.43-1.41,8.75-8.96,8.75-2.66,0-5.33,0-7.99,0q-8.53,0-10.95,9.16h32.12Z"/><path class="cls-1" d="m620.9,53.43c-.62.9-.97,1.27-1.17,1.72-1.88,4.21-2.66,10.08-5.9,12.2-3.3,2.15-9.01.65-13.67.68-6.15.04-12.3,0-19.17,0,9.27-22.96,18.34-45.42,27.46-68,7.55,0,14.88-.14,22.2.12,1.42.05,3.21,1.41,4.1,2.68,2.53,3.61,4.68,7.49,7.52,12.14,1.89-4.57,3.17-8.32,5.01-11.77.74-1.39,2.68-3,4.11-3.04,9.82-.26,19.64-.14,29.94-.14-.31,1.36-.41,2.45-.8,3.42-8.04,20.07-16.18,40.1-24.09,60.23-1.29,3.29-2.88,4.65-6.51,4.44-5.65-.33-11.34.11-16.99-.21-1.63-.09-3.69-1.27-4.66-2.6-2.62-3.62-4.77-7.58-7.39-11.87Zm-28.26,6.67c4.89,0,8.89-.21,12.85.07,3.07.22,4.32-1.04,5.35-3.79,2.51-6.75,5.4-13.36,8.23-20.24.79.7,1.11.87,1.27,1.13,3.99,6.52,8.13,12.96,11.86,19.62,1.46,2.61,3.18,3.27,5.96,3.27,10.95,0,10.95.07,15.09-10.01.19-.46.38-.92.56-1.38,5.39-13.37,10.77-26.73,16.44-40.8-4.76,0-8.87.21-12.95-.07-2.85-.19-4.09.93-5.05,3.47-2.6,6.88-5.47,13.65-8.56,21.26-3.42-5.59-7.08-10.1-9.13-15.25-3.36-8.42-9.2-10.82-17.47-9.42-.49.08-1.1-.15-1.48.06-.9.52-2.13,1.04-2.48,1.88-6.77,16.39-13.43,32.83-20.49,50.21Z"/><path class="cls-2" d="m592.65,60.11c7.07-17.38,13.73-33.82,20.49-50.21.34-.83,1.57-1.36,2.48-1.88.38-.22.99.02,1.48-.06,8.27-1.39,14.11,1,17.47,9.42,2.05,5.15,5.71,9.65,9.13,15.25,3.09-7.61,5.96-14.39,8.56-21.26.96-2.54,2.2-3.66,5.05-3.47,4.08.28,8.19.07,12.95.07-5.67,14.07-11.05,27.43-16.44,40.8-.19.46-.38.92-.56,1.38-4.15,10.08-4.15,10-15.09,10.01-2.77,0-4.5-.67-5.96-3.27-3.73-6.66-7.87-13.1-11.86-19.62-.16-.26-.47-.43-1.27-1.13-2.83,6.88-5.72,13.49-8.23,20.24-1.02,2.75-2.27,4.01-5.35,3.79-3.96-.28-7.96-.07-12.85-.07Z"/><path class="cls-1" d="m453.91.19c-4.74,11.76-9.25,22.95-13.98,34.7h26.95c-1.95,4.88-3.64,9.08-5.31,13.3-2.21,5.57-4.26,11.2-6.69,16.66-.6,1.34-2.4,3.04-3.67,3.05-19.15.19-38.3.13-58.19.13,9.25-22.92,18.31-45.36,27.39-67.85h33.51Zm-11.62,7.78c-4.71,0-8.53.2-12.33-.06-3.14-.22-4.65.88-5.8,3.88-4.02,10.54-8.39,20.94-12.62,31.4-2.2,5.45-4.4,10.9-6.82,16.91,14.37,0,27.83.04,41.28-.08,1.04,0,2.62-.92,3.01-1.82,2.11-4.82,3.92-9.76,6.09-15.3h-26.87c4.73-11.77,9.23-22.95,14.05-34.93Z"/><path class="cls-2" d="m442.28,7.97c-4.82,11.98-9.32,23.16-14.05,34.93h26.87c-2.16,5.54-3.98,10.48-6.09,15.3-.39.9-1.97,1.81-3.01,1.82-13.45.12-26.91.08-41.28.08,2.42-6.01,4.62-11.46,6.82-16.91,4.23-10.46,8.6-20.86,12.62-31.4,1.15-3,2.65-4.1,5.8-3.88,3.79.26,7.62.06,12.33.06Z"/><path class="cls-1" d="m127.38.25h73.46c-3.21,7.94-6.27,15.43-9.28,22.94-5.51,13.74-11.03,27.47-16.46,41.24-.95,2.4-2.03,3.69-4.99,3.67-22.5-.14-45-.08-67.5-.09-.64,0-1.27-.14-2.49-.28C109.29,45.03,118.36,22.58,127.38.25Zm61.58,8.43c-.68-.36-.95-.64-1.23-.64-17.47-.04-34.94-.12-52.41.06-1.28.01-3.12,1.63-3.71,2.95-2.64,5.91-4.92,11.98-7.34,17.98-4.08,10.11-8.18,20.22-12.58,31.07,2.39,0,3.99,0,5.59,0,12.81,0,25.62,0,38.44,0,12.44,0,12.48.02,17.12-11.39,5.42-13.34,10.77-26.72,16.13-40.04Z"/><path class="cls-2" d="m188.96,8.68c-5.36,13.32-10.71,26.7-16.13,40.04-4.64,11.4-4.68,11.39-17.12,11.39-12.81,0-25.62,0-38.44,0-1.6,0-3.2,0-5.59,0,4.39-10.85,8.49-20.96,12.58-31.07,2.43-6.01,4.7-12.08,7.34-17.98.59-1.32,2.43-2.94,3.71-2.95,17.47-.18,34.94-.1,52.41-.06.27,0,.55.27,1.23.64Zm-23.18,16.36c-7.59,0-14.22-.05-20.84.05-.98.02-2.53.51-2.84,1.22-2.36,5.35-4.48,10.81-6.85,16.65,7.25,0,13.72.12,20.18-.1,1.32-.04,3.29-.99,3.8-2.06,2.31-4.9,4.21-9.99,6.56-15.77Z"/><path class="cls-1" d="m165.78,25.04c-2.35,5.77-4.25,10.87-6.56,15.77-.51,1.08-2.47,2.02-3.8,2.06-6.46.21-12.93.1-20.18.1,2.36-5.84,4.48-11.3,6.85-16.65.31-.71,1.86-1.2,2.84-1.22,6.63-.11,13.26-.05,20.84-.05Z"/><path class="cls-1" d="m480.99,68.03c6.91-17.08,13.51-33.39,20.11-49.7,2.06-5.09,3.97-10.24,6.26-15.22.6-1.31,2.39-2.93,3.64-2.94,23.32-.18,46.64-.13,70.76-.13-.91,2.43-1.61,4.38-2.38,6.31-7.68,19.14-15.31,38.3-23.16,57.37-.72,1.75-2.88,4.12-4.4,4.14-23.32.26-46.65.18-70.84.18Zm88.96-59.3c-.62-.38-.88-.68-1.15-.68-17.47-.04-34.94-.14-52.41.07-1.35.02-3.32,1.88-3.92,3.34-6.26,15.02-12.3,30.13-18.37,45.22-.39.96-.5,2.04-.83,3.42,15.62,0,30.75,0,45.89,0,9.99,0,10.05.02,13.72-9.02,5.74-14.12,11.4-28.27,17.07-42.35Z"/><path class="cls-2" d="m569.94,8.73c-5.67,14.08-11.33,28.23-17.07,42.35-3.68,9.04-3.73,9.02-13.72,9.02-15.13,0-30.26,0-45.89,0,.33-1.38.44-2.46.83-3.42,6.07-15.1,12.12-30.2,18.37-45.22.61-1.45,2.57-3.32,3.92-3.34,17.47-.2,34.94-.11,52.41-.07.26,0,.52.3,1.15.68Zm-53.72,34.23c7.26,0,13.88.07,20.5-.07,1.13-.02,2.9-.61,3.27-1.43,2.35-5.23,4.38-10.6,6.66-16.28h-23.23c-2.35,5.79-4.69,11.56-7.2,17.77Z"/><path class="cls-1" d="m516.22,42.96c2.52-6.21,4.86-11.99,7.2-17.77h23.23c-2.28,5.68-4.32,11.05-6.66,16.28-.37.82-2.14,1.41-3.27,1.43-6.62.13-13.24.07-20.5.07Z"/><path class="cls-1" d="m0,68.04C9.3,45.02,18.35,22.6,27.46.04,46.81.04,65.94,0,85.06.14c1.32,0,2.95,1.13,3.88,2.21,5.78,6.69,7.24,13.49,2.59,21.98-4.52,8.24-7.55,17.34-10.84,26.21-1.7,4.57-4.54,7.65-8.29,10.68-6.41,5.18-13.09,7.33-21.42,7-15.28-.61-30.61-.17-45.92-.17-1.45,0-2.9,0-5.06,0Zm11.75-7.93c15.39,0,30.01.29,44.6-.12,7.22-.2,13.03-4.58,16.01-10.78,5.03-10.44,8.95-21.43,13.23-32.23,1.92-4.83-.92-8.99-6.04-9-14.31-.03-28.61.08-42.92-.08-3-.03-4.35,1.03-5.4,3.73-3.72,9.59-7.71,19.08-11.56,28.63-2.59,6.41-5.12,12.84-7.92,19.86Z"/><path class="cls-2" d="m11.75,60.11c2.8-7.02,5.33-13.45,7.92-19.86,3.85-9.54,7.84-19.03,11.56-28.63,1.05-2.7,2.4-3.76,5.4-3.73,14.3.16,28.61.05,42.92.08,5.13.01,7.96,4.17,6.04,9-4.29,10.8-8.2,21.78-13.23,32.23-2.98,6.2-8.79,10.57-16.01,10.78-14.6.41-29.21.12-44.6.12Zm23.47-17.14c7.26,0,13.88.07,20.5-.07,1.13-.02,2.9-.61,3.27-1.43,2.35-5.23,4.38-10.6,6.66-16.28h-23.23c-2.35,5.79-4.69,11.56-7.2,17.77Z"/><path class="cls-1" d="m35.22,42.96c2.52-6.21,4.86-11.99,7.2-17.77h23.23c-2.28,5.68-4.32,11.05-6.66,16.28-.37.82-2.14,1.41-3.27,1.43-6.62.13-13.24.07-20.5.07Z"/></g></svg>