<?xml version="1.0" encoding="UTF-8"?><svg id="Layer_2" xmlns="http://www.w3.org/2000/svg" viewBox="0 0 658.5 52.62"><defs><style>.cls-1{fill:red;stroke-width:0px;}</style></defs><g id="Layer_1-2"><path class="cls-1" d="m268.64,21.96c-4.01,10.08-7.58,19.19-11.32,28.23-.41.98-1.78,2.21-2.72,2.22-17.94.13-35.89.1-54.6.1,2.75-6.89,5.23-13.17,7.76-19.44,3.92-9.71,7.76-19.45,11.93-29.05.67-1.54,2.82-3.46,4.31-3.48,17.15-.24,34.3-.14,51.45-.12.45,0,.89.23,1.73.46-1.3,3.35-2.24,6.76-3.96,9.71-.75,1.28-3.11,2.22-4.76,2.25-10.65.2-21.31.2-31.97.04-2.94-.05-4.51.83-5.58,3.64-2.82,7.43-5.93,14.76-9.24,22.9,7.67,0,14.82.64,21.72-.38,2.16-.32,3.67-5.12,6.1-8.83h-13.21c1.37-8.19,1.45-8.26,9.05-8.26,7.47,0,14.93,0,23.31,0Z"/><path class="cls-1" d="m354.27,39.91c-1.59,4.19-2.79,7.59-4.21,10.89-.31.73-1.39,1.61-2.13,1.62-15.74.09-31.48.07-47.99.07,3.96-9.77,7.63-18.8,11.29-27.84,2.8-6.93,5.46-13.92,8.48-20.75.64-1.46,2.56-3.33,3.91-3.35,15.29-.24,30.59-.15,46.69-.15-1.59,4-2.73,7.59-4.48,10.85-.55,1.02-2.74,1.6-4.2,1.63-7.49.16-14.98.08-22.47.08-7.88,0-8.04.14-9.44,9.05h20.32c-1.06,8.43-1.41,8.75-8.96,8.75-2.66,0-5.33,0-7.99,0q-8.53,0-10.95,9.16h32.12Z"/><path class="cls-1" d="m580.89,52.52c7.07-17.38,13.73-33.82,20.49-50.21.34-.83,1.57-1.36,2.48-1.88.38-.22.99.02,1.48-.06,8.27-1.39,14.11,1,17.47,9.42,2.05,5.15,5.71,9.65,9.13,15.25,3.09-7.61,5.96-14.39,8.56-21.26.96-2.54,2.2-3.66,5.05-3.47,4.08.28,8.19.07,12.95.07-5.67,14.07-11.05,27.43-16.44,40.8-.19.46-.38.92-.56,1.38-4.15,10.08-4.15,10-15.09,10.01-2.77,0-4.5-.67-5.96-3.27-3.73-6.66-7.87-13.1-11.86-19.62-.16-.26-.47-.43-1.27-1.13-2.83,6.88-5.72,13.49-8.23,20.24-1.02,2.75-2.27,4.01-5.35,3.79-3.96-.28-7.96-.07-12.85-.07Z"/><path class="cls-1" d="m430.53.38c-4.82,11.98-9.32,23.16-14.05,34.93h26.87c-2.16,5.54-3.98,10.48-6.09,15.3-.39.9-1.97,1.81-3.01,1.82-13.45.12-26.91.08-41.28.08,2.42-6.01,4.62-11.46,6.82-16.91,4.23-10.46,8.6-20.86,12.62-31.4,1.15-3,2.65-4.1,5.8-3.88,3.79.26,7.62.06,12.33.06Z"/><path class="cls-1" d="m177.21,1.09c-5.36,13.32-10.71,26.7-16.13,40.04-4.64,11.4-4.68,11.39-17.12,11.39-12.81,0-25.62,0-38.44,0-1.6,0-3.2,0-5.59,0,4.39-10.85,8.49-20.96,12.58-31.07,2.43-6.01,4.7-12.08,7.34-17.98.59-1.32,2.43-2.94,3.71-2.95,17.47-.18,34.94-.1,52.41-.06.27,0,.55.27,1.23.64Zm-23.18,16.36c-7.59,0-14.22-.05-20.84.05-.98.02-2.53.51-2.84,1.22-2.36,5.35-4.48,10.81-6.85,16.65,7.25,0,13.72.12,20.18-.1,1.32-.04,3.29-.99,3.8-2.06,2.31-4.9,4.21-9.99,6.56-15.77Z"/><path class="cls-1" d="m558.19,1.15c-5.67,14.08-11.33,28.23-17.07,42.35-3.68,9.04-3.73,9.02-13.72,9.02-15.13,0-30.26,0-45.89,0,.33-1.38.44-2.46.83-3.42,6.07-15.1,12.12-30.2,18.37-45.22.61-1.45,2.57-3.32,3.92-3.34,17.47-.2,34.94-.11,52.41-.07.26,0,.52.3,1.15.68Zm-53.72,34.23c7.26,0,13.88.07,20.5-.07,1.13-.02,2.9-.61,3.27-1.43,2.35-5.23,4.38-10.6,6.66-16.28h-23.23c-2.35,5.79-4.69,11.56-7.2,17.77Z"/><path class="cls-1" d="m0,52.52c2.8-7.02,5.33-13.45,7.92-19.86,3.85-9.54,7.84-19.03,11.56-28.63,1.05-2.7,2.4-3.76,5.4-3.73,14.3.16,28.61.05,42.92.08,5.13.01,7.96,4.17,6.04,9-4.29,10.8-8.2,21.78-13.23,32.23-2.98,6.2-8.79,10.57-16.01,10.78-14.6.41-29.21.12-44.6.12Zm23.47-17.14c7.26,0,13.88.07,20.5-.07,1.13-.02,2.9-.61,3.27-1.43,2.35-5.23,4.38-10.6,6.66-16.28h-23.23c-2.35,5.79-4.69,11.56-7.2,17.77Z"/></g></svg>