<?xml version="1.0" encoding="UTF-8"?><svg id="Layer_2" xmlns="http://www.w3.org/2000/svg" viewBox="0 0 975.39 42.3"><defs><style>.cls-1{fill:#ed1c24;}.cls-1,.cls-2{stroke-width:0px;}.cls-2{fill:#fff;}</style></defs><g id="Layer_1-2"><path class="cls-2" d="m2.21,40.73L17.74,1.64h33.13c2.01,0,3.88,1,5.01,2.68,1.14,1.69,1.36,3.83.58,5.72l-8.87,21.74c-2.23,5.47-7.47,9-13.34,9l-32.05-.06Zm32.16-14.89l4.27-9.25h-12.58l-4.22,9.25h12.52Z"/><path class="cls-1" d="m50.87,3.14c3.24,0,5.44,3.31,4.21,6.33l-8.87,21.74c-1.99,4.88-6.71,8.07-11.95,8.07h-.02l-29.82-.05L18.75,3.14h32.11m-31.35,24.2h15.81l5.66-12.25h-15.89l-5.58,12.25M50.87.14H16.72l-.75,1.89L1.63,38.13l-1.63,4.1h4.41s29.82.06,29.82.06c6.51,0,12.29-3.9,14.75-9.94l8.87-21.74c.96-2.35.69-5.02-.73-7.12-1.41-2.09-3.74-3.34-6.26-3.34h0Zm-23.84,17.94h9.27l-2.89,6.25h-9.23l2.85-6.25h0Z"/><path class="cls-2" d="m75.14,40.79c-1.44,0-2.78-.71-3.59-1.91-.82-1.21-.98-2.73-.44-4.09l11.75-29.54c.82-2.06,2.77-3.39,4.98-3.39h38.41l-14.16,35.05c-.95,2.35-3.19,3.87-5.72,3.87h-31.21Zm27.41-14.84l3.77-9.25h-12.64l-3.72,9.25h12.59Z"/><path class="cls-1" d="m124.01,3.36l-13.33,32.99c-.72,1.77-2.43,2.93-4.33,2.93h-31.21c-2.02,0-3.4-2.05-2.64-3.94l11.75-29.54c.59-1.48,2.01-2.45,3.59-2.45h36.18m-36.27,24.09h15.81l5-12.25h-15.89l-4.93,12.25M128.45.36h-40.63c-2.82,0-5.33,1.7-6.37,4.34l-11.75,29.54c-.72,1.82-.5,3.87.6,5.48,1.09,1.61,2.9,2.57,4.83,2.57h31.21c3.14,0,5.93-1.89,7.11-4.81l13.33-32.99,1.67-4.12h0Zm-33.76,17.84h9.4l-2.55,6.25h-9.36l2.51-6.25h0Z"/><path class="cls-2" d="m330.12,40.79c-1.44,0-2.78-.71-3.59-1.91-.82-1.21-.99-2.73-.45-4.09l11.75-29.54c.82-2.06,2.77-3.39,4.98-3.39h38.41l-14.16,35.05c-.95,2.35-3.19,3.87-5.72,3.87h-31.22Zm27.41-14.84l3.77-9.25h-12.64l-3.72,9.25h12.59Z"/><path class="cls-1" d="m378.99,3.36l-13.33,32.99c-.72,1.77-2.43,2.93-4.33,2.93h-31.21c-2.02,0-3.4-2.05-2.64-3.94l11.75-29.54c.59-1.48,2.01-2.45,3.59-2.45h36.18m-36.27,24.09h15.81l5-12.25h-15.89l-4.93,12.25M383.44.36h-40.63c-2.82,0-5.33,1.7-6.37,4.34l-11.75,29.54c-.72,1.82-.5,3.87.6,5.48,1.09,1.61,2.9,2.57,4.83,2.57h31.21c3.14,0,5.93-1.89,7.11-4.81l13.33-32.99,1.67-4.12h0Zm-33.76,17.84h9.4l-2.55,6.25h-9.36l2.51-6.25h0Z"/><path class="cls-2" d="m848.16,40.79c-1.44,0-2.78-.71-3.59-1.91-.82-1.21-.98-2.73-.44-4.09l11.75-29.54c.82-2.06,2.77-3.39,4.98-3.39h38.41l-14.16,35.05c-.95,2.35-3.19,3.87-5.72,3.87h-31.21Zm27.41-14.84l3.77-9.25h-12.64l-3.72,9.25h12.59Z"/><path class="cls-1" d="m897.03,3.36l-13.33,32.99c-.72,1.77-2.43,2.93-4.33,2.93h-31.21c-2.02,0-3.4-2.05-2.64-3.94l11.75-29.54c.59-1.48,2.01-2.45,3.59-2.45h36.18m-36.27,24.09h15.81l5-12.25h-15.89l-4.93,12.25M901.48.36h-40.63c-2.82,0-5.33,1.7-6.37,4.34l-11.75,29.54c-.72,1.82-.5,3.87.6,5.48,1.09,1.61,2.9,2.57,4.83,2.57h31.21c3.14,0,5.93-1.89,7.11-4.81l13.33-32.99,1.67-4.12h0Zm-33.76,17.84h9.4l-2.55,6.25h-9.36l2.51-6.25h0Z"/><path class="cls-2" d="m138.66,40.72l14.04-35.33c.91-2.28,3.07-3.75,5.51-3.75h38.13l-4.73,11.6h-27.36l-6.33,15.41h12.08l1.62-3.35h-8.22l3.17-7.47c.38-.9,1.26-1.48,2.23-1.48l21.5.08-9.04,22.16c-.54,1.33-1.82,2.2-3.26,2.2l-39.34-.07Z"/><path class="cls-1" d="m194.11,3.13l-3.51,8.6h-27.36l-7.56,18.41h15.26l2.51-5.17c.26-.54-.13-1.17-.73-1.17h-7.05l2.29-5.38c.15-.34.48-.56.85-.56h0l19.27.07-8.2,20.1c-.31.76-1.05,1.26-1.87,1.26h0l-37.13-.06,13.22-33.28c.67-1.7,2.3-2.81,4.12-2.81h35.9m4.46-3h-40.37c-3.06,0-5.77,1.85-6.9,4.7l-13.22,33.28-1.63,4.1h4.41s37.13.07,37.13.07c2.06,0,3.88-1.23,4.66-3.13l8.2-20.1,1.68-4.12-4.45-.02-19.27-.07c-1.59,0-3.01.94-3.62,2.39l-2.29,5.38-1.77,4.17h8.09l-.17.35h-8.9l5.1-12.41h27.36l.76-1.87,3.51-8.6,1.69-4.13h0Z"/><path class="cls-2" d="m208.76,40.72l14.22-35.8c.79-1.99,2.68-3.28,4.81-3.28l33.52.11-4.73,11.6-22.24-.11-1.4,3.4h14.41l-3.25,9.14h-14.96l-1.67,3.55h22.36l-2.74,8.23c-.79,1.99-2.6,3.22-4.64,3.22l-33.68-.06Z"/><path class="cls-1" d="m227.8,3.15h.01l31.28.1-3.51,8.6-22.24-.11-2.63,6.41h14.52l-2.19,6.14h-14.86l-3.09,6.55h22.65l-2.08,6.26c-.53,1.33-1.8,2.2-3.22,2.2h0l-31.47-.06,13.41-33.75c.56-1.41,1.91-2.33,3.42-2.33m0-3c-2.75,0-5.19,1.66-6.2,4.22l-13.41,33.75-1.63,4.1h4.41s31.47.07,31.47.07c2.67,0,5.03-1.6,6.02-4.09l.03-.08.03-.08,2.08-6.26,1.31-3.95h-22.07l.26-.55h15.07l.71-1.99,2.19-6.14,1.43-4.01h-14.3l.16-.4,20.21.1h2.03s.77-1.87.77-1.87l3.51-8.6,1.68-4.12h-4.45s-31.28-.12-31.28-.12h-.02Z"/><path class="cls-2" d="m289.27,1.75h14.58l-9.61,24.18h18.37l-4.66,11.78c-.74,1.87-2.51,3.08-4.51,3.08h-29.7s15.52-39.04,15.52-39.04Z"/><path class="cls-1" d="m301.64,3.25l-9.61,24.18h18.38l-3.85,9.73c-.51,1.29-1.74,2.13-3.12,2.13h-27.49s14.33-36.04,14.33-36.04h11.35m4.42-3h-17.81l-.75,1.89-14.33,36.04-1.63,4.11h4.42s27.49,0,27.49,0c2.62,0,4.94-1.58,5.9-4.03l3.85-9.73,1.62-4.1h-18.37l7.98-20.07,1.63-4.11h0Z"/><path class="cls-2" d="m393.63,40.71l14.8-36.47c.67-1.65,2.25-2.72,4.02-2.72h4.93c2.56,0,4.95,1.38,6.25,3.6l6.62,11.35,6.08-14.95h14.79l-14.48,36.34c-.69,1.74-2.34,2.86-4.21,2.86h-5.18c-2.26,0-4.34-1.14-5.57-3.06l-7.47-11.7-5.94,14.82-14.66-.08Z"/><path class="cls-1" d="m448.92,3.02l-13.66,34.29c-.46,1.16-1.57,1.92-2.81,1.92h-5.18c-1.74,0-3.36-.89-4.3-2.37l-9.04-14.16-6.64,16.59-11.43-.06,13.97-34.42c.44-1.08,1.48-1.78,2.63-1.78h4.93c2.04,0,3.92,1.09,4.95,2.86l8.15,13.99,6.85-16.84h11.57M453.34.02h-18.02l-.76,1.87-4.55,11.19-5.08-8.72c-1.56-2.68-4.45-4.34-7.54-4.34h-4.93c-2.39,0-4.51,1.43-5.41,3.65l-13.97,34.42-1.67,4.1,4.43.02,11.43.06h2.04s.76-1.88.76-1.88l4.47-11.17,5.9,9.24c1.5,2.35,4.05,3.75,6.83,3.75h5.18c2.48,0,4.68-1.49,5.6-3.81l13.66-34.29,1.64-4.11h0Z"/><polygon class="cls-2" points="494.86 40.79 500.83 23.33 491.31 31.09 486.48 21.91 479.63 40.79 463.65 40.79 477.78 1.52 492.48 1.52 497.65 11.04 509.28 1.52 525.16 1.52 511.26 40.79 494.86 40.79"/><path class="cls-1" d="m523.04,3.02l-12.83,36.27h-13.25l6.99-20.43-12.17,9.91-5.56-10.56-7.65,21.08h-12.8l13.05-36.27h12.75l5.61,10.33,12.62-10.33h13.22m4.24-3h-18.53l-.83.68-9.82,8.03-3.88-7.14-.85-1.57h-16.65l-.71,1.98-13.05,36.27-1.44,4.02h19.17l.72-1.98,5.33-14.7,2.4,4.56,1.71,3.25,2.84-2.32,4.04-3.29-3.6,10.51-1.36,3.97h19.56l.71-2,12.83-36.27,1.42-4h0Z"/><polygon class="cls-2" points="942.97 40.79 948.94 23.33 939.42 31.09 934.59 21.91 927.74 40.79 911.76 40.79 925.88 1.52 940.59 1.52 945.76 11.04 957.39 1.52 973.27 1.52 959.37 40.79 942.97 40.79"/><path class="cls-1" d="m971.15,3.02l-12.83,36.27h-13.25l6.99-20.43-12.17,9.91-5.56-10.56-7.65,21.08h-12.8l13.05-36.27h12.75l5.61,10.33,12.62-10.33h13.22m4.24-3h-18.53l-.83.68-9.82,8.03-3.88-7.14-.85-1.57h-16.65l-.71,1.98-13.05,36.27-1.44,4.02h19.17l.72-1.98,5.33-14.7,2.4,4.56,1.71,3.25,2.84-2.32,4.04-3.29-3.6,10.51-1.36,3.97h19.56l.71-2,12.83-36.27,1.42-4h0Z"/><path class="cls-2" d="m564.54,40.79l3.17-8.77h-10.36l-3.62,8.77h-15.33v-1.5c0-.35,0-.65,10.91-31,.24-.8,2.36-6.77,11.37-6.77h34.29l-13.71,39.27h-16.72Zm7.71-21.03l2.12-5.93h-10.46l-2.12,5.93h10.46Z"/><path class="cls-1" d="m592.86,3.02l-12.66,36.27h-13.52l3.17-8.77h-13.5l-3.63,8.77h-12.82c0-.38,10.84-30.53,10.84-30.53,0,0,1.53-5.74,9.95-5.74h32.17m-33.19,18.24h13.64l3.19-8.93h-13.64l-3.19,8.93M597.08.02h-36.4c-9.79,0-12.38,6.52-12.79,7.77-11,30.59-11,30.8-11,31.5v3h17.83l.77-1.85,2.86-6.92h7.22l-1.72,4.75-1.45,4.02h19.92l.7-2.01,12.66-36.27,1.39-3.99h0Zm-32.12,15.31h7.27l-1.05,2.93h-7.27l1.05-2.93h0Z"/><polygon class="cls-2" points="746.58 40.79 750.34 27.52 765.9 27.52 762.14 40.79 746.58 40.79"/><path class="cls-1" d="m763.92,29.02l-2.91,10.26h-12.45l2.91-10.26h12.45m3.97-3h-18.68l-.62,2.18-2.91,10.26-1.08,3.82h18.68l.62-2.18,2.91-10.26,1.08-3.82h0Z"/><path class="cls-2" d="m640.3,40.79l-6.76-13.32h-4.53l-4.85,13.32h-16.59l14.37-39.01h33.95c.67,0,3.95.12,5.67,2.49,1.11,1.53,1.27,3.54.47,5.98-2.14,6.54-3.3,10.27-3.31,10.31l-.04.1c-.1.25-2.23,5.51-8.36,6.62l6.86,13.52h-16.88Zm4.06-24.35l.89-2.61h-11.3l-.89,2.61h11.3Z"/><path class="cls-1" d="m655.91,3.27c.47,0,6.78.12,4.69,6.5-2.17,6.63-3.32,10.33-3.32,10.33,0,0-2.3,5.87-9.31,5.87l6.76,13.32h-13.52l-6.76-13.32h-6.5l-4.85,13.32h-13.39l13.26-36.01h32.9s0,0,.03,0m-24.96,14.66h14.47l1.91-5.61h-14.47l-1.91,5.61M655.91.27h-.04s-32.89,0-32.89,0h-2.09l-.72,1.96-13.26,36.01-1.49,4.04h19.79l.72-1.97,4.13-11.34h2.56l5.93,11.67.83,1.64h20.25l-2.21-4.36-4.91-9.68c5.49-1.88,7.48-6.8,7.58-7.05l.04-.1.03-.1s1.17-3.76,3.3-10.29c1.19-3.64.29-5.99-.68-7.33-2.15-2.96-6.09-3.11-6.86-3.11h0Z"/><path class="cls-2" d="m675.7,40.79l4.59-11.98h27.01l.58-1.59h-18.39c-.19,0-3.35-.16-5.01-2.65-1.22-1.84-1.26-4.34-.1-7.41l3.41-9.23c.25-.93,2.08-6.28,10.49-6.28h35.54l-4.26,11.93h-27.09l-.55,1.34h18.19c.38.05,3.79.45,5.39,2.97.63.98,1.2,2.68.34,5.14l-3.69,10.95c-.72,2.33-3.9,6.81-10.73,6.81h-35.72Z"/><path class="cls-1" d="m731.7,3.14l-3.19,8.93h-27.03l-1.79,4.34h20.28s6.38.64,4.46,6.12l-3.7,10.97s-1.79,5.79-9.31,5.79h-33.54l3.44-8.98h27.03l1.66-4.59h-20.53s-6.63-.26-3.7-8.03l3.44-9.31s1.15-5.23,9.05-5.23h33.41m4.26-3h-37.67c-9.16,0-11.48,5.86-11.9,7.29l-3.41,9.21c-1.33,3.54-1.25,6.49.26,8.75.55.82,1.21,1.44,1.9,1.91h-5.87l-.74,1.93-3.44,8.98-1.56,4.07h37.9c9.23,0,11.86-6.98,12.15-7.83h0s3.7-10.97,3.7-10.97c1.05-3.01.31-5.15-.5-6.42-.54-.85-1.23-1.5-1.96-2h5.81l.71-1.99,3.19-8.93,1.43-4.01h0Z"/><path class="cls-2" d="m785.15,40.79h-.07c-.14-.02-3.42-.33-5-2.88-1.05-1.68-1.08-3.82-.09-6.36l8.75-23.67c.09-.25,2.35-6.26,9.94-6.26l31.87-.12-4.53,12.96h-23.16l-5.13,13.53h23.13l-4.14,12.79h-31.59Z"/><path class="cls-1" d="m828.44,3.02l-3.48,9.95h-23.13l-6.27,16.53h23.24l-3.17,9.79h-30.43s-6.4-.56-3.82-7.19l8.76-23.69s1.91-5.28,8.53-5.28l29.76-.11m4.23-3.02l-4.24.02-29.76.11c-8.62,0-11.24,6.96-11.34,7.26l-8.74,23.65c-1.44,3.72-.68,6.22.22,7.67,1.94,3.12,5.72,3.53,6.14,3.57h.13s.13.01.13.01h32.61l.67-2.08,3.17-9.79,1.27-3.92h-23.02l3.99-10.53h23.19l.7-2.01,3.48-9.95,1.4-4.01h0Z"/></g></svg>