<?xml version="1.0" encoding="UTF-8"?><svg id="Layer_2" xmlns="http://www.w3.org/2000/svg" viewBox="0 0 321.95 42.21"><defs><style>.cls-1{fill:#fff;stroke-width:0px;}</style></defs><g id="Layer_1-2"><path class="cls-1" d="m136.77,13.67c-2.42,6.09-4.57,11.58-6.83,17.04-.24.59-1.08,1.34-1.64,1.34-10.83.08-21.66.06-32.95.06,1.66-4.16,3.15-7.95,4.68-11.73,2.37-5.86,4.69-11.74,7.2-17.53.4-.93,1.7-2.09,2.6-2.1,10.35-.14,20.7-.09,31.05-.07.27,0,.54.14,1.04.28-.79,2.02-1.35,4.08-2.39,5.86-.45.77-1.88,1.34-2.87,1.36-6.43.12-12.86.12-19.29.02-1.77-.03-2.72.5-3.36,2.2-1.7,4.49-3.58,8.91-5.57,13.82,4.63,0,8.94.39,13.11-.23,1.31-.19,2.21-3.09,3.68-5.33h-7.97c.83-4.94.87-4.98,5.46-4.98,4.51,0,9.01,0,14.07,0Z"/><path class="cls-1" d="m172.15,34.61c-.96,2.53-1.68,4.58-2.54,6.57-.19.44-.84.97-1.28.98-9.5.06-19,.04-28.96.04,2.39-5.9,4.61-11.35,6.81-16.8,1.69-4.18,3.29-8.4,5.12-12.53.39-.88,1.54-2.01,2.36-2.02,9.23-.14,18.46-.09,28.18-.09-.96,2.41-1.65,4.58-2.71,6.55-.33.62-1.65.96-2.53.98-4.52.1-9.04.05-13.56.05-4.76,0-4.85.09-5.69,5.46h12.26c-.64,5.09-.85,5.28-5.41,5.28-1.61,0-3.21,0-4.82,0q-5.14,0-6.61,5.53h19.39Z"/><path class="cls-1" d="m275.12,32.11c4.27-10.49,8.28-20.41,12.37-30.3.21-.5.95-.82,1.49-1.13.23-.13.6.01.89-.04,4.99-.84,8.52.6,10.54,5.69,1.24,3.11,3.44,5.83,5.51,9.2,1.86-4.59,3.6-8.68,5.17-12.83.58-1.53,1.33-2.21,3.05-2.09,2.46.17,4.94.04,7.81.04-3.42,8.49-6.67,16.56-9.92,24.62-.11.28-.23.56-.34.83-2.5,6.09-2.5,6.04-9.11,6.04-1.67,0-2.71-.4-3.59-1.97-2.25-4.02-4.75-7.91-7.16-11.84-.1-.16-.28-.26-.76-.68-1.71,4.15-3.45,8.14-4.96,12.22-.62,1.66-1.37,2.42-3.23,2.29-2.39-.17-4.8-.04-7.76-.04Z"/><path class="cls-1" d="m209.12.65c-2.91,7.23-5.62,13.98-8.48,21.08h16.22c-1.31,3.34-2.4,6.33-3.67,9.23-.24.54-1.19,1.09-1.82,1.1-8.12.07-16.24.05-24.91.05,1.46-3.62,2.79-6.92,4.12-10.2,2.55-6.31,5.19-12.59,7.62-18.95.69-1.81,1.6-2.47,3.5-2.34,2.29.16,4.6.04,7.44.04Z"/><path class="cls-1" d="m90.65,11.13c-3.24,8.04-6.46,16.11-9.74,24.16-2.8,6.88-2.82,6.87-10.33,6.87-7.73,0-15.46,0-23.2,0-.96,0-1.93,0-3.37,0,2.65-6.55,5.13-12.65,7.59-18.75,1.46-3.62,2.84-7.29,4.43-10.85.36-.79,1.47-1.77,2.24-1.78,10.54-.11,21.09-.06,31.63-.04.17,0,.33.17.74.38Zm-13.99,9.87c-4.58,0-8.58-.03-12.58.03-.59,0-1.53.31-1.72.74-1.43,3.23-2.71,6.52-4.13,10.05,4.38,0,8.28.07,12.18-.06.8-.03,1.98-.6,2.29-1.24,1.39-2.96,2.54-6.03,3.96-9.52Z"/><path class="cls-1" d="m269.87,11.21c-3.42,8.5-6.84,17.04-10.3,25.56-2.22,5.46-2.25,5.44-8.28,5.44-9.13,0-18.26,0-27.69,0,.2-.84.27-1.48.5-2.07,3.66-9.11,7.31-18.23,11.09-27.29.37-.88,1.55-2,2.37-2.01,10.54-.12,21.09-.07,31.63-.04.16,0,.32.18.69.41Zm-32.42,20.66c4.38,0,8.38.04,12.37-.04.68-.01,1.75-.37,1.97-.86,1.42-3.16,2.65-6.4,4.02-9.82h-14.02c-1.42,3.49-2.83,6.98-4.35,10.73Z"/><path class="cls-1" d="m0,31.51c1.69-4.24,3.22-8.12,4.78-11.98,2.33-5.76,4.73-11.49,6.98-17.28C12.39.62,13.21-.02,15.02,0c8.63.1,17.27.03,25.9.05,3.09,0,4.8,2.52,3.65,5.43-2.59,6.52-4.95,13.14-7.99,19.45-1.8,3.74-5.31,6.38-9.66,6.5-8.81.25-17.63.07-26.92.07Zm14.16-10.34c4.38,0,8.38.04,12.37-.04.68-.01,1.75-.37,1.97-.86,1.42-3.16,2.65-6.4,4.02-9.82h-14.02c-1.42,3.49-2.83,6.98-4.35,10.73Z"/></g></svg>