<?xml version="1.0" encoding="UTF-8"?><svg id="Layer_2" xmlns="http://www.w3.org/2000/svg" viewBox="0 0 335.73 51.75"><defs><style>.cls-1,.cls-2{stroke-width:0px;}.cls-2{fill:red;}</style></defs><g id="Layer_1-2"><path class="cls-1" d="m156.27.61c-4.88,12.12-9.54,23.72-14.22,35.32q-2.31,5.72-8.42,5.72c-11.56,0-23.12,0-34.67,0h-3.62c3.58-8.83,7-17.26,10.41-25.7,1.81-4.46,3.54-8.95,5.46-13.37.35-.81,1.39-1.88,2.12-1.88,14.16-.11,28.32-.08,42.94-.08Zm-12.41,17.8c-5.06,0-9.56,0-14.07,0-4.59,0-4.63.04-5.46,4.98h7.97c-1.47,2.24-2.37,5.13-3.68,5.33-4.17.62-8.48.23-13.11.23,2-4.91,3.87-9.33,5.57-13.82.64-1.7,1.59-2.23,3.36-2.2,6.43.1,12.86.1,19.29-.02,1-.02,2.42-.59,2.87-1.36,1.04-1.78,1.61-3.84,2.39-5.86-.5-.14-.77-.28-1.04-.28-10.35-.02-20.7-.07-31.05.07-.9.01-2.2,1.17-2.6,2.1-2.51,5.79-4.83,11.67-7.2,17.53-1.53,3.78-3.02,7.57-4.68,11.73,11.29,0,22.12.02,32.95-.06.56,0,1.4-.75,1.64-1.34,2.25-5.45,4.41-10.95,6.83-17.04Z"/><path class="cls-2" d="m143.86,18.41c-2.42,6.09-4.57,11.58-6.83,17.04-.24.59-1.08,1.34-1.64,1.34-10.83.08-21.66.06-32.95.06,1.66-4.16,3.15-7.95,4.68-11.73,2.37-5.86,4.69-11.74,7.2-17.53.4-.93,1.7-2.09,2.6-2.1,10.35-.14,20.7-.09,31.05-.07.27,0,.54.14,1.04.28-.79,2.02-1.35,4.08-2.39,5.86-.45.77-1.88,1.34-2.87,1.36-6.43.12-12.86.12-19.29.02-1.77-.03-2.72.5-3.36,2.2-1.7,4.49-3.58,8.91-5.57,13.82,4.63,0,8.94.39,13.11-.23,1.31-.19,2.21-3.09,3.68-5.33h-7.97c.83-4.94.87-4.98,5.46-4.98,4.51,0,9.01,0,14.07,0Z"/><path class="cls-1" d="m195.87,11.16c-2.1,5.15-4.15,10.35-6.38,15.48-.24.54-1.53,1.04-2.21.91-3.75-.69-5.5,1.12-6.24,4.51-.18.85-.61,1.66-1.02,2.76h6.35c-2.24,5.53-4.31,10.71-6.47,15.86-.21.49-1.03,1.02-1.57,1.02-12.84.06-25.68.04-38.9.04,3.01-7.51,5.86-14.66,8.74-21.8,2.33-5.77,4.65-11.55,7.09-17.27.35-.81,1.4-1.87,2.13-1.87,12.57-.1,25.14-.05,37.71-.03.16,0,.33.16.77.39Zm-16.63,28.19h-19.39q1.46-5.53,6.61-5.53c1.61,0,3.21,0,4.82,0,4.56,0,4.77-.2,5.41-5.28h-12.26c.84-5.38.94-5.46,5.69-5.46,4.52,0,9.04.05,13.56-.05.88-.02,2.2-.37,2.53-.98,1.06-1.97,1.75-4.14,2.71-6.55-9.72,0-18.95-.05-28.18.09-.82.01-1.97,1.14-2.36,2.02-1.82,4.12-3.43,8.34-5.12,12.53-2.21,5.45-4.42,10.9-6.81,16.8,9.97,0,19.46.01,28.96-.04.44,0,1.09-.53,1.28-.98.85-1.99,1.58-4.04,2.54-6.57Z"/><path class="cls-2" d="m179.25,39.36c-.96,2.53-1.68,4.58-2.54,6.57-.19.44-.84.97-1.28.98-9.5.06-19,.04-28.96.04,2.39-5.9,4.61-11.35,6.81-16.8,1.69-4.18,3.29-8.4,5.12-12.53.39-.88,1.54-2.01,2.36-2.02,9.23-.14,18.46-.09,28.18-.09-.96,2.41-1.65,4.58-2.71,6.55-.33.62-1.65.96-2.53.98-4.52.1-9.04.05-13.56.05-4.76,0-4.85.09-5.69,5.46h12.26c-.64,5.09-.85,5.28-5.41,5.28-1.61,0-3.21,0-4.82,0q-5.14,0-6.61,5.53h19.39Z"/><path class="cls-1" d="m299.27,32.83c-.37.54-.58.77-.7,1.04-1.13,2.54-1.6,6.09-3.56,7.36-1.99,1.3-5.44.39-8.25.41-3.71.02-7.42,0-11.57,0,5.6-13.86,11.07-27.41,16.57-41.04,4.56,0,8.98-.09,13.4.08.86.03,1.94.85,2.47,1.62,1.53,2.18,2.83,4.52,4.54,7.32,1.14-2.76,1.91-5.02,3.02-7.1.45-.84,1.62-1.81,2.48-1.83,5.92-.16,11.85-.08,18.07-.08-.19.82-.25,1.48-.48,2.06-4.85,12.11-9.76,24.2-14.54,36.35-.78,1.99-1.74,2.81-3.93,2.68-3.41-.2-6.84.06-10.25-.13-.98-.05-2.23-.77-2.81-1.57-1.58-2.18-2.88-4.58-4.46-7.17Zm-17.05,4.03c2.95,0,5.36-.13,7.76.04,1.86.13,2.61-.63,3.23-2.29,1.51-4.07,3.26-8.06,4.96-12.22.48.42.67.52.76.68,2.41,3.93,4.91,7.82,7.16,11.84.88,1.57,1.92,1.98,3.59,1.97,6.61,0,6.61.04,9.11-6.04.11-.28.23-.56.34-.83,3.25-8.07,6.5-16.13,9.92-24.62-2.87,0-5.35.12-7.81-.04-1.72-.12-2.47.56-3.05,2.09-1.57,4.15-3.3,8.24-5.17,12.83-2.07-3.38-4.27-6.1-5.51-9.2-2.03-5.08-5.55-6.53-10.54-5.69-.29.05-.66-.09-.89.04-.54.31-1.29.63-1.49,1.13-4.08,9.89-8.1,19.81-12.37,30.3Z"/><path class="cls-2" d="m282.21,36.86c4.27-10.49,8.28-20.41,12.37-30.3.21-.5.95-.82,1.49-1.13.23-.13.6.01.89-.04,4.99-.84,8.52.6,10.54,5.69,1.24,3.11,3.44,5.83,5.51,9.2,1.86-4.59,3.6-8.68,5.17-12.83.58-1.53,1.33-2.21,3.05-2.09,2.46.17,4.94.04,7.81.04-3.42,8.49-6.67,16.56-9.92,24.62-.11.28-.23.56-.34.83-2.5,6.09-2.5,6.04-9.11,6.04-1.67,0-2.71-.4-3.59-1.97-2.25-4.02-4.75-7.91-7.16-11.84-.1-.16-.28-.26-.76-.68-1.71,4.15-3.45,8.14-4.96,12.22-.62,1.66-1.37,2.42-3.23,2.29-2.39-.17-4.8-.04-7.76-.04Z"/><path class="cls-1" d="m223.23.7c-2.86,7.1-5.58,13.85-8.44,20.94h16.26c-1.18,2.94-2.2,5.48-3.21,8.02-1.33,3.36-2.57,6.76-4.04,10.06-.36.81-1.45,1.83-2.21,1.84-11.56.12-23.11.08-35.12.08,5.58-13.83,11.05-27.37,16.53-40.94h20.22Zm-7.01,4.7c-2.84,0-5.15.12-7.44-.04-1.9-.13-2.81.53-3.5,2.34-2.43,6.36-5.06,12.64-7.62,18.95-1.33,3.29-2.65,6.58-4.12,10.2,8.67,0,16.79.02,24.91-.05.63,0,1.58-.55,1.82-1.1,1.27-2.91,2.37-5.89,3.67-9.23h-16.22c2.86-7.1,5.57-13.85,8.48-21.08Z"/><path class="cls-2" d="m216.22,5.39c-2.91,7.23-5.62,13.98-8.48,21.08h16.22c-1.31,3.34-2.4,6.33-3.67,9.23-.24.54-1.19,1.09-1.82,1.1-8.12.07-16.24.05-24.91.05,1.46-3.62,2.79-6.92,4.12-10.2,2.55-6.31,5.19-12.59,7.62-18.95.69-1.81,1.6-2.47,3.5-2.34,2.29.16,4.6.04,7.44.04Z"/><path class="cls-1" d="m60.58,10.79h44.33c-1.94,4.79-3.78,9.31-5.6,13.84-3.33,8.29-6.66,16.58-9.93,24.89-.57,1.45-1.22,2.23-3.01,2.22-13.58-.09-27.15-.05-40.73-.06-.38,0-.77-.08-1.5-.17,5.54-13.71,11.01-27.26,16.45-40.73Zm37.16,5.09c-.41-.22-.58-.38-.74-.38-10.54-.02-21.09-.07-31.63.04-.77,0-1.88.99-2.24,1.78-1.6,3.57-2.97,7.23-4.43,10.85-2.46,6.1-4.94,12.2-7.59,18.75,1.44,0,2.41,0,3.37,0,7.73,0,15.46,0,23.2,0,7.51,0,7.53.01,10.33-6.87,3.27-8.05,6.5-16.12,9.74-24.16Z"/><path class="cls-2" d="m97.74,15.88c-3.24,8.04-6.46,16.11-9.74,24.16-2.8,6.88-2.82,6.87-10.33,6.87-7.73,0-15.46,0-23.2,0-.96,0-1.93,0-3.37,0,2.65-6.55,5.13-12.65,7.59-18.75,1.46-3.62,2.84-7.29,4.43-10.85.36-.79,1.47-1.77,2.24-1.78,10.54-.11,21.09-.06,31.63-.04.17,0,.33.17.74.38Zm-13.99,9.87c-4.58,0-8.58-.03-12.58.03-.59,0-1.53.31-1.72.74-1.43,3.23-2.71,6.52-4.13,10.05,4.38,0,8.28.07,12.18-.06.8-.03,1.98-.6,2.29-1.24,1.39-2.96,2.54-6.03,3.96-9.52Z"/><path class="cls-1" d="m83.75,25.75c-1.42,3.48-2.56,6.56-3.96,9.52-.31.65-1.49,1.22-2.29,1.24-3.9.13-7.8.06-12.18.06,1.43-3.53,2.71-6.82,4.13-10.05.19-.43,1.12-.73,1.72-.74,4-.06,8-.03,12.58-.03Z"/><path class="cls-1" d="m223.28,51.74c4.17-10.31,8.15-20.15,12.14-29.99,1.24-3.07,2.39-6.18,3.78-9.19.36-.79,1.44-1.77,2.2-1.78,14.07-.11,28.15-.08,42.7-.08-.55,1.47-.97,2.65-1.43,3.81-4.63,11.55-9.24,23.11-13.98,34.62-.43,1.05-1.74,2.49-2.65,2.5-14.07.16-28.15.11-42.75.11Zm53.68-35.79c-.38-.23-.53-.41-.69-.41-10.54-.03-21.09-.08-31.63.04-.82,0-2,1.14-2.37,2.01-3.78,9.06-7.42,18.18-11.09,27.29-.23.58-.3,1.23-.5,2.07,9.43,0,18.56,0,27.69,0,6.03,0,6.06.01,8.28-5.44,3.46-8.52,6.88-17.06,10.3-25.56Z"/><path class="cls-2" d="m276.96,15.95c-3.42,8.5-6.84,17.04-10.3,25.56-2.22,5.46-2.25,5.44-8.28,5.44-9.13,0-18.26,0-27.69,0,.2-.84.27-1.48.5-2.07,3.66-9.11,7.31-18.23,11.09-27.29.37-.88,1.55-2,2.37-2.01,10.54-.12,21.09-.07,31.63-.04.16,0,.32.18.69.41Zm-32.42,20.66c4.38,0,8.38.04,12.37-.04.68-.01,1.75-.37,1.97-.86,1.42-3.16,2.65-6.4,4.02-9.82h-14.02c-1.42,3.49-2.83,6.98-4.35,10.73Z"/><path class="cls-1" d="m244.54,36.61c1.52-3.75,2.93-7.23,4.35-10.73h14.02c-1.38,3.43-2.61,6.67-4.02,9.82-.22.5-1.29.85-1.97.86-3.99.08-7.99.04-12.37.04Z"/><path class="cls-1" d="m0,41.04C5.61,27.15,11.08,13.62,16.57,0,28.25,0,39.79-.02,51.33.06c.79,0,1.78.68,2.34,1.33,3.49,4.04,4.37,8.14,1.56,13.26-2.73,4.97-4.56,10.46-6.54,15.82-1.02,2.76-2.74,4.62-5.01,6.45-3.87,3.13-7.9,4.42-12.92,4.22-9.22-.37-18.47-.11-27.71-.11-.88,0-1.75,0-3.05,0Zm7.09-4.79c9.29,0,18.11.17,26.92-.07,4.36-.12,7.86-2.76,9.66-6.5,3.04-6.3,5.4-12.93,7.99-19.45,1.16-2.91-.55-5.43-3.65-5.43-8.63-.02-17.27.05-25.9-.05-1.81-.02-2.63.62-3.26,2.25-2.25,5.79-4.65,11.52-6.98,17.28-1.56,3.87-3.09,7.75-4.78,11.98Z"/><path class="cls-2" d="m7.09,36.25c1.69-4.24,3.22-8.12,4.78-11.98,2.33-5.76,4.73-11.49,6.98-17.28.63-1.63,1.45-2.27,3.26-2.25,8.63.1,17.27.03,25.9.05,3.09,0,4.8,2.52,3.65,5.43-2.59,6.52-4.95,13.14-7.99,19.45-1.8,3.74-5.31,6.38-9.66,6.5-8.81.25-17.63.07-26.92.07Zm14.16-10.34c4.38,0,8.38.04,12.37-.04.68-.01,1.75-.37,1.97-.86,1.42-3.16,2.65-6.4,4.02-9.82h-14.02c-1.42,3.49-2.83,6.98-4.35,10.73Z"/><path class="cls-1" d="m21.26,25.91c1.52-3.75,2.93-7.23,4.35-10.73h14.02c-1.38,3.43-2.61,6.67-4.02,9.82-.22.5-1.29.85-1.97.86-3.99.08-7.99.04-12.37.04Z"/></g></svg>